<?xml version="1.0" encoding="utf-8"?>
<!-- Generator: Adobe Illustrator 23.0.0, SVG Export Plug-In . SVG Version: 6.00 Build 0)  -->
<svg version="1.1" id="Слой_1" xmlns="http://www.w3.org/2000/svg" xmlns:xlink="http://www.w3.org/1999/xlink" x="0px" y="0px"
	 viewBox="0 0 1261.4 972.3" style="enable-background:new 0 0 1261.4 972.3;" xml:space="preserve">
<style type="text/css">
	.st0{fill:#015CBF;}
	.st1{fill:#FED600;}
</style>
<g>
	<g>
		<g>
			<path class="st1" d="M1070.4,488.5c4.5-6.4,15.1-28.6,14.8-33.8c-0.2-1-0.5-3.8-0.5-3.8s-2.6-1.4-3.3-2
				c-4.5-2.6-29.1-2.2-36.9-0.9c-35.9,5.9-88.7,30.1-134.7,54.4c-16.9,9-36.5,33.6-52.8,57.4c12.7,16.1,23.7,33.6,32.9,52.1
				c28.5-4.7,59.3-12.1,74.6-23.9C1005.9,556.3,1050,518.7,1070.4,488.5z"/>
		</g>
		<g>
			<path class="st1" d="M821.9,271.7c-0.4-7.7-6-32-9.4-35.7c-0.7-0.8-2.8-2.9-2.8-2.9s-3,0.3-3.8,0.5c-5,0.9-24.3,16.2-29.7,22
				c-24.6,26.6-51.2,78.2-72.7,125.9c-7.6,17.1-8.1,47.4-6.4,75.5c21,5.1,41,12.5,59.9,21.8c19.1-20.9,38-45,42.7-63.3
				C812.8,364.7,824.3,308.1,821.9,271.7z"/>
		</g>
		<g>
			<path class="st1" d="M896.8,488.1c28.9-43.4,58.3-93.5,67.7-128.5c2.1-7.5,5-32.1,2.8-36.7c-0.4-0.8-1.5-3.6-1.5-3.6
				s-2.9-0.5-3.9-0.8c-5.1-0.9-28.4,7.5-35.3,11.2c-31.9,17.4-73.9,57.3-109.5,95.3c-12.9,13.8-23.4,42.8-31,70.3
				c17.7,11.4,34,24.7,48.7,39.5C860,521,886.2,504,896.8,488.1z"/>
		</g>
		<g>
			<path class="st1" d="M341.3,325.2c-6.9-3.8-30-12.5-35.1-11.6c-1,0.2-3.8,0.7-3.8,0.7s-1.2,2.6-1.5,3.6
				c-2.1,4.8,0.5,29.3,2.4,36.9c9.2,35.2,37.8,85.5,65.9,129.4c9.8,15.2,33.7,31.6,57.5,45.2c15.8-15.1,33.3-28.4,52.2-39.7
				c-7.1-26.6-16.9-54.1-29.2-67.6C414.4,383.7,373.1,343,341.3,325.2z"/>
		</g>
		<g>
			<path class="st1" d="M658.8,235c-2.9-7.2-15.9-28.3-20.4-30.8c-0.9-0.6-3.3-1.7-3.3-1.7s-2.6,1.3-3.4,1.7
				c-4.6,2.4-17.7,23.2-20.9,30.4c-14.5,33.4-22.9,90.8-27.8,142.5c-1.7,18.4,7.4,46.9,18.2,72.8c16.2-1.5,32.7-1.7,49.4-0.4
				c4.9,0.4,9.7,0.9,14.5,1.5c11.1-25.8,21-54.4,19.5-73C680.6,326,672.9,268.4,658.8,235z"/>
		</g>
		<g>
			<path class="st1" d="M492.7,253.5c-5.3-5.9-24.1-21.5-29.3-22.4c-1-0.1-3.9-0.6-3.9-0.6s-2.1,2.1-2.7,2.8
				c-3.5,3.7-9.1,27.8-9.9,35.7c-2.8,36.3,7.7,93.1,20.2,144c4.3,17.7,21.8,41.2,40,61.9c19.7-9,40.5-15.9,62.1-20.4
				c2-27.7,1.8-57.4-5.6-74.3C542.9,332.5,516.9,280.7,492.7,253.5z"/>
		</g>
		<g>
			<path class="st1" d="M355.7,498.5c-45.7-24.9-98.1-49.7-133.9-56.2c-7.6-1.3-32.3-2-37,0.4c-0.8,0.4-3.4,2-3.4,2s-0.2,3-0.3,3.9
				c-0.4,5.2,9.8,27.5,14.2,34.1c20,30.3,63.4,68.6,104.6,100.8c14.1,11,41.7,18.7,68.3,23.8c10.1-19.7,22.5-38.1,36.6-54.9
				C389.7,529.7,371.6,507.1,355.7,498.5z"/>
		</g>
		<g>
			<path class="st1" d="M750.3,262.3c-0.9-6.4-1.9-12.4-3.2-17.9c-1.5-6.7-11.1-32.2-17.2-37.2c-1-0.8-3-2.3-3.4-2.6l-2.6-1.9
				l-3,0.9c0,0-2.8,0.9-3.8,1.2c-8.1,2.8-25.6,24.2-28.9,29.1c-2.6,4.1-5.3,8.6-7.9,13.7c9.3,30.9,14.9,71.2,18.3,106.6
				C717.2,314.7,734.6,283.9,750.3,262.3z"/>
		</g>
		<g>
			<path class="st1" d="M244.7,431.4c26.3,7.7,59.5,22,99.4,42.8c-23.1-37.4-39.5-68.8-49.2-94.1c-5.8-2.8-11.4-5.2-16.7-7.1
				c-5.6-2-32.8-8.2-40.6-5.7l-0.2,0.1c-0.9,0.3-3.8,1.4-3.8,1.4l-3.1,1.2l-1.7,7.1c-1.9,7.9,6,34,8.9,40.1
				C239.5,421.8,241.9,426.5,244.7,431.4z"/>
		</g>
		<g>
			<path class="st1" d="M132.5,528.1c1.3,8.2,16.6,29.7,21.2,34.6c3.5,3.7,7.4,7.4,11.6,11.2c27.2-1.2,63.1,1.5,107.1,8.1
				c-27-22-56.7-48.4-77.2-73c-6.1-0.7-11.9-1.1-17.3-1.2c-5.9-0.1-33.8,2.8-40.4,8.1l-0.3,0.2c-0.3,0.3-1.5,1.1-2.5,1.8l-2.8,2
				l0.1,3.5C132.1,524.5,132.2,526.6,132.5,528.1z"/>
		</g>
		<g>
			<path class="st1" d="M366.4,322.4c22.2,15.8,48.9,40.1,79.9,72.7c-7.6-33.8-14.7-72.8-15.8-104.9c-4.8-4.7-9.4-8.8-13.8-12.3
				c-4.9-3.9-28.7-18.6-36.7-18.5c-1.1,0-4,0.1-4,0.1l-3.3,0.1l-1.8,2.8c-0.5,0.8-1.7,2.6-2.3,3.7c-4.3,7.3-5,34.4-4.5,40.5
				C364.6,311.5,365.4,316.8,366.4,322.4z"/>
		</g>
		<g>
			<path class="st1" d="M588.3,249.7c-2.9-5.9-5.9-11.3-9-16.2c-3.3-5.2-20.7-26.7-28.5-29.4l-0.6-0.2c-0.4-0.1-1.9-0.6-3.3-1l-3-1
				l-2.6,1.8c-1.2,0.8-2.8,1.9-3.6,2.7c-6.7,5.6-16.5,32.8-17.6,36.8l-0.1,0.2c-1.2,4.7-2.1,9.8-3,15.2c19,26.4,37.5,62.9,52.3,95.3
				C574.2,310.2,580.6,275.4,588.3,249.7z"/>
		</g>
		<g>
			<path class="st1" d="M1019.3,437.6c3.3-5.7,6.3-11.2,8.6-16.4c2.6-5.7,11.3-32.2,9.1-40.2l-0.1-0.4c-0.1-0.4-0.4-1.7-0.6-2.9
				l-0.7-3.7l-3.6-1.2c-1-0.3-2.4-0.9-2.8-1l-0.9-0.4c-7.7-2.7-34.9,3.3-40.9,5.3c-4.4,1.5-9,3.4-13.8,5.5
				c-9.8,25.5-27,57.6-51.3,95.7C961.1,458.5,993.5,445,1019.3,437.6z"/>
		</g>
		<g>
			<path class="st1" d="M899.2,328.1c1.4-6.8,2.4-13.1,3-18.9c0.7-6,0-33.8-4.4-40.8c-0.6-1-2.1-3.2-2.4-3.6l-1.7-2.5l-3-0.2
				c-3-0.2-4.1-0.2-4.6-0.2c-8.4,0.4-31.8,14.6-36.5,18.2c-3.7,2.8-7.5,6.1-11.5,9.8c-1,27.4-6.9,63.7-17.6,108.3
				C844.5,373.6,873.2,346.6,899.2,328.1z"/>
		</g>
		<g>
			<path class="st1" d="M991.8,587c42.9-5.8,78-8.1,104.8-6.8c5.2-4.4,9.7-8.7,13.6-12.8c4.8-4.9,21.1-26.8,21.9-34.8l0-0.3l0-0.3
				c0-0.5,0.1-2.1,0.2-3.4l0.2-3.3l-2.6-2.1c-0.9-0.7-2-1.6-2.2-1.8l-0.7-0.6c-6.5-5.3-34.4-8.4-40.3-8.3c-4.6,0-9.7,0.2-15,0.7
				C1054.1,533.9,1027.4,558.6,991.8,587z"/>
		</g>
		<g>
			<path class="st1" d="M1151.8,611.2c-3.4-3.7-26.9-11.5-34.7-12.8c-35.8-6-93.5-0.3-145,7.7c-13.5,2.1-31,11.3-48.4,22.8h221.5
				c4.2-4.6,7.5-8.9,8.1-11c0.3-1,1-3.6,1-3.6S1152.5,612,1151.8,611.2z"/>
		</g>
		<g>
			<path class="st1" d="M147.1,591.6c-7.8,1.1-31.2,8.5-34.7,12.5c-0.6,0.7-2.7,2.8-2.7,2.8s0.5,2.8,0.9,3.8
				c0.8,3.2,7.8,11.3,14.3,18.2h220.8c-19-13.5-38.7-25-53.8-27.5C240.5,592.6,183,586.1,147.1,591.6z"/>
		</g>
	</g>
	<g>
		<path class="st0" d="M172.5,861.4c0,18.8-9.1,25.9-20.2,25.9c-11.1,0-20.2-7.1-20.2-25.9V649.6H91.8v191.6
			c0,33.6,27.2,55.5,60.5,55.5c33.3,0,60.5-21.9,60.5-55.5V649.6h-40.3V861.4z"/>
		<path class="st0" d="M345.9,715.9c-18.2,4-27.6,10.1-40.3,21.2v-87.4h-40.3v242h40.3V753.9c12.1,12.4,24.5,17.8,40.3,21.2v116.7
			h40.3v-121c-30.3,0-56.5-6.7-74.3-25.2c15.8-17.5,44-25.2,74.3-25.2v-70.6h-40.3V715.9z"/>
		<path class="st0" d="M438.7,891.7h40.3V753.9c12.1,12.4,24.5,17.8,40.3,21.2v116.7h40.3v-121c-28.6,0-59.2-7.1-74.3-25.2
			c15.1-18.2,46.4-25.2,74.3-25.2v-70.6h-121V891.7z M479.1,659.7h40.3v56.1c-18.2,4-27.6,10.1-40.3,21.2V659.7z"/>
		<path class="st0" d="M691.2,670.8h-0.7c-1.7-15.5-18.2-26.2-35.6-26.2c-21.5,0-38.3,12.8-38.3,28.2c0,9.4,7.4,17.1,16.5,17.1
			c11.1,0,15.8-6.7,15.8-15.5c0-5-4.4-9.7-9.7-9.7c-2,0-5.7,0.7-7.4,3.4l-1-2c3-6.7,13.4-12.1,24.2-12.1c12.1,0,25.9,8.1,25.9,20.5
			c0,6.7-3,11.8-9.4,16.1c-17.1,11.8-38.7,16.1-60.8,19.5v181.5h40.3v-70.6h40.3v70.6h40.3v-242h-40.3V670.8z M691.2,811h-40.3
			v-99.2c23.9-9.4,37.3-16.8,39.7-33.6h0.7V811z"/>
		<rect x="785.7" y="649.6" class="st0" width="40.3" height="242"/>
		<polygon class="st0" points="960.8,755.2 920.5,710.2 920.5,649.6 880.1,649.6 880.1,891.7 920.5,891.7 920.5,725.6 960.8,770.7 
			960.8,891.7 1001.2,891.7 1001.2,649.6 960.8,649.6 		"/>
		<path class="st0" d="M1055.3,891.7h121v-90.8H1136v80.7h-40.3V762.3l10.1-5.4c6.4-3.4,14.8-6.4,21.5-6.4c5.4,0,8.7,5.4,8.7,10.1
			v10.1h40.3v-11.4c0-19.5-19.2-25.6-34.3-25.6c-12.4,0-25.5,4.4-36.3,10.4l-10.1,6.1v-90.4h40.3v50.4h40.3v-60.5h-121V891.7z"/>
		<path class="st0" d="M649.2,466.2c-119.3-9.2-226.6,59.2-272.5,162.6h502.8C839.7,539.4,753.5,474.2,649.2,466.2z"/>
		<path class="st0" d="M168.8,416.3c-28.9-20.2-43.2-30.1-71.1-49.2l-7.8,11.3c24.3,17.2,48,32.8,71.1,48.8L168.8,416.3z"/>
		<path class="st0" d="M289.6,255.5c-20.9-25.5-67.4,40.2-81.5,23c-1.4-1.7-11.5-10.5,4.7-26l12.7-10.5c9.9-8.1,18.7-14.2,31-3.3
			l10.4-8.5c-14.3-15.7-33.9-7-44.5,1.8l-16.8,13.8c-14,11.5-18.6,30.1-7.8,41.9c22.1,24.9,67.5-38.3,81-21.8
			c5.2,6.4,2,16.8-6.3,23.6l-19.3,15.8c-8,6.6-21.7,2.3-25.8-3.2l-10.8,8.5c9,14.6,30.9,12.1,44.3,1.1l16.3-13.4
			C289.1,288.8,302.9,271.7,289.6,255.5z"/>
		<path class="st0" d="M319.6,177.4c14.8,27.2,26.5,49.3,36.3,67.2l11.6-6.2c-13.8-25.7-25.1-46.4-36.3-67.2l33-17.7l-4.7-8.8
			l-79.8,42.9l4.7,8.8L319.6,177.4z"/>
		<path class="st0" d="M435.2,173.5l31.5-9.7l23.3,26l13-4c-60.6-68.2-62.5-71.1-62.5-71.1l-10.4,3.2L418,211.9l12.8-4L435.2,173.5z
			 M440.4,134.3l19.1,21.1l-22.6,7L440.4,134.3z"/>
		<path class="st0" d="M535.2,179c-2.2-20.3-7.3-68.9-7.6-69.4l71.4,62.6c4.1-0.4,7.8-0.8,12.1-1.3c-3.3-31-6.2-58.6-9.1-85.8
			l-13.4,1.4c3.3,31.1,5.2,48.5,7.1,66.8c-69.2-60.4-68.8-60.1-70.3-59.9l-13,1.4c3,28.3,6.1,57.7,9.1,85.6L535.2,179z"/>
		<path class="st0" d="M724.6,150.4l2.8-30.4c-1.5-21.8-18.5-29.3-36.6-31.9l-53.1-5l-7.5,86l50.4,4.5
			C689.6,174.6,720.2,175.3,724.6,150.4z M650.8,94.3l38.7,3.7c7.5,0.3,24.6,6.6,24.4,21l-2.6,30.3c-3.3,12.4-15.7,16.1-29.7,14.7
			l-36.5-3.5L650.8,94.3z"/>
		<polygon class="st0" points="906.9,165.6 897.5,236.5 908.1,241.7 967,174.6 955.8,169 911.8,219.1 919.5,151.2 909,146 
			861.5,194 873.7,128.7 862.5,123.1 845.8,211 856.5,216.3 		"/>
		<path class="st0" d="M955.9,272.5c20.3-28.8,30.2-43.1,49.4-71l-11.3-7.9c-17.3,24.3-32.9,47.9-49,71L955.9,272.5z"/>
		<path class="st0" d="M1092.3,286.3l6.7-7.4l-67.2-60.7l-6.7,7.4l29.7,26.8c-20.6,23-37.5,41.5-51.1,56.8l9.7,8.8
			c19.6-21.7,35.2-39.2,51.1-56.8L1092.3,286.3z"/>
		<path class="st0" d="M1092.1,345.8l37.6,50.2l-28.7,21.5l7.9,10.9c22.1-17.2,47.5-35.4,69.2-51.9l-8.1-10.8l-31.8,23.9
			c-11.6-15.1-16.9-22.9-37.6-50.2c10.9-8.4,21.7-16.3,31.9-24l-8.3-11c-23.7,17-46.2,34.7-69.1,51.8l8.1,11.2L1092.1,345.8z"/>
	</g>
</g>
</svg>
