<svg version="1.1" xmlns="http://www.w3.org/2000/svg" viewBox="0 0 621.0518798828125 510" width="1242.103759765625" height="1020" filter="invert(93%) hue-rotate(180deg)">
  <!-- svg-source:excalidraw -->
  
  <defs>
    <style class="style-fonts">
      @font-face {
        font-family: "Virgil";
        src: url('/fonts/Virgil.woff2') format('woff2');
      }
      @font-face {
        font-family: "Cascadia";
        src: url('/fonts/Cascadia.woff2') format('woff2');
      }
    </style>
    
  </defs>
  <g stroke-linecap="round" transform="translate(10 289.8515625) rotate(0 10 20)"><path d="M-0.48 0.09 L19.69 -1 L20.24 40.71 L-0.53 39.76" stroke="none" stroke-width="0" fill="#a5d8ff"></path><path d="M0 0 C6.73 -0.98, 13.68 -0.55, 20 0 M0 0 C7.65 0.03, 16.17 0.47, 20 0 M20 0 C20.26 8.96, 20.99 18.79, 20 40 M20 0 C20.04 10.57, 20.42 20.47, 20 40 M20 40 C14.19 40.33, 7.55 39.52, 0 40 M20 40 C15.73 39.88, 11.81 40.22, 0 40 M0 40 C-0.22 25.07, -0.23 9.13, 0 0 M0 40 C0.44 29.39, 0.03 17.99, 0 0" stroke="#1864ab" stroke-width="1" fill="none"></path></g><g stroke-linecap="round" transform="translate(10 290) rotate(0 100 20)"><path d="M0 0 C49.3 -1.98, 95.66 -2.85, 200 0 M0 0 C51.01 -1.16, 100.9 -0.86, 200 0 M200 0 C200.14 15.43, 201.02 27.22, 200 40 M200 0 C200.5 14.3, 200.48 29.2, 200 40 M200 40 C131.77 38.63, 59.71 39.02, 0 40 M200 40 C124.79 38.62, 51.02 38.93, 0 40 M0 40 C1.63 29.27, 1.72 17.47, 0 0 M0 40 C-1.23 30.99, -0.08 20.73, 0 0" stroke="#000000" stroke-width="1" fill="none"></path></g><g transform="translate(47.04004669189453 300) rotate(0 62.95995330810547 10)"><text x="62.95995330810547" y="0" font-family="Virgil, Segoe UI Emoji" font-size="16px" fill="#000000" text-anchor="middle" style="white-space: pre;" direction="ltr" dominant-baseline="text-before-edge">large buffer #4</text></g><g stroke-linecap="round" transform="translate(50 50) rotate(0 10 20)"><path d="M-0.24 0.63 L20.52 0.37 L20.67 39.28 L0.74 40.36" stroke="none" stroke-width="0" fill="#a5d8ff"></path><path d="M0 0 C7.37 0.01, 16.48 0.88, 20 0 M0 0 C4.82 -0.36, 9.94 -0.2, 20 0 M20 0 C19.95 10.89, 20.72 20.44, 20 40 M20 0 C20.19 12.47, 19.94 24.37, 20 40 M20 40 C15.56 39.83, 11.83 40.53, 0 40 M20 40 C12.04 40.47, 4.18 40.36, 0 40 M0 40 C0.76 29.73, -0.06 17.87, 0 0 M0 40 C-0.52 30.04, 0.34 19.59, 0 0" stroke="#1864ab" stroke-width="1" fill="none"></path></g><g stroke-linecap="round" transform="translate(50 50) rotate(0 80 20)"><path d="M0 0 C39.89 -1.33, 79.78 -2.25, 160 0 M0 0 C57.52 -0.43, 115.04 -0.52, 160 0 M160 0 C161.27 10.12, 159.4 18.94, 160 40 M160 0 C159.19 14.4, 159.67 28.18, 160 40 M160 40 C118.01 39.6, 76.82 40.83, 0 40 M160 40 C126.46 39.74, 93.5 39.83, 0 40 M0 40 C-1.74 26.13, 1.54 8.26, 0 0 M0 40 C0.38 27.69, 1.02 14.1, 0 0" stroke="#000000" stroke-width="1" fill="none"></path></g><g transform="translate(71.5 60) rotate(0 58.5 10)"><text x="58.5" y="0" font-family="Virgil, Segoe UI Emoji" font-size="16px" fill="#000000" text-anchor="middle" style="white-space: pre;" direction="ltr" dominant-baseline="text-before-edge">default buffer</text></g><g stroke-linecap="round" transform="translate(10 109.625) rotate(0 90 20)"><path d="M-1.85 1.16 L180.79 0.45 L181.04 41.06 L1.63 39.45" stroke="none" stroke-width="0" fill="#d0bfff"></path><path d="M0 0 C45.02 -1.51, 86.89 -2.13, 180 0 M0 0 C55.92 2.51, 110.84 1.56, 180 0 M180 0 C181.54 13.09, 181.68 29.76, 180 40 M180 0 C179.95 9.87, 179.26 20.17, 180 40 M180 40 C143.05 39.04, 101.5 40.54, 0 40 M180 40 C123.04 40.7, 66.96 40.6, 0 40 M0 40 C1.1 28.03, -0.15 18.88, 0 0 M0 40 C-0.14 26.97, 0.45 13.25, 0 0" stroke="#5f3dc4" stroke-width="1" fill="none"></path></g><g stroke-linecap="round" transform="translate(10 109.625) rotate(0 100 20)"><path d="M0 0 C43.82 -0.26, 84.56 0.59, 200 0 M0 0 C52.83 -0.87, 103.09 -1.11, 200 0 M200 0 C200.49 9.66, 197.73 20.45, 200 40 M200 0 C199.75 7.85, 201.27 18.05, 200 40 M200 40 C143 38.97, 88.69 40.12, 0 40 M200 40 C144.87 40.36, 89.64 40.22, 0 40 M0 40 C1.15 25.49, -0.96 11.3, 0 0 M0 40 C0.3 29.26, -0.29 19.66, 0 0" stroke="#000000" stroke-width="1" fill="none"></path></g><g transform="translate(49 119.625) rotate(0 61 10)"><text x="61" y="0" font-family="Virgil, Segoe UI Emoji" font-size="16px" fill="#000000" text-anchor="middle" style="white-space: pre;" direction="ltr" dominant-baseline="text-before-edge">large buffer #1</text></g><g stroke-linecap="round" transform="translate(10 170) rotate(0 10 20)"><path d="M-0.25 -0.23 L20.97 -0.2 L19.2 39.01 L-0.16 40.59" stroke="none" stroke-width="0" fill="#a5d8ff"></path><path d="M0 0 C5.87 -0.79, 11.6 -0.07, 20 0 M0 0 C8.08 0.1, 16.02 0.06, 20 0 M20 0 C20.65 9.02, 19.31 17.63, 20 40 M20 0 C20.13 13.67, 19.5 26.91, 20 40 M20 40 C14.1 39.09, 10.43 40.41, 0 40 M20 40 C13.95 39.92, 7.13 39.75, 0 40 M0 40 C0.03 23.3, 0.27 8.22, 0 0 M0 40 C0.22 26.1, -0.62 11.77, 0 0" stroke="#1864ab" stroke-width="1" fill="none"></path></g><g stroke-linecap="round" transform="translate(10 170) rotate(0 100 20)"><path d="M0 0 C41.21 2.46, 81.28 -0.03, 200 0 M0 0 C53.19 -2.21, 104.36 -0.84, 200 0 M200 0 C198.56 14.71, 200.13 32.43, 200 40 M200 0 C200.02 15.49, 200.1 30.86, 200 40 M200 40 C138.59 42.05, 78.97 40.15, 0 40 M200 40 C131.04 41.18, 62.15 40.65, 0 40 M0 40 C-0.59 26.91, -0.58 9.26, 0 0 M0 40 C0.41 30.36, -0.06 20.65, 0 0" stroke="#000000" stroke-width="1" fill="none"></path></g><g transform="translate(45.5 180) rotate(0 64.5 10)"><text x="64.5" y="0" font-family="Virgil, Segoe UI Emoji" font-size="16px" fill="#000000" text-anchor="middle" style="white-space: pre;" direction="ltr" dominant-baseline="text-before-edge">large buffer #2</text></g><g stroke-linecap="round" transform="translate(10 230) rotate(0 90 20)"><path d="M1.7 -0.77 L180.54 -1.48 L178.22 39.99 L0.56 38.52" stroke="none" stroke-width="0" fill="#d0bfff"></path><path d="M0 0 C39.5 1.09, 77.61 -1.02, 180 0 M0 0 C64.97 0.12, 129.73 -0.68, 180 0 M180 0 C179.57 13.64, 179.77 22.98, 180 40 M180 0 C180.65 12.47, 180.72 26.2, 180 40 M180 40 C143.32 41.49, 107.15 37.94, 0 40 M180 40 C143.59 40.1, 107.38 40.75, 0 40 M0 40 C0.1 26.03, 0.21 9.99, 0 0 M0 40 C-0.9 28.88, -0.77 16.79, 0 0" stroke="#5f3dc4" stroke-width="1" fill="none"></path></g><g stroke-linecap="round" transform="translate(10 230) rotate(0 100 20)"><path d="M0 0 C65.09 -0.16, 128.98 1.76, 200 0 M0 0 C59.78 -0.59, 120.95 -0.21, 200 0 M200 0 C199.47 14.81, 198.83 31.52, 200 40 M200 0 C198.78 15.46, 198.8 31.71, 200 40 M200 40 C130.66 36.74, 64.32 39.65, 0 40 M200 40 C153.19 41.46, 104.91 41.02, 0 40 M0 40 C1.45 29.49, 0.43 20.07, 0 0 M0 40 C-0.04 26.66, 0.4 11.5, 0 0" stroke="#000000" stroke-width="1" fill="none"></path></g><g transform="translate(46.71204376220703 240) rotate(0 63.28795623779297 10)"><text x="63.28795623779297" y="0" font-family="Virgil, Segoe UI Emoji" font-size="16px" fill="#000000" text-anchor="middle" style="white-space: pre;" direction="ltr" dominant-baseline="text-before-edge">large buffer #3</text></g><g stroke-linecap="round" transform="translate(30 350) rotate(0 90 20)"><path d="M-0.74 -0.83 L180.77 0.25 L181.03 40.08 L-1.36 41.26" stroke="none" stroke-width="0" fill="#ffc9c9"></path><path d="M0 0 C64.86 -0.47, 130.1 0.56, 180 0 M0 0 C50.61 0.91, 102.44 1.62, 180 0 M180 0 C180.32 13.85, 179.82 25.82, 180 40 M180 0 C179.64 11.85, 180.86 22.9, 180 40 M180 40 C129.29 38.51, 76.21 39.6, 0 40 M180 40 C113.8 40.09, 46.71 40.24, 0 40 M0 40 C-1.15 29.92, -0.59 22, 0 0 M0 40 C-0.62 28.73, 0.09 20.3, 0 0" stroke="#c92a2a" stroke-width="1" fill="none"></path></g><g transform="translate(89.32003021240234 360.5) rotate(0 30.679969787597656 9.5)"><text x="30.679969787597656" y="0" font-family="Virgil, Segoe UI Emoji" font-size="16px" fill="#000000" text-anchor="middle" style="white-space: pre;" direction="ltr" dominant-baseline="text-before-edge">overspill</text></g><g transform="translate(230 10) rotate(0 107.8125 38.4)"><text x="0" y="0" font-family="Cascadia, Segoe UI Emoji" font-size="16px" fill="#1864ab" text-anchor="start" style="white-space: pre;" direction="ltr" dominant-baseline="text-before-edge">GET / HTTP/1.1</text><text x="0" y="19.2" font-family="Cascadia, Segoe UI Emoji" font-size="16px" fill="#1864ab" text-anchor="start" style="white-space: pre;" direction="ltr" dominant-baseline="text-before-edge">Host: 127.0.0.1:9999</text><text x="0" y="38.4" font-family="Cascadia, Segoe UI Emoji" font-size="16px" fill="#1864ab" text-anchor="start" style="white-space: pre;" direction="ltr" dominant-baseline="text-before-edge">User-Agent: curl/7.79.1</text><text x="0" y="57.599999999999994" font-family="Cascadia, Segoe UI Emoji" font-size="16px" fill="#1864ab" text-anchor="start" style="white-space: pre;" direction="ltr" dominant-baseline="text-before-edge">Accept: */*</text></g><g transform="translate(230 120.46542358398438) rotate(0 107.8125 9.600000000000001)"><text x="0" y="0" font-family="Cascadia, Segoe UI Emoji" font-size="16px" fill="#5f3dc4" text-anchor="start" style="white-space: pre;" direction="ltr" dominant-baseline="text-before-edge">A: 11111111111.........</text></g><g transform="translate(230 180.46542358398438) rotate(0 37.5 19.200000000000003)"><text x="0" y="0" font-family="Cascadia, Segoe UI Emoji" font-size="16px" fill="#1864ab" text-anchor="start" style="white-space: pre;" direction="ltr" dominant-baseline="text-before-edge">B: hello</text><text x="0" y="19.2" font-family="Cascadia, Segoe UI Emoji" font-size="16px" fill="#1864ab" text-anchor="start" style="white-space: pre;" direction="ltr" dominant-baseline="text-before-edge"></text></g><g transform="translate(230 240.46542358398438) rotate(0 107.8125 19.200000000000003)"><text x="0" y="0" font-family="Cascadia, Segoe UI Emoji" font-size="16px" fill="#5f3dc4" text-anchor="start" style="white-space: pre;" direction="ltr" dominant-baseline="text-before-edge">C: 11111111111.........</text><text x="0" y="19.2" font-family="Cascadia, Segoe UI Emoji" font-size="16px" fill="#5f3dc4" text-anchor="start" style="white-space: pre;" direction="ltr" dominant-baseline="text-before-edge"></text></g><g transform="translate(230 299) rotate(0 37.5 9.599999999999994)"><text x="0" y="0" font-family="Cascadia, Segoe UI Emoji" font-size="16px" fill="#1864ab" text-anchor="start" style="white-space: pre;" direction="ltr" dominant-baseline="text-before-edge">D: world</text></g><g transform="translate(230 360.4654235839844) rotate(0 107.8125 9.599999999999994)"><text x="0" y="0" font-family="Cascadia, Segoe UI Emoji" font-size="16px" fill="#c92a2a" text-anchor="start" style="white-space: pre;" direction="ltr" dominant-baseline="text-before-edge">E: 11111111111.........</text></g><g transform="translate(230 465) rotate(0 190.52593994140625 17.5)"><text x="0" y="0" font-family="Virgil, Segoe UI Emoji" font-size="28px" fill="#c92a2a" text-anchor="start" style="white-space: pre;" direction="ltr" dominant-baseline="text-before-edge">HTTP/1.1 400 Bad Request</text></g><g stroke-linecap="round"><g transform="translate(117.80255126953125 391.92254638671875) rotate(0 51.00537109375 44.384552001953125)"><path d="M0.89 1.15 C2.75 14.51, -4.38 64.31, 12.34 78.93 C29.07 93.55, 86.47 87.38, 101.25 88.88 M-0.11 0.72 C1.51 13.84, -5.84 62.34, 11.47 77.26 C28.78 92.18, 88.87 88.37, 103.75 90.25" stroke="#c92a2a" stroke-width="1" fill="none"></path></g><g transform="translate(117.80255126953125 391.92254638671875) rotate(0 51.00537109375 44.384552001953125)"><path d="M103.15 91.33 L87.98 94.53 L92.19 81.52 L104.63 90.35" stroke="none" stroke-width="0" fill="#c92a2a" fill-rule="evenodd"></path><path d="M103.75 90.25 C99.68 92.85, 93.85 94.03, 89.94 96.11 M103.75 90.25 C98.78 92.1, 95.38 93.94, 89.94 96.11 M89.94 96.11 C90.77 91.69, 89.63 88.69, 90.38 83.44 M89.94 96.11 C89.62 92.46, 90.35 87.89, 90.38 83.44 M90.38 83.44 C93.25 86.57, 97.43 88.14, 103.75 90.25 M90.38 83.44 C94.62 84.76, 97.49 87.85, 103.75 90.25 M103.75 90.25 C103.75 90.25, 103.75 90.25, 103.75 90.25 M103.75 90.25 C103.75 90.25, 103.75 90.25, 103.75 90.25" stroke="#c92a2a" stroke-width="1" fill="none"></path></g></g><mask></mask></svg>