<svg version="1.1" xmlns="http://www.w3.org/2000/svg" viewBox="0 0 514 505" width="1028" height="1010" filter="invert(93%) hue-rotate(180deg)">
  <!-- svg-source:excalidraw -->
  
  <defs>
    <style class="style-fonts">
      @font-face {
        font-family: "Virgil";
        src: url('/fonts/Virgil.woff2') format('woff2');
      }
    </style>
  </defs>
  <g stroke-linecap="round" transform="translate(50 50) rotate(0 10 20)"><path d="M0 0 C0 0, 0 0, 0 0 M0 0 C0 0, 0 0, 0 0 M-0.88 6.6 C1.28 5.04, 3.25 2.47, 5.54 0.54 M-0.35 6.79 C0.74 4.87, 1.48 3.92, 5.22 0.26 M1.51 12.39 C1.29 9.76, 5.62 7.38, 11.32 -0.01 M0.89 11.53 C4.42 8.78, 6.86 4.29, 10.04 -0.75 M1.08 17.09 C3.21 14.71, 10.56 7.86, 15.92 2.23 M-0.02 17.95 C3.61 13.79, 7.12 10.65, 16.08 -0.21 M-0.98 23.74 C5.49 18.25, 8.49 13.28, 20.24 2.66 M0.45 24.04 C5.56 17.52, 12.12 10.12, 20.93 0.04 M-1.45 29.63 C5.86 26.38, 8.6 18.66, 21.14 6.64 M-0.81 29.85 C4.87 23.62, 11.86 17.16, 21.56 5.36 M-2.15 37.81 C5.59 27.91, 13.21 20.1, 20.18 10.9 M0.43 36.99 C5.59 29.99, 11.57 23.56, 21.69 12.62 M0.77 39.02 C8.17 34.51, 9.29 31.13, 18.99 18.05 M1.82 40.74 C7.4 32.71, 14.68 25.49, 20.35 19.15 M5.85 42.88 C11.01 37.66, 11.82 33.63, 21.53 25.91 M6.9 41.77 C10.11 36.37, 14.12 32.85, 21.65 24.44 M13.33 42.1 C14 36.14, 17.79 32.88, 19.66 30.84 M12.27 41.31 C14.53 38.41, 17.32 35.35, 21.05 31.65 M17 41.68 C18.64 40.46, 19.03 38.69, 21.35 37.37 M17.3 41.37 C18.05 40.64, 18.8 39.19, 21.21 36.91" stroke="#228be6" stroke-width="0.5" fill="none"></path><path d="M-1.11 -0.1 C9.18 1.75, 14.61 1.54, 21.62 0.23 M-0.44 0.62 C4.13 -0.13, 10.44 0.64, 19.94 0.08 M20.69 -0.29 C19 10.41, 18.38 23.02, 19.33 39.83 M20.04 0.86 C20.03 12.91, 20.02 24.8, 19.74 39.43 M19.66 39.56 C11.56 40.32, 4.42 38.14, 0.47 41.43 M20.52 40.37 C15.73 39.41, 10.86 40.49, -0.43 39.53 M-1.1 39.19 C-1.74 26.69, -0.31 19.07, -0.74 -0.83 M0.04 39.32 C0.58 25.97, 0.47 12.66, -0.82 -0.91" stroke="#1864ab" stroke-width="1" fill="none"></path></g><g stroke-linecap="round" transform="translate(50 50) rotate(0 80 20)"><path d="M0.2 -0.1 C40.09 -2.25, 80.56 -0.7, 160.49 0.14 M-0.41 0.94 C47.37 0.65, 94.61 -0.29, 159.11 0.57 M160.21 -0.29 C159.56 9.18, 160.65 22.12, 158.65 38.07 M160.08 0.43 C159.39 7.26, 159.49 15.57, 160.92 40.76 M161.84 39.61 C122.31 40.09, 82.81 41.66, 1.07 41.49 M160.51 40.19 C116.43 40.2, 71.75 40.64, -0.43 40.67 M-0.76 40.85 C-0.16 28.37, -0.35 14.61, 1.28 -1.27 M-0.42 39.18 C-0.47 31.52, 0.5 23.27, -0.18 -0.01" stroke="#000000" stroke-width="1" fill="none"></path></g><g transform="translate(71.5 60) rotate(0 58.5 10)"><text x="58.5" y="0" font-family="Virgil, Segoe UI Emoji" font-size="16px" fill="#000000" text-anchor="middle" style="white-space: pre;" direction="ltr" dominant-baseline="text-before-edge">default buffer</text></g><g stroke-linecap="round" transform="translate(10 109.625) rotate(0 90 20)"><path d="M0 0 C0 0, 0 0, 0 0 M0 0 C0 0, 0 0, 0 0 M-0.85 6.88 C0.31 4.58, 2.59 4.36, 5.05 0.48 M-0.19 6.44 C1.66 4.03, 3.78 1.57, 5.28 0.54 M1.3 11.04 C2.56 9.83, 4.74 5.9, 9.84 -0.33 M0.2 12.19 C4.28 6.57, 8.95 2.06, 10.86 0.22 M0.29 16.98 C2.89 15.61, 8.52 9.62, 14.09 0.46 M-0.01 17.62 C4.29 12.16, 9.27 8.03, 14.74 0.88 M1.02 22.19 C5.44 18.48, 7.39 14.67, 19.56 -0.63 M0.9 24.77 C4.82 19.1, 8.99 14.25, 21.42 0.88 M1.98 29.8 C5.75 23.63, 14.59 11.18, 27.67 -1.2 M0.64 30.85 C6.01 22.11, 12.49 15.07, 26.69 0.17 M-1.49 36.29 C11.33 27.39, 19.13 14.08, 30.8 0.56 M-0.95 37.34 C11.69 23.41, 22.32 10.17, 32.6 0.68 M3.4 42.93 C12.33 28.01, 18.41 18.05, 35.89 -1.2 M0.97 41.31 C11.64 29.47, 21.66 18.37, 37.74 0.94 M5.95 41.14 C21.1 27.08, 35.03 8.93, 42.62 1.01 M5.74 42.14 C21.1 25.28, 36.16 8.5, 42.01 0.54 M13.67 39.17 C23.49 26.08, 35.22 12.8, 47.25 1.06 M11.43 41.82 C19.85 32.57, 26.35 22.42, 46.84 0.69 M18.56 43.14 C26.76 29.02, 38.95 15.42, 52.78 0.11 M17.6 41.43 C30.74 24.02, 45.97 8.51, 53.97 0.61 M23.38 42.46 C33.08 27.75, 47.73 12.94, 56.77 -0.29 M22.13 40.09 C31.1 31.73, 38.32 23.2, 57.67 0.17 M29.43 42.93 C40.63 25.27, 50.69 12.99, 65.54 -1.29 M27.4 41.52 C41.52 26.22, 54.19 11.06, 63.52 0.27 M34.78 39.66 C47.62 25, 62.39 9.84, 69.95 -1.64 M33.13 40.49 C44.2 28.46, 54.72 15.54, 68.65 -0.6 M38.05 42.14 C48.82 32.16, 54.89 20.18, 75.64 -0.81 M38.56 41.39 C46.57 32.73, 53.42 23.95, 74.48 0.13 M44.62 39.15 C53.72 29.42, 66.23 15.79, 78.79 -1.87 M43.24 40.64 C55.94 28.29, 64.94 15.48, 78.98 -0.38 M50.43 39.87 C58.17 30.37, 66.87 20.53, 84.36 1.42 M49.27 41.3 C56.41 31.87, 65.29 22.99, 85.41 0.09 M56.17 42.78 C65.53 29.32, 74.7 16.4, 89.82 1.65 M54.02 41.44 C65.39 27.74, 78.2 14.81, 90.59 -0.66 M59.08 40.75 C68.17 29.2, 78.07 19.3, 95.44 -1.25 M60.45 40.75 C71.68 26.91, 83.72 14.33, 95.62 -0.74 M67.18 41.93 C80.61 25.36, 91.06 6.89, 100.03 1.01 M65.79 41 C77.47 25.16, 90.85 10.22, 100.16 0.32 M71.02 42.88 C78.25 31.61, 87.4 24.68, 107.16 -1.94 M69.8 40.51 C79.57 29.85, 89.19 20.31, 107.16 0.04 M73.26 42.22 C87.17 27.87, 101.09 12.98, 112.93 1.86 M74.93 41.46 C84.51 30.21, 93.15 20.7, 111.12 -0.45 M79.74 41.9 C90.76 32.04, 98.39 21.08, 115.6 0.47 M81.75 40.57 C88.49 31.37, 96.23 22.28, 116.18 0.79 M86.47 40.5 C96.05 30.37, 106.16 21.22, 122.54 -0.71 M86.57 41.94 C94.11 33.01, 102.67 22.93, 121.66 -0.71 M93.25 42.92 C99.66 29.57, 107.02 22.42, 125.34 2.33 M91.48 40.19 C104.94 25.05, 119.08 9.24, 127.57 0.9 M95.41 41.4 C109.61 29.78, 118.73 13.49, 133.35 1.93 M96.62 41.07 C107.67 27.8, 119.62 14.21, 132.71 -0.96 M102.07 40.55 C111.08 31.94, 118.77 24.54, 137.48 -0.23 M102.93 41.87 C109.11 31.91, 117.3 23.66, 136.96 1.24 M107.85 42.29 C122.54 26.73, 135.58 9.18, 144.38 -0.11 M106.39 41.98 C116.66 29.46, 126.16 18.15, 143.96 -0.43 M111.19 42.9 C120.02 30.88, 127.73 24.21, 148.27 1.66 M112.78 41.36 C124.05 27.16, 135.33 14.15, 147.42 1.2 M118.04 42.03 C128.55 27.28, 139.23 13.98, 153.13 0.8 M117.92 41.06 C129.61 27.86, 142.42 13.61, 153.84 0.86 M124.14 39.61 C133.41 31.16, 142.53 16.18, 160.48 -1.63 M122.45 41.68 C131.58 32.04, 138.32 23.17, 158.76 -0.6 M126.74 40.98 C140.58 24.71, 153.34 13.39, 163.62 1.76 M128.04 41.92 C138.69 28.69, 149.05 16.94, 163.53 0.19 M134.91 41.78 C145.28 26.47, 158.52 13.18, 171.37 1.75 M134.14 41.06 C147.15 26.77, 159.78 12.46, 169.54 -0.28 M137.21 41.02 C151.32 27.02, 165.61 13.14, 174.35 1.4 M138.29 41.46 C147.89 29.65, 158.24 19.03, 174.97 0.04 M144.01 42.04 C156.74 25.36, 172.78 7.8, 180.69 1.18 M144.79 41.03 C154.43 29.58, 166.47 15.43, 179.06 -0.71 M151.2 41.52 C156.04 32.56, 163.52 23.88, 180.41 6.63 M148.99 41.79 C159.92 31.14, 168.42 20.63, 178.93 6.97 M154.46 42.49 C162.35 31.31, 172.04 24.44, 180.2 11.6 M156.06 40.32 C164.92 30.35, 174.72 20.13, 180.88 12.57 M160.98 39.34 C166.34 33.69, 170.21 29.26, 178.65 17.55 M161.2 40.3 C167.28 33.3, 174.47 25.74, 180.16 18.47 M167.75 42.76 C169.49 37.05, 172.96 33.15, 181.15 25.3 M166.4 40.95 C172.24 34.17, 177.62 28.55, 180.32 25.1 M169.77 40.95 C173.25 37.86, 176.89 33.27, 179.77 31.59 M170.77 41.49 C174.2 38.42, 176.6 35, 179.63 31.25 M176.37 40.61 C177.39 39.96, 178.16 38.29, 179.39 37.01 M176.64 40.66 C177.28 39.5, 178.61 38.63, 179.92 36.92" stroke="#7950f2" stroke-width="0.5" fill="none"></path><path d="M1.36 -0.34 C43.22 -2.13, 87.52 -1.78, 178 0.47 M0.63 0.52 C67.21 1.09, 132.95 1.16, 180.36 -0.43 M179.16 -1.1 C179.13 8.43, 178.04 19.99, 181.88 39.26 M180.52 0.04 C179.47 10.97, 179.67 21.2, 179.75 39.18 M179.52 40.89 C142.86 37.54, 103.96 38.21, -0.13 40.26 M180.39 40.23 C141.3 41.57, 102.39 40.77, 0.07 39.39 M0.02 38.45 C0.53 24.22, 1.04 9.4, -1.04 1.38 M-0.25 39.77 C1.37 26.91, -0.41 13.24, -0.16 0.59" stroke="#5f3dc4" stroke-width="1" fill="none"></path></g><g stroke-linecap="round" transform="translate(10 109.625) rotate(0 100 20)"><path d="M1.63 -1.11 C42.38 0.59, 83.66 0.03, 200.26 1.72 M-0.31 -0.84 C46.59 2.09, 92.62 0.85, 199.66 -0.77 M198.56 1.81 C202.14 15.29, 200.72 30, 199.03 40.21 M200.24 0.11 C200.81 14.32, 201.2 28.3, 200.7 40.47 M199.3 40.79 C147.87 41.02, 96.82 41.1, -0.46 39.78 M199.62 40.66 C126.87 37.73, 53.91 38.56, 0.3 40.41 M1.63 40.54 C1.72 28.74, -1.24 19.06, 0.9 -1.82 M-0.97 39.77 C0.08 27, 0.7 12.12, 0.94 -0.4" stroke="#000000" stroke-width="1" fill="none"></path></g><g transform="translate(49 119.625) rotate(0 61 10)"><text x="61" y="0" font-family="Virgil, Segoe UI Emoji" font-size="16px" fill="#000000" text-anchor="middle" style="white-space: pre;" direction="ltr" dominant-baseline="text-before-edge">large buffer #1</text></g><g stroke-linecap="round" transform="translate(10 170) rotate(0 10 20)"><path d="M0 0 C0 0, 0 0, 0 0 M0 0 C0 0, 0 0, 0 0 M-0.4 6.74 C0.59 4.88, 1.77 3.45, 5.78 0.39 M-0.28 6.11 C1.91 4.01, 3.73 2.05, 4.73 0.01 M-0.55 13.25 C4.62 7.75, 6.2 3.82, 10.88 -0.72 M-0.37 11.54 C2.34 9.76, 4.87 6.31, 9.86 0.05 M0.81 17.63 C2.24 14.49, 5.74 9.25, 13.79 -0.15 M-0.01 18.6 C5.21 12.31, 10.99 6.55, 15.51 -0.13 M-1.73 25.88 C4.57 16.15, 12.04 10.49, 19.53 1.92 M-0.01 23.13 C5.75 16.66, 12.35 10.32, 20.63 -0.28 M1.51 32.05 C5.19 23.72, 9.99 18.63, 22.14 5.95 M0.4 29.97 C4.46 24.39, 10.33 20.29, 20.67 7.08 M1.47 35 C5.62 26.79, 14.03 17.37, 20.24 13.08 M0.26 36.43 C6.22 30.06, 11.89 24.65, 21.49 12.7 M2.58 42.39 C9.34 32.57, 14.22 27.67, 22.36 17.6 M1.57 41.39 C8.81 33.63, 13.61 27.15, 20.83 18.64 M5.76 39.99 C9.19 36.25, 13.47 33.79, 19.17 26.12 M6.86 42.04 C11.45 34.09, 17.08 28.83, 21.13 25.08 M10.83 41.94 C14.23 38.13, 18.16 33.73, 21.86 30.97 M11.64 40.46 C14.97 37.87, 18.11 35.09, 20.86 31.06 M16.56 41.61 C18.83 39.56, 19.63 37.73, 20.43 36.39 M17.33 41.15 C18.86 39.39, 19.96 37.91, 21.11 37.01" stroke="#228be6" stroke-width="0.5" fill="none"></path><path d="M-0.81 -1.68 C4.37 -0.14, 14.43 -0.63, 19.17 0.77 M-0.68 0.63 C5.77 0.52, 12.26 -0.83, 19.09 0.39 M20.48 -1.6 C19.1 9.15, 19.78 20.41, 18.36 38.15 M20.52 0.53 C20.97 14.05, 20.22 28.03, 20.98 39.91 M20.5 40.14 C13.64 41.09, 4.23 41.23, 0.44 38.02 M20.97 39.8 C14.02 38.96, 9.49 40.54, -0.25 39.04 M0.43 38.72 C0.31 30.7, 0.41 19.33, 0.04 0.66 M-0.64 40.94 C1.16 28.87, 0.58 17.78, -0.89 0" stroke="#1864ab" stroke-width="1" fill="none"></path></g><g stroke-linecap="round" transform="translate(10 170) rotate(0 100 20)"><path d="M0.14 0.78 C40.22 -0.03, 81.46 0.13, 201.65 1.36 M0.83 -0.17 C47.83 -2.24, 94.85 -1.54, 200.48 0.67 M201.02 0.38 C201.91 11.18, 201.49 23.18, 199.14 41.34 M199.62 0.42 C199.69 13.04, 199.59 25.01, 200.64 39.36 M199.25 38.52 C155.92 41.51, 114.72 42.13, -0.33 39.98 M200.77 40 C148.02 41.2, 97.57 39.66, 0.44 40.22 M0.35 41.93 C1.97 29.15, 2.26 17.26, 0.15 -1.06 M-0.64 40.02 C-0.88 29.37, 0.17 19.9, -0.47 -0.61" stroke="#000000" stroke-width="1" fill="none"></path></g><g transform="translate(45.5 180) rotate(0 64.5 10)"><text x="64.5" y="0" font-family="Virgil, Segoe UI Emoji" font-size="16px" fill="#000000" text-anchor="middle" style="white-space: pre;" direction="ltr" dominant-baseline="text-before-edge">large buffer #2</text></g><g stroke-linecap="round" transform="translate(10 230) rotate(0 90 20)"><path d="M0 0 C0 0, 0 0, 0 0 M0 0 C0 0, 0 0, 0 0 M-0.87 6.45 C1.8 3.79, 3.33 1.96, 4.33 -0.14 M-0.61 6.62 C0.64 4.96, 2.04 3.63, 4.61 0.55 M-1.22 11.6 C1.48 8.51, 6.49 6.77, 11.73 0.15 M0.26 12.8 C3.38 7.82, 6.47 5.15, 10.36 -0.83 M1.3 16.95 C5 12.77, 12.01 5.74, 16.35 -0.22 M0.31 18.32 C3.16 13.85, 5.96 10.5, 15.32 1.08 M-0.82 24.74 C9.41 14.61, 14.72 4.47, 22.19 0.73 M0.98 24.86 C5.27 18.94, 11.52 13.14, 22.22 0.79 M-0.98 29.02 C5.17 24.73, 10.4 17.2, 26.84 1.32 M0.87 31.16 C7.23 22.82, 13.51 14.88, 26.13 0.86 M-0.15 38.03 C13.21 21.9, 23.76 8.38, 33.42 0.13 M-0.76 37.56 C10.61 23.91, 20.69 12.69, 30.99 -0.44 M1.19 41.85 C8.11 33.11, 19.76 21.04, 38.57 1.1 M0.79 41.47 C14.98 26.63, 28.46 12.13, 37.78 -0.71 M6.07 41.65 C22.15 25.31, 34.23 11.16, 42.72 -1.49 M7.25 42.16 C14.69 31.98, 23.07 23.31, 43.28 -0.99 M10.71 40.49 C22.2 25.52, 37.98 11.68, 45.81 1.98 M11.61 40.96 C20.5 32.26, 29.39 22.77, 48.32 0.76 M18.82 40.26 C26.15 33.02, 30.59 23.22, 53.58 1.48 M16.81 41.81 C27.27 31.64, 35.4 20.55, 52.53 0.16 M23.89 39.15 C33.3 28.3, 43.94 15.5, 57.3 0.33 M22.6 40.19 C32.83 30.1, 42.88 17.04, 58.57 0.9 M28.93 40.74 C40.02 24.93, 54.67 10.55, 64.02 0.18 M27.77 41.67 C40.55 26.04, 53.3 12.59, 62.92 -0.75 M32.74 38.92 C45.3 25.98, 57.43 11.86, 68.31 2.02 M32.93 40.41 C43.18 29.66, 53.42 18.5, 68.09 0.58 M37.64 42.96 C44.85 32.19, 56.51 22.77, 74.54 -0.8 M38.7 41.63 C48.61 30.15, 58.23 18.02, 75.38 -0.2 M43.76 42.43 C57.37 24.13, 70.05 10.42, 80.59 -1.59 M44.53 40.13 C53.54 30.04, 63.8 17.04, 79.17 -0.07 M48.73 40.29 C57.79 33.07, 65.01 24, 84.15 0.67 M48.91 40.81 C57.86 32.09, 65.69 23.11, 85.6 0.56 M53.97 41.8 C68.52 29.34, 79.87 14.79, 90.41 -1.63 M54.1 41.1 C64.95 28.88, 77.2 16.17, 90.89 0.34 M60.44 39.6 C68.55 30.34, 78.69 16.64, 94.36 0.22 M60.45 41.58 C67.96 32.02, 75.73 21.3, 96.02 -0.48 M66.88 42.65 C76.03 27.55, 89.92 12.89, 100.52 0.27 M65.06 40.34 C74.17 30.43, 83.86 19.05, 101.04 0.42 M69.54 41.26 C82.86 25.58, 98.78 10.82, 105.18 -1.06 M70.13 41.58 C79.95 30.05, 89.09 19.07, 105.81 -0.05 M75.82 40.83 C83.92 30.37, 93.69 19.19, 112.18 -0.02 M74.95 40.83 C88.77 24.91, 104.6 9.28, 112.2 0.07 M79.28 43.12 C90.07 34.55, 94.28 24.44, 114.46 0.22 M81.51 41.69 C90.77 30.39, 99.5 18.32, 116.25 1.09 M86.64 43.47 C100.6 25.79, 114.33 9.89, 121.14 -1.15 M86 40.59 C95.98 28.32, 107.16 16.7, 121.66 0.4 M91.42 40.56 C99.92 29.49, 110.5 19.21, 128.52 -1.34 M90.9 42.03 C102.14 28.97, 110.55 18.89, 127.34 1.21 M97.67 41.44 C107.36 28.87, 121.59 13.28, 133.67 -0.23 M97.25 41.11 C105.33 31.05, 116.19 18.93, 133.49 -0.2 M102.21 42.45 C111.35 31.98, 120.38 20.79, 138.21 0.64 M101.37 41.99 C110.57 31.65, 119.36 22.2, 137.85 0.05 M106.42 42.34 C117.22 29.12, 125.86 20.67, 142.52 -0.91 M107.13 42.41 C118.15 27.9, 130.07 15.56, 142.49 -0.1 M114.43 39.15 C124.66 25.01, 138.34 8.47, 149.53 1.28 M112.7 40.18 C122.04 30.37, 131.16 20.51, 147.98 -0.13 M116.91 43.31 C125.33 30.47, 131.15 22.94, 154.95 -1.31 M116.82 41.73 C125.97 32.56, 133.45 24.55, 154.22 -0.43 M125.31 42.54 C133.26 28.93, 142.25 20.45, 159.01 1.18 M123.48 40.51 C134.71 28.36, 144.68 14.39, 158.65 0.18 M127.63 42.95 C138.03 28.41, 147.38 15.45, 164.72 -2.07 M128.25 41.58 C137.21 31.76, 144.8 23.05, 165 -1.06 M134.63 41.97 C145.17 28.52, 155.59 15.67, 169.63 -1.53 M133 40.08 C146.94 26.13, 160.23 10.75, 169.54 -0.28 M139.61 41.38 C149.57 27.7, 160.63 16.3, 176.08 1.67 M138.12 41.72 C151.28 27.16, 163.68 12.59, 175.87 -0.6 M144.64 40.31 C155.91 29.2, 163.65 19.3, 178.92 0.76 M145.32 41.28 C155.29 27.92, 167.62 15.31, 179.1 0.5 M148.33 40.23 C158.13 33.34, 165.41 26.08, 177.89 7.08 M149.85 41.14 C158.38 31.43, 166.72 21.15, 180.75 6.36 M156.09 41.94 C165.8 29.31, 173.78 22.15, 180.38 13.25 M155.25 41.74 C162.79 32.76, 169.55 22.88, 180 11.85 M159.83 42.6 C166.1 36.62, 172.02 27.56, 180.72 20.52 M159.63 42.11 C167.33 32.65, 173.43 24.86, 179.5 18.2 M164.25 40.71 C171.5 36.2, 176.77 29.69, 179.02 22.48 M166.36 40.34 C169.77 37.47, 173.7 32.77, 180.68 24.2 M170.68 41.15 C174.23 37.81, 174.38 36.63, 180.66 30.24 M170.53 41.85 C173.5 38.14, 175.98 34.89, 180.04 30.72 M176.11 40.61 C177.96 39.87, 178.71 38.9, 179.65 37.11 M176.62 40.92 C177.56 39.47, 178.96 38.05, 179.64 36.8" stroke="#7950f2" stroke-width="0.5" fill="none"></path><path d="M-0.13 0.26 C37.98 -1.02, 80.42 1.62, 180.45 1.04 M0.07 -0.61 C64.5 0.4, 127.73 0.5, 179.22 0.25 M178.96 1.38 C180.64 10.31, 179.38 24.07, 179.54 41.95 M179.84 0.59 C179.43 10.22, 179.37 22.06, 180.86 40.22 M180.29 40.86 C137.53 41.98, 94.36 39.79, 1.9 38.72 M180.27 39.26 C108.23 39.3, 38.51 38.56, 0.6 39.32 M0.16 40.3 C1.59 29.35, -0.33 21.67, 0.22 -0.97 M0.74 40.46 C-0.39 26.9, -0.5 16.39, -0.62 -0.17" stroke="#5f3dc4" stroke-width="1" fill="none"></path></g><g stroke-linecap="round" transform="translate(10 230) rotate(0 100 20)"><path d="M0.24 -0.23 C64.12 1.76, 129.73 0.88, 199.79 -0.88 M0.81 -0.55 C42.28 0.72, 84.02 0.44, 200.13 0.86 M199.3 -1.87 C199.77 10.17, 198.67 16.71, 199.25 38.28 M199.28 0.91 C201.22 15.48, 200.51 30.68, 199.52 40.11 M200.43 40.19 C130.25 39.94, 60.31 39.66, 1.26 40.85 M199.65 40.4 C148.21 40.64, 96.97 40.68, -0.23 39.89 M-0.84 41.46 C-0.58 23.81, -1.02 11.11, 0.67 0.9 M0.81 40.27 C0.86 28.73, -0.62 18.26, 0.45 -0.91" stroke="#000000" stroke-width="1" fill="none"></path></g><g transform="translate(45.5 240) rotate(0 64.5 10)"><text x="64.5" y="0" font-family="Virgil, Segoe UI Emoji" font-size="16px" fill="#000000" text-anchor="middle" style="white-space: pre;" direction="ltr" dominant-baseline="text-before-edge">large buffer #3</text></g><g stroke-linecap="round" transform="translate(10 289.8515625) rotate(0 10 20)"><path d="M0 0 C0 0, 0 0, 0 0 M0 0 C0 0, 0 0, 0 0 M-0.48 6.45 C1.06 5.02, 3.32 2.65, 4.99 -0.26 M-0.01 6.19 C1.72 4.5, 2.75 2.28, 4.89 0.27 M-1.45 11.78 C5.27 6.92, 6.96 2.03, 10.14 1.34 M0.72 12.16 C3.93 8.16, 7.23 4.01, 10.02 0.72 M-0.9 18.98 C1.94 12.26, 7.12 10.32, 14.14 1.53 M0.52 18.52 C3.8 15.06, 6.65 9.89, 15.8 0.43 M-0.01 25.56 C6.29 17.2, 8.61 11.09, 22.06 -0.56 M0.1 23.59 C5.74 18.53, 11.72 11.62, 20.69 0.87 M-0.69 31.04 C7.03 21.94, 10.83 17.05, 21.42 4.87 M-0.1 29.72 C5.29 24.31, 10.2 17.53, 21.12 5.51 M1.67 35.13 C5.98 29.35, 10.05 24.41, 21.49 10.84 M-0.11 36.03 C6.84 27.73, 14.16 20.79, 21.37 13.41 M2.14 41.33 C9.25 34, 12.35 26.59, 22.45 18.45 M0.49 41.72 C4.32 36.16, 9.49 32.22, 21.11 19.49 M5.31 42.26 C10.29 36.94, 12.52 31.56, 19.64 24.18 M6.17 40.83 C12.05 35.74, 16.95 28.19, 20.18 25.23 M11.36 41.9 C16.04 37.25, 18.91 35.24, 21.88 32.41 M11.77 40.65 C14.99 37.09, 18.88 33.24, 20.3 31.36 M16.87 41.86 C18.88 40.16, 19.84 38.31, 20.86 36.74 M16.89 41.35 C18.61 39.97, 19.61 38.16, 20.79 37.04" stroke="#228be6" stroke-width="0.5" fill="none"></path><path d="M-1.22 -1.97 C5.35 -1.09, 16.61 -0.7, 18.89 -1.11 M-0.62 0.71 C6.71 -0.05, 11.26 0.69, 19.76 -0.44 M21.28 1.19 C19.56 14.63, 19.84 28.63, 20.69 40.69 M19.22 -0.8 C19.48 11.33, 19.85 23.44, 20.93 40.04 M19.56 41.08 C11.75 39.01, 6.04 41.45, 1.36 39.66 M19.69 39 C14.68 40.73, 8.35 39.78, 0.63 40.52 M1.47 40.72 C-1.12 25.56, -0.56 13.27, -0.84 -1.1 M-0.13 40.94 C-0.03 29.21, 0.72 19.38, 0.52 0.04" stroke="#1864ab" stroke-width="1" fill="none"></path></g><g stroke-linecap="round" transform="translate(10 289.8515625) rotate(0 100 20)"><path d="M1.66 -0.35 C48.02 -2.85, 94.41 -1.44, 200.96 1.34 M0.46 0.17 C56.41 -0.16, 111.81 0.24, 199.62 0.6 M199.24 0.85 C199.53 13.51, 199.34 24.89, 201.28 38.73 M199.58 -0.82 C199.2 8.69, 200.16 17.63, 199.82 39.99 M201.55 40.01 C147.46 41.92, 97.98 38.84, 0.89 40.43 M200.16 40.87 C145.87 39.63, 91.16 39.22, 0.07 39.52 M-1.29 40.03 C-1.6 29.16, 0.5 20.65, -0.95 -1.23 M0.83 40.18 C-0.4 26.34, -0.07 14.68, -0.06 -0.55" stroke="#000000" stroke-width="1" fill="none"></path></g><g transform="translate(46 299.8515625) rotate(0 64 10)"><text x="64" y="0" font-family="Virgil, Segoe UI Emoji" font-size="16px" fill="#000000" text-anchor="middle" style="white-space: pre;" direction="ltr" dominant-baseline="text-before-edge">large buffer #4</text></g><g stroke-linecap="round" transform="translate(30 350) rotate(0 90 20)"><path d="M0 0 C0 0, 0 0, 0 0 M0 0 C0 0, 0 0, 0 0 M-1.03 6.15 C0.95 5.38, 2.86 2.47, 5.06 0.95 M-0.13 6.27 C1.06 4.88, 2.76 2.97, 5.33 0.21 M0.13 12.49 C2.47 9.15, 6.01 3.17, 11.89 1.01 M-0.39 12.03 C3.49 8.31, 6.19 4.54, 10.33 -0.15 M-1.99 17.14 C7.13 10.51, 11.22 5.85, 14.77 -0.01 M-0.09 19.14 C3.94 13.92, 7.76 8.47, 16.19 -0.02 M-1.49 25.04 C7.5 14.83, 13.12 9.88, 22.33 -0.27 M-0.16 23.68 C5.07 17.83, 9.01 12.61, 20.64 0.89 M0.22 29.33 C6.17 22.42, 11.93 17.08, 24.86 0.58 M-0.23 31 C6.37 24.91, 11.5 17.89, 26.16 0.64 M-1.18 36.08 C11.52 24.55, 17.71 15.34, 31.14 -2.02 M0.36 36.78 C12.59 23.69, 23.61 8.64, 31.63 -0.67 M-0.49 40.22 C12.46 26.38, 27.39 14.52, 36.45 -0.28 M1.26 40.26 C9.33 31.26, 19.13 20.27, 36.44 -0.3 M7.95 42.76 C21.45 28.01, 34.61 8.82, 40.88 -1.1 M6.61 41.03 C15.3 31.36, 25.33 20.22, 43.3 -0.47 M12.02 41.61 C25.02 24.72, 40.34 10.57, 49.04 -0.99 M11.32 41.26 C21.96 28.97, 33.59 16.14, 48.46 0.19 M16.11 40.48 C27.37 29.06, 34.1 19.14, 52.32 -1.15 M17.74 42.22 C26.6 30.57, 38.04 18.47, 52.46 -0.89 M23.33 42.44 C32.29 33.13, 37.14 23.29, 56.65 1.58 M22.56 41.2 C33.17 29.22, 41.93 16.86, 58.4 0.33 M27.37 42.89 C41.82 26.84, 53.22 10.38, 64.72 -0.3 M27 42.12 C35.57 31.19, 45.38 21.81, 64.66 -1.05 M34.68 42.57 C44.04 32.1, 52.36 18.38, 67.77 0.05 M33.56 39.94 C47 25.1, 61.86 8.7, 69.19 -0.35 M40.25 40.59 C49.46 28.3, 58.58 18.26, 75.83 0.81 M38.31 41.23 C51.44 25.93, 64.67 11.4, 74.22 -0.82 M45.84 39.38 C54.22 30.11, 66.15 18.99, 77.43 0.53 M43.61 40.62 C57.13 26.54, 69.89 12.16, 78.53 0.9 M47.75 41.71 C60.55 26.76, 69.91 16.52, 85.91 -0.94 M48.36 41.32 C58.38 29.79, 69.78 18.68, 84.19 -0.81 M55.06 39.72 C65.44 29.17, 73.98 18.67, 91.12 -1.37 M54.77 41.62 C63.98 30.36, 72.81 19.36, 90.83 0.07 M61.39 39.87 C73.18 29.08, 83.87 14.28, 93.71 0.81 M58.59 41.39 C69.14 29.71, 79.31 16.99, 96.38 -0.41 M67.11 39.97 C77.65 25.98, 90.4 10.51, 100.86 -0.51 M65.87 40.56 C76.51 28.49, 86.35 16.46, 101.3 0.42 M71.16 42.19 C82.99 29.72, 93.33 17.09, 104.51 -2.08 M71.18 41.68 C80.27 29.92, 88.55 18.62, 105.35 0.27 M76.58 42.75 C84.91 33.17, 93.65 20.72, 113.15 1.71 M75.78 41.09 C87.49 26.79, 100.54 12.48, 111.85 0.46 M81.57 41.27 C92.41 25.94, 107.68 10.24, 117.39 0.53 M81.07 41.71 C93.74 25.63, 107.67 9.69, 115.75 1.12 M86.54 41.92 C95.14 30.64, 107.22 19.79, 121 1.41 M86.15 41.81 C96.32 30.14, 104.66 19.35, 121.18 -0.06 M91.65 39.24 C102.25 28.36, 112.5 17.16, 127.93 1.98 M91.93 40.22 C104.09 28.28, 115.05 15.31, 126.95 0.99 M96.6 43.1 C108.43 32.15, 116.66 17.02, 131.91 0.2 M97.36 40.86 C104.05 31.02, 111.96 22.47, 132.71 -0.13 M102.88 39.71 C113.81 25.98, 129.27 12.83, 136.22 -0.6 M102.2 41.22 C113.91 26.71, 125.24 13.22, 137.11 0.28 M105.51 40.65 C118.85 28.05, 131.16 15.14, 143.91 1.22 M107.23 40.88 C118.74 30.18, 127.8 16.79, 142.63 0.49 M111.28 39.8 C121.71 31.75, 131.29 21.51, 149.54 -1.34 M113.06 41.97 C124.79 27.01, 138.17 11.41, 147.79 -0.14 M118.53 42.44 C129.98 27.85, 144.89 9.2, 153.48 1.06 M118.32 41.74 C128.49 28.97, 139.64 15.32, 153.88 -0.69 M123.36 42.14 C131.31 32.38, 138.48 21.68, 157.63 -0.88 M122.45 40.97 C132.81 29.7, 141.64 19.36, 159.28 -0.13 M127.42 41.84 C139.66 27.46, 149.8 17.88, 163.65 -2.15 M127.94 40.57 C141.7 26.39, 156.99 9.2, 164.14 -0.9 M132.13 42.83 C143.24 28.32, 154.56 14.82, 168.75 1.65 M133.06 39.97 C142.47 31, 151.37 18.97, 168.66 -0.33 M138.44 41.72 C147.3 33.34, 153.33 22.97, 175.92 -0.78 M138.14 41.74 C153.14 24.76, 167.8 8.32, 175.84 -0.16 M145.09 39.49 C154.08 27.78, 166.75 15.28, 181.67 0.62 M144.31 39.98 C152.96 30.42, 162.04 18.7, 179.73 -0.09 M148.34 42.45 C157.67 32.08, 165.23 21.24, 180.39 5.05 M149.73 40.9 C159.61 29.87, 168.59 19.1, 180.26 5.58 M156.24 39.24 C162.09 35.51, 164.51 29.27, 179.13 11.97 M154.38 41.25 C162.88 31.9, 172.69 22.3, 180.54 12.53 M160.38 41.88 C163.56 37.98, 167.75 31.16, 180.88 20.47 M160.27 40.9 C167.03 33.73, 172.44 27.65, 180.64 19.33 M166.11 42.7 C171.89 32.85, 177.15 27.52, 179.4 24.99 M166.22 41.28 C170.33 35.91, 173.05 32.97, 180.92 24.59 M171.89 39.94 C175.17 39.15, 176.55 34.96, 179.31 31.81 M170.32 41.69 C174.32 37.59, 177.46 33.88, 180.21 31.28 M176.81 40.61 C177.07 39.59, 178.27 38.55, 179.87 36.61 M176.76 40.82 C177.37 39.87, 178.56 38.85, 179.91 37.09 M-0.18 39.84 C-0.18 39.84, -0.18 39.84, -0.18 39.84 M-0.18 39.84 C-0.18 39.84, -0.18 39.84, -0.18 39.84 M6.76 40.87 C4.11 38.6, 2.01 36.13, -0.1 35.13 M6.02 39.75 C4.74 38.82, 2.65 37.04, 0.47 34.64 M11.31 40.09 C7.35 37.06, 5.87 34.46, 0.02 28 M12.11 40.08 C9.77 37.29, 6.76 35.92, -0.69 29.16 M19.02 39.22 C12.94 33.15, 3.83 30.92, -0.45 26.12 M17.37 38.98 C15.02 36.98, 10.68 34.04, 1.14 23.3 M24.52 39.7 C15.8 33.46, 7.49 27.09, -2.06 17.83 M25.27 39.95 C15.51 33.34, 7.48 24.72, -0.01 19.13 M32.21 41.58 C18.05 29.84, 6.11 18.5, -1.54 14.83 M30 40.01 C20.57 31.96, 11.15 22.69, -0.34 12.73 M37.06 41.1 C23.44 27.84, 13.09 18.21, -1.54 7.84 M37.61 41.08 C24.18 28.74, 9.28 16.65, 0.25 7.11 M44.15 41.24 C32.05 28.34, 20.54 20.17, 0.46 2.55 M42.31 40.07 C33.99 31.88, 24.27 23.3, -0.47 1.99 M47.78 39.92 C34.82 26.69, 17.15 12.64, 0.65 -1.33 M48.01 40.59 C34.71 26.27, 18.9 14.15, 1.94 -1.62 M55.1 40.46 C43.5 28.47, 29.21 18.6, 7.87 -1.8 M54.49 40.83 C43.9 31.19, 32.31 20.81, 8.11 -1.72 M61.45 40.51 C44.34 23.45, 24.77 6.62, 13.57 -0.69 M61.26 40.1 C42.38 24.05, 24.3 8.49, 13.28 -1.91 M65.56 41.05 C54.5 29.45, 42.82 18.01, 18.91 -0.96 M67.22 39.23 C57.43 31.38, 47.54 22.96, 18.93 -1.16 M73.32 40.76 C57.96 28.97, 44.55 13.79, 25.17 -0.82 M72.93 40.5 C59.73 29.02, 45.97 17.02, 25.66 -2.46 M80.79 40.29 C64.2 28.38, 54.53 18.22, 32.82 -1.52 M80.17 39.42 C63.36 26.04, 47.42 12.98, 30.77 -1.12 M85.91 40.68 C72.35 28.44, 58.11 17.65, 37.21 -0.93 M86.09 40.58 C72.9 29.17, 58.87 17.77, 38.5 -0.85 M91.8 40.29 C71.65 22.83, 55.32 5.72, 43.86 -0.59 M91.04 40.16 C77.94 27.65, 62.54 15.63, 43.7 -1.24 M97.97 39.82 C85.05 28.12, 69.84 15.94, 51.69 -0.73 M98.28 40.39 C84.62 27.64, 69.61 15.3, 49.72 -1.38 M104.09 40.67 C85.38 24.49, 65.03 6.56, 56.78 -1.83 M104.25 39.45 C88.88 25.8, 72.04 13.02, 56.53 -1.88 M109 41.22 C98.94 29.12, 87.45 18.45, 63.37 -0.43 M110.07 39.23 C98.19 30.69, 86.95 20.35, 62.28 -1.16 M114.43 39.21 C104.35 27.48, 88.96 17.81, 67.6 -2.7 M115.76 41.21 C97.34 25.07, 79.55 9.68, 67.56 -1.51 M120.27 40.73 C108.36 28.53, 93.03 15.55, 72.76 -3.43 M122.01 38.97 C106.83 26.21, 90.12 11.93, 75.1 -0.67 M127.82 41.2 C110.22 23.16, 93.94 10.46, 80.56 -1.14 M127.97 40.62 C113.53 26.93, 99.33 14.09, 79.59 -1.31 M135.54 39.73 C119.43 24.78, 103.9 12.4, 86.86 -3.6 M133.41 38.74 C119.94 27.69, 105.1 16.2, 85.87 -1.16 M142.03 39.42 C129.81 28.92, 118.48 19.44, 92.68 0.36 M140.33 40.1 C123.25 26.37, 107.79 10.85, 92.45 -1.24 M145.81 41.73 C135.12 31.57, 122.65 22.3, 99.94 -0.68 M147.09 39.58 C137.5 32.73, 127.01 24.06, 99.76 -1.98 M152.55 39.49 C135.93 24.09, 117.47 9.52, 102.72 0.18 M152.27 40.64 C134.23 23.89, 114.32 7.41, 103.93 -0.69 M158.33 41.8 C149.02 30.32, 137.43 22.96, 110.5 -2.85 M158.35 39.8 C147.72 31.55, 137.24 21.82, 110.47 -1.17 M165.39 40.52 C153.01 30.21, 141.39 21.87, 115.93 -1.83 M163.98 40.51 C149.54 25.99, 135.23 14.33, 116.59 -1.76 M169.12 38.46 C154.56 25.37, 142.18 12.13, 121.8 -2.85 M171.5 40.94 C156.24 26.77, 141.7 13.59, 122.67 -1.58 M177.82 39.8 C165.78 30.02, 151.42 18.71, 128.83 0.37 M177.14 39.87 C164.3 29.27, 151.43 18.83, 128.51 -0.67 M182.43 37.75 C167.18 25.82, 152.75 14.17, 134.85 -0.55 M181.33 37.82 C169.18 28.17, 156.74 18.06, 135.06 -1.46 M179.8 31.55 C165.48 19.94, 151.12 8.13, 142.16 0.32 M182.39 33.58 C165.92 20.25, 150.54 7.65, 142.22 -0.36 M181.46 28.69 C168.21 15.59, 155.79 3.68, 149.16 -2.35 M181.85 27.94 C173.52 20.07, 163.96 12.64, 147.05 -1.81 M180.59 22.69 C173.65 14.87, 166.57 8.95, 153.44 -0.94 M181.92 22.95 C175.05 16.76, 167.58 10.86, 153.29 -0.54 M179.52 18.81 C173.79 13.58, 170.33 5.98, 159.48 -0.45 M181.44 17.12 C173.95 10.49, 164.8 4.29, 159.6 -1.7 M180.74 10.26 C179.13 6.72, 174.6 7.11, 165.92 -1.55 M181.45 13.15 C176.8 9.24, 172.65 5.65, 165.29 -2.34 M181.56 7.43 C177.56 4.4, 174.41 0.72, 172.5 -0.25 M180.82 6.98 C179.25 4.2, 176.43 2.4, 172.08 -1.08 M181.77 1.44 C180.23 0.05, 178.74 -0.76, 177.59 -1.78 M181.31 1.39 C180.59 0.63, 179.78 0.13, 177.88 -1.65" stroke="#fa5252" stroke-width="0.5" fill="none"></path><path d="M0.15 -0.34 C65.4 0.56, 129.13 -1.07, 178.1 -1.55 M0.03 0.61 C40.61 0.19, 80.22 -0.05, 180.78 -0.22 M181.48 1.29 C181.25 13.81, 179.45 27.34, 180.19 39.38 M179.47 -0.24 C180.72 8.52, 180.47 16.68, 179.28 40.74 M179.7 40.27 C118.66 38.05, 58.18 37.47, -1.9 39.75 M180.39 40.13 C109.57 39.29, 37.44 39.88, -0.48 40.52 M0.78 39.04 C-0.15 29.89, 0.81 16.39, -0.8 -0.92 M-0.92 40.58 C0.34 28.48, 0.46 17.04, 0.81 -0.27" stroke="#c92a2a" stroke-width="1" fill="none"></path></g><g transform="translate(88.5 360) rotate(0 31.5 9.5)"><text x="31.5" y="0" font-family="Virgil, Segoe UI Emoji" font-size="16px" fill="#000000" text-anchor="middle" style="white-space: pre;" direction="ltr" dominant-baseline="text-before-edge">overspill</text></g><g transform="translate(230 10) rotate(0 87.5 40)"><text x="0" y="0" font-family="Virgil, Segoe UI Emoji" font-size="16px" fill="#1864ab" text-anchor="start" style="white-space: pre;" direction="ltr" dominant-baseline="text-before-edge">GET / HTTP/1.1</text><text x="0" y="20" font-family="Virgil, Segoe UI Emoji" font-size="16px" fill="#1864ab" text-anchor="start" style="white-space: pre;" direction="ltr" dominant-baseline="text-before-edge">Host: 127.0.0.1:9999</text><text x="0" y="40" font-family="Virgil, Segoe UI Emoji" font-size="16px" fill="#1864ab" text-anchor="start" style="white-space: pre;" direction="ltr" dominant-baseline="text-before-edge">User-Agent: curl/7.79.1</text><text x="0" y="60" font-family="Virgil, Segoe UI Emoji" font-size="16px" fill="#1864ab" text-anchor="start" style="white-space: pre;" direction="ltr" dominant-baseline="text-before-edge">Accept: */*</text></g><g transform="translate(230 120.46542358398438) rotate(0 137 10)"><text x="0" y="0" font-family="Virgil, Segoe UI Emoji" font-size="16px" fill="#5f3dc4" text-anchor="start" style="white-space: pre;" direction="ltr" dominant-baseline="text-before-edge">A: 11111111111..............................................</text></g><g transform="translate(230 180.46542358398438) rotate(0 29 20)"><text x="0" y="0" font-family="Virgil, Segoe UI Emoji" font-size="16px" fill="#1864ab" text-anchor="start" style="white-space: pre;" direction="ltr" dominant-baseline="text-before-edge">B: hello</text><text x="0" y="20" font-family="Virgil, Segoe UI Emoji" font-size="16px" fill="#1864ab" text-anchor="start" style="white-space: pre;" direction="ltr" dominant-baseline="text-before-edge"></text></g><g transform="translate(230 240.46542358398438) rotate(0 136.5 20)"><text x="0" y="0" font-family="Virgil, Segoe UI Emoji" font-size="16px" fill="#5f3dc4" text-anchor="start" style="white-space: pre;" direction="ltr" dominant-baseline="text-before-edge">C: 11111111111..............................................</text><text x="0" y="20" font-family="Virgil, Segoe UI Emoji" font-size="16px" fill="#5f3dc4" text-anchor="start" style="white-space: pre;" direction="ltr" dominant-baseline="text-before-edge"></text></g><g transform="translate(230 300.4654235839844) rotate(0 32.5 10)"><text x="0" y="0" font-family="Virgil, Segoe UI Emoji" font-size="16px" fill="#1864ab" text-anchor="start" style="white-space: pre;" direction="ltr" dominant-baseline="text-before-edge">D: world</text></g><g transform="translate(230 360.4654235839844) rotate(0 137 10)"><text x="0" y="0" font-family="Virgil, Segoe UI Emoji" font-size="16px" fill="#c92a2a" text-anchor="start" style="white-space: pre;" direction="ltr" dominant-baseline="text-before-edge">E: 11111111111..............................................</text></g><g transform="translate(230 470) rotate(0 137 12.5)"><text x="0" y="0" font-family="Virgil, Segoe UI Emoji" font-size="20px" fill="#c92a2a" text-anchor="start" style="white-space: pre;" direction="ltr" dominant-baseline="text-before-edge">HTTP/1.1 400 Bad Request</text></g><g stroke-linecap="round"><g transform="translate(117.80255126953125 391.92254638671875) rotate(0 51.00537109375 44.384552001953125)"><path d="M0.89 1.15 C2.75 14.51, -4.38 64.31, 12.34 78.93 C29.07 93.55, 86.47 87.38, 101.25 88.88 M-0.11 0.72 C1.51 13.84, -5.84 62.34, 11.47 77.26 C28.78 92.18, 88.87 88.37, 103.75 90.25" stroke="#c92a2a" stroke-width="1" fill="none"></path></g><g transform="translate(117.80255126953125 391.92254638671875) rotate(0 51.00537109375 44.384552001953125)"><path d="M103.66 89.57 L90.52 94.5 L88.6 82.65 L104.23 90.57" stroke="none" stroke-width="0" fill="#c92a2a" fill-rule="evenodd"></path><path d="M105.19 90.43 C99.3 91.71, 92.91 93.72, 88.82 94.8 M103.44 89.89 C99.68 92.54, 94.27 93.67, 89.44 96.25 M90.74 96.56 C89.73 91.27, 90.69 87.23, 89.47 84.45 M90.4 96.61 C90.29 92.56, 89.58 90.42, 89.9 83.79 M90.19 82.36 C95.69 85.98, 100.47 87.36, 102.62 89.94 M89.65 82.84 C94.84 84.58, 98.29 87.28, 103.09 90.7 M103.75 90.25 C103.75 90.25, 103.75 90.25, 103.75 90.25 M103.75 90.25 C103.75 90.25, 103.75 90.25, 103.75 90.25" stroke="#c92a2a" stroke-width="1" fill="none"></path></g></g><mask></mask></svg>