<svg version="1.1" xmlns="http://www.w3.org/2000/svg" viewBox="0 0 514 505" width="1028" height="1010">
  <!-- svg-source:excalidraw -->
  
  <defs>
    <style class="style-fonts">
      @font-face {
        font-family: "Virgil";
        src: url('/fonts/Virgil.woff2') format('woff2');
      }
    </style>
    
  </defs>
  <g stroke-linecap="round" transform="translate(50 50) rotate(0 10 20)"><path d="M0 0 C0 0, 0 0, 0 0 M0 0 C0 0, 0 0, 0 0 M-0.26 6.4 C1.07 5.23, 2.34 3.13, 4.99 0.36 M-0.26 6.4 C1.52 4.2, 3.41 2.2, 4.99 0.36 M0.13 12.04 C3.12 8.14, 7.16 3.38, 10.63 -0.03 M0.13 12.04 C3.58 7.74, 7.33 3.81, 10.63 -0.03 M-0.13 18.44 C3.78 14.67, 7.33 11.03, 15.62 0.33 M-0.13 18.44 C5.6 12.01, 11.86 4.96, 15.62 0.33 M0.27 24.08 C6.55 17.52, 13.22 9.46, 20.6 0.69 M0.27 24.08 C7.54 15.42, 15.14 7.4, 20.6 0.69 M0 30.48 C5.81 24.42, 11.59 16.12, 21 6.33 M0 30.48 C5.8 23.57, 11.39 17.76, 21 6.33 M-0.26 36.88 C6.63 28.96, 12.13 22.63, 20.74 12.73 M-0.26 36.88 C4.39 31.23, 9.16 24.95, 20.74 12.73 M2.11 40.26 C8.18 33.32, 12.42 28.45, 20.48 19.12 M2.11 40.26 C9.28 32.2, 15.51 24.89, 20.48 19.12 M7.09 40.62 C11.05 35.55, 16.43 31.22, 20.87 24.77 M7.09 40.62 C10.92 36.45, 13.86 33.08, 20.87 24.77 M12.74 40.22 C14.66 38.5, 16.83 35.99, 20.61 31.17 M12.74 40.22 C14.94 37.6, 17.48 34.72, 20.61 31.17 M17.72 40.58 C18.95 39.39, 19.73 37.98, 21 36.81 M17.72 40.58 C18.85 39.17, 20.2 37.69, 21 36.81" stroke="#228be6" stroke-width="0.5" fill="none"></path><path d="M0 0 C7.37 0.01, 16.48 0.88, 20 0 M0 0 C4.82 -0.36, 9.94 -0.2, 20 0 M20 0 C19.95 10.89, 20.72 20.44, 20 40 M20 0 C20.19 12.47, 19.94 24.37, 20 40 M20 40 C15.56 39.83, 11.83 40.53, 0 40 M20 40 C12.04 40.47, 4.18 40.36, 0 40 M0 40 C0.76 29.73, -0.06 17.87, 0 0 M0 40 C-0.52 30.04, 0.34 19.59, 0 0" stroke="#1864ab" stroke-width="1" fill="none"></path></g><g stroke-linecap="round" transform="translate(50 50) rotate(0 80 20)"><path d="M0 0 C39.89 -1.33, 79.78 -2.25, 160 0 M0 0 C57.52 -0.43, 115.04 -0.52, 160 0 M160 0 C161.27 10.12, 159.4 18.94, 160 40 M160 0 C159.19 14.4, 159.67 28.18, 160 40 M160 40 C118.01 39.6, 76.82 40.83, 0 40 M160 40 C126.46 39.74, 93.5 39.83, 0 40 M0 40 C-1.74 26.13, 1.54 8.26, 0 0 M0 40 C0.38 27.69, 1.02 14.1, 0 0" stroke="#000000" stroke-width="1" fill="none"></path></g><g transform="translate(71.5 60) rotate(0 58.5 10)"><text x="58.5" y="0" font-family="Virgil, Segoe UI Emoji" font-size="16px" fill="#000000" text-anchor="middle" style="white-space: pre;" direction="ltr" dominant-baseline="text-before-edge">default buffer</text></g><g stroke-linecap="round" transform="translate(10 109.625) rotate(0 90 20)"><path d="M0 0 C0 0, 0 0, 0 0 M0 0 C0 0, 0 0, 0 0 M-0.26 6.4 C1.94 4, 3.7 2.63, 4.99 0.36 M-0.26 6.4 C0.73 5.59, 1.79 3.66, 4.99 0.36 M0.13 12.04 C1.86 8.01, 3.88 6.64, 10.63 -0.03 M0.13 12.04 C4.23 8.04, 8.32 3.13, 10.63 -0.03 M-0.13 18.44 C3.03 14.92, 8.03 9.43, 15.62 0.33 M-0.13 18.44 C5.26 10.54, 12.06 4.73, 15.62 0.33 M0.27 24.08 C3.53 20.34, 10.91 13.47, 21.26 -0.07 M0.27 24.08 C6.64 16.79, 13.37 8.52, 21.26 -0.07 M0 30.48 C9.57 22.25, 15.01 10.28, 26.25 0.29 M0 30.48 C5.78 23.98, 11.69 16.29, 26.25 0.29 M-0.26 36.88 C7.95 28.69, 16.11 18.38, 31.89 -0.1 M-0.26 36.88 C9.16 26.05, 19.33 14.2, 31.89 -0.1 M2.11 40.26 C7.83 30.84, 18.19 24.28, 36.88 0.26 M2.11 40.26 C12.65 28.21, 22.16 17.17, 36.88 0.26 M7.09 40.62 C13.83 33.87, 21.05 24.18, 42.52 -0.14 M7.09 40.62 C14.63 31.59, 21.92 23.84, 42.52 -0.14 M12.74 40.22 C20.14 29.46, 28.25 23.09, 47.51 0.22 M12.74 40.22 C25.26 25.56, 38.08 11.27, 47.51 0.22 M17.72 40.58 C30.97 26.61, 45.1 6.53, 53.15 -0.17 M17.72 40.58 C32.4 24.29, 44.95 9.77, 53.15 -0.17 M23.37 40.19 C32.64 26.55, 42.75 15.74, 58.14 0.19 M23.37 40.19 C34.41 26.01, 46.74 12.34, 58.14 0.19 M28.35 40.55 C40.78 24.25, 55.28 11.18, 63.78 -0.21 M28.35 40.55 C39.07 29.74, 48.05 17.46, 63.78 -0.21 M34 40.15 C41.56 31.6, 52.13 22.24, 68.77 0.15 M34 40.15 C46.6 24.16, 60.7 8.07, 68.77 0.15 M38.98 40.51 C47.71 30.01, 59.44 17.32, 74.41 -0.24 M38.98 40.51 C53.19 25.55, 65.87 9.71, 74.41 -0.24 M43.97 40.87 C55.16 30.98, 62.33 18.32, 79.4 0.12 M43.97 40.87 C56.54 25.88, 69.68 12.12, 79.4 0.12 M49.61 40.48 C60.18 28.08, 73.88 11.99, 85.04 -0.28 M49.61 40.48 C58.06 29.63, 67.1 19.34, 85.04 -0.28 M54.6 40.84 C65.95 31.2, 73.47 19.43, 90.03 0.08 M54.6 40.84 C65.73 26.47, 79.04 13.45, 90.03 0.08 M60.24 40.44 C73.47 24.76, 84.86 11.71, 95.67 -0.31 M60.24 40.44 C74.38 25.18, 86.77 10.8, 95.67 -0.31 M65.23 40.8 C77 28.75, 89.09 17.41, 100.66 0.05 M65.23 40.8 C77.64 27.47, 88.46 13.35, 100.66 0.05 M70.87 40.41 C82.7 24.59, 94.07 14.01, 106.3 -0.34 M70.87 40.41 C79.16 31.13, 87.5 19.94, 106.3 -0.34 M75.86 40.77 C87.95 30.1, 98.48 17.3, 111.29 0.02 M75.86 40.77 C84.43 31.64, 91.66 23.78, 111.29 0.02 M81.5 40.37 C90.35 31.4, 96.6 23.04, 116.27 0.38 M81.5 40.37 C91.81 28.74, 101.1 17.49, 116.27 0.38 M86.49 40.73 C99.33 28.09, 108.28 13.42, 121.92 -0.02 M86.49 40.73 C96.64 28.74, 107.56 16.32, 121.92 -0.02 M92.13 40.34 C99.86 32.77, 107.56 20.91, 126.91 0.34 M92.13 40.34 C102.81 26.55, 116.35 12.32, 126.91 0.34 M97.12 40.7 C105.49 32.1, 113.17 23.86, 132.55 -0.05 M97.12 40.7 C104.71 31.99, 111.28 23.57, 132.55 -0.05 M102.76 40.31 C115.47 28.05, 125.58 13.28, 137.54 0.31 M102.76 40.31 C109.81 31.76, 116.47 25.39, 137.54 0.31 M107.75 40.67 C117.41 28.19, 127.07 17.98, 143.18 -0.09 M107.75 40.67 C116.53 30.29, 125.3 20.28, 143.18 -0.09 M113.39 40.27 C122.65 31.49, 132.16 19.42, 148.17 0.27 M113.39 40.27 C122.88 29.48, 132.72 18.39, 148.17 0.27 M118.38 40.63 C134.41 24.55, 147.42 6.61, 153.81 -0.12 M118.38 40.63 C131.2 24.86, 143.82 10.77, 153.81 -0.12 M124.02 40.24 C138.29 25.68, 150.52 10, 158.8 0.24 M124.02 40.24 C132.4 29.8, 141.46 18.97, 158.8 0.24 M129.01 40.6 C139.17 28.59, 152.36 14.89, 164.44 -0.16 M129.01 40.6 C142.17 25.31, 156.95 8.87, 164.44 -0.16 M134.65 40.2 C144.25 31.7, 153.3 21.13, 169.43 0.2 M134.65 40.2 C146.42 27.51, 159.25 14.51, 169.43 0.2 M139.64 40.56 C150.16 26.27, 162.41 13.08, 175.07 -0.19 M139.64 40.56 C149.08 31.29, 157.65 21.34, 175.07 -0.19 M145.28 40.17 C158.36 27.68, 166.39 12.98, 180.06 0.17 M145.28 40.17 C157.25 26.26, 169.6 12.25, 180.06 0.17 M150.27 40.53 C161.06 29.44, 170.47 15.06, 179.79 6.57 M150.27 40.53 C160.77 29.13, 170.92 18.61, 179.79 6.57 M155.91 40.13 C161.55 32.67, 168.56 24.76, 180.19 12.21 M155.91 40.13 C161.25 32.89, 168.07 26.57, 180.19 12.21 M160.9 40.49 C167.15 34.15, 171.54 29.04, 179.93 18.61 M160.9 40.49 C167.17 34.67, 172.09 26.74, 179.93 18.61 M165.89 40.85 C169.73 37.21, 173.17 32.06, 180.32 24.25 M165.89 40.85 C169.11 37.32, 172.32 34.87, 180.32 24.25 M171.53 40.46 C174.97 36.13, 178.17 34.6, 180.06 30.65 M171.53 40.46 C174.4 37.36, 176.07 34.14, 180.06 30.65 M176.52 40.82 C177.95 39.66, 178.02 38.32, 179.8 37.05 M176.52 40.82 C177.81 39.83, 178.45 38.43, 179.8 37.05" stroke="#7950f2" stroke-width="0.5" fill="none"></path><path d="M0 0 C45.02 -1.51, 86.89 -2.13, 180 0 M0 0 C55.92 2.51, 110.84 1.56, 180 0 M180 0 C181.54 13.09, 181.68 29.76, 180 40 M180 0 C179.95 9.87, 179.26 20.17, 180 40 M180 40 C143.05 39.04, 101.5 40.54, 0 40 M180 40 C123.04 40.7, 66.96 40.6, 0 40 M0 40 C1.1 28.03, -0.15 18.88, 0 0 M0 40 C-0.14 26.97, 0.45 13.25, 0 0" stroke="#5f3dc4" stroke-width="1" fill="none"></path></g><g stroke-linecap="round" transform="translate(10 109.625) rotate(0 100 20)"><path d="M0 0 C43.82 -0.26, 84.56 0.59, 200 0 M0 0 C52.83 -0.87, 103.09 -1.11, 200 0 M200 0 C200.49 9.66, 197.73 20.45, 200 40 M200 0 C199.75 7.85, 201.27 18.05, 200 40 M200 40 C143 38.97, 88.69 40.12, 0 40 M200 40 C144.87 40.36, 89.64 40.22, 0 40 M0 40 C1.15 25.49, -0.96 11.3, 0 0 M0 40 C0.3 29.26, -0.29 19.66, 0 0" stroke="#000000" stroke-width="1" fill="none"></path></g><g transform="translate(49 119.625) rotate(0 61 10)"><text x="61" y="0" font-family="Virgil, Segoe UI Emoji" font-size="16px" fill="#000000" text-anchor="middle" style="white-space: pre;" direction="ltr" dominant-baseline="text-before-edge">large buffer #1</text></g><g stroke-linecap="round" transform="translate(10 170) rotate(0 10 20)"><path d="M0 0 C0 0, 0 0, 0 0 M0 0 C0 0, 0 0, 0 0 M-0.26 6.4 C1.03 5.13, 2.22 3.66, 4.99 0.36 M-0.26 6.4 C1.04 4.94, 2.75 3.05, 4.99 0.36 M0.13 12.04 C3.61 8.36, 6.45 4.67, 10.63 -0.03 M0.13 12.04 C2.87 9.23, 5.11 6.77, 10.63 -0.03 M-0.13 18.44 C3.67 13.69, 7.3 9.56, 15.62 0.33 M-0.13 18.44 C4.04 12.75, 8.49 8.4, 15.62 0.33 M0.27 24.08 C4.69 18.31, 9.46 12.74, 20.6 0.69 M0.27 24.08 C8.41 14.78, 16.45 5, 20.6 0.69 M0 30.48 C7.87 21.18, 14.17 13.68, 21 6.33 M0 30.48 C7.21 23.04, 13.52 14.64, 21 6.33 M-0.26 36.88 C5.76 29.63, 11.79 21.47, 20.74 12.73 M-0.26 36.88 C4.37 31.32, 9.3 25.36, 20.74 12.73 M2.11 40.26 C6.99 34.81, 10.28 30.24, 20.48 19.12 M2.11 40.26 C5.97 36.05, 10.36 31.59, 20.48 19.12 M7.09 40.62 C11.72 35.84, 16.62 30.64, 20.87 24.77 M7.09 40.62 C10.46 36.02, 14.57 32.31, 20.87 24.77 M12.74 40.22 C13.99 38.77, 15.86 36.93, 20.61 31.17 M12.74 40.22 C15.32 37.04, 18.18 34.12, 20.61 31.17 M17.72 40.58 C18.58 39.37, 19.91 38.5, 21 36.81 M17.72 40.58 C18.68 39.61, 19.53 38.39, 21 36.81" stroke="#228be6" stroke-width="0.5" fill="none"></path><path d="M0 0 C5.87 -0.79, 11.6 -0.07, 20 0 M0 0 C8.08 0.1, 16.02 0.06, 20 0 M20 0 C20.65 9.02, 19.31 17.63, 20 40 M20 0 C20.13 13.67, 19.5 26.91, 20 40 M20 40 C14.1 39.09, 10.43 40.41, 0 40 M20 40 C13.95 39.92, 7.13 39.75, 0 40 M0 40 C0.03 23.3, 0.27 8.22, 0 0 M0 40 C0.22 26.1, -0.62 11.77, 0 0" stroke="#1864ab" stroke-width="1" fill="none"></path></g><g stroke-linecap="round" transform="translate(10 170) rotate(0 100 20)"><path d="M0 0 C41.21 2.46, 81.28 -0.03, 200 0 M0 0 C53.19 -2.21, 104.36 -0.84, 200 0 M200 0 C198.56 14.71, 200.13 32.43, 200 40 M200 0 C200.02 15.49, 200.1 30.86, 200 40 M200 40 C138.59 42.05, 78.97 40.15, 0 40 M200 40 C131.04 41.18, 62.15 40.65, 0 40 M0 40 C-0.59 26.91, -0.58 9.26, 0 0 M0 40 C0.41 30.36, -0.06 20.65, 0 0" stroke="#000000" stroke-width="1" fill="none"></path></g><g transform="translate(45.5 180) rotate(0 64.5 10)"><text x="64.5" y="0" font-family="Virgil, Segoe UI Emoji" font-size="16px" fill="#000000" text-anchor="middle" style="white-space: pre;" direction="ltr" dominant-baseline="text-before-edge">large buffer #2</text></g><g stroke-linecap="round" transform="translate(10 230) rotate(0 90 20)"><path d="M0 0 C0 0, 0 0, 0 0 M0 0 C0 0, 0 0, 0 0 M-0.26 6.4 C2 4.1, 3.54 1.66, 4.99 0.36 M-0.26 6.4 C1.31 4.55, 2.14 2.92, 4.99 0.36 M0.13 12.04 C4.81 6.88, 7.77 2.26, 10.63 -0.03 M0.13 12.04 C3.53 8.7, 6.07 5.2, 10.63 -0.03 M-0.13 18.44 C3.91 15.02, 5.64 8.5, 15.62 0.33 M-0.13 18.44 C4.89 13.01, 11.33 5.84, 15.62 0.33 M0.27 24.08 C4.09 17.83, 9.89 11.6, 21.26 -0.07 M0.27 24.08 C6.35 17.62, 10.92 11.8, 21.26 -0.07 M0 30.48 C6.44 21.94, 15.67 10.25, 26.25 0.29 M0 30.48 C7.6 20.82, 17.29 12.2, 26.25 0.29 M-0.26 36.88 C11.38 23.88, 23.72 11.46, 31.89 -0.1 M-0.26 36.88 C10.21 25.95, 17.54 16.47, 31.89 -0.1 M1.45 41.01 C9.64 29, 21.66 19.18, 36.88 0.26 M1.45 41.01 C13.22 26.04, 26.49 11.93, 36.88 0.26 M6.44 41.37 C16.02 28.54, 26.61 19.33, 42.52 -0.14 M6.44 41.37 C19.65 26.08, 34.43 9.84, 42.52 -0.14 M12.08 40.98 C21.14 30.62, 27.44 21.36, 47.51 0.22 M12.08 40.98 C25.66 26.67, 39.02 11.82, 47.51 0.22 M17.07 41.34 C30.44 24.6, 43.88 9.06, 53.15 -0.17 M17.07 41.34 C28.97 28.84, 39.69 15.92, 53.15 -0.17 M22.71 40.94 C33.3 29.77, 41.89 18.47, 58.14 0.19 M22.71 40.94 C33.46 28.34, 42.96 17.77, 58.14 0.19 M27.7 41.3 C40.84 26.36, 56.7 9.22, 63.78 -0.21 M27.7 41.3 C42.65 25.44, 55.74 8.26, 63.78 -0.21 M33.34 40.91 C45.78 24.72, 59.63 9.82, 68.77 0.15 M33.34 40.91 C46.67 26.09, 58.75 13.24, 68.77 0.15 M38.33 41.27 C50.52 27.23, 65.59 11.7, 74.41 -0.24 M38.33 41.27 C50.57 26.13, 64.31 10.53, 74.41 -0.24 M43.97 40.87 C53.59 29.57, 64.94 17.78, 79.4 0.12 M43.97 40.87 C52.67 32.13, 61.54 22.24, 79.4 0.12 M48.96 41.23 C60.38 27.64, 70 18.5, 85.04 -0.28 M48.96 41.23 C58.93 28.36, 71.36 16.23, 85.04 -0.28 M54.6 40.84 C63.62 30.62, 68.53 23.51, 90.03 0.08 M54.6 40.84 C67.1 27.66, 78.69 12.25, 90.03 0.08 M59.59 41.2 C67.56 31.74, 78.1 18.17, 95.67 -0.31 M59.59 41.2 C68.86 30.1, 78.5 18.2, 95.67 -0.31 M65.23 40.8 C76.47 27.75, 88.21 12.82, 100.66 0.05 M65.23 40.8 C76.32 27.31, 86.57 15.77, 100.66 0.05 M70.22 41.16 C81.15 28.89, 91.32 15.55, 106.3 -0.34 M70.22 41.16 C81.88 28.57, 91.22 17.78, 106.3 -0.34 M75.2 41.52 C88.7 27.7, 101.12 9.44, 111.29 0.02 M75.2 41.52 C84.94 30.68, 94.81 18.67, 111.29 0.02 M80.85 41.13 C94.17 24.4, 108.06 10.87, 116.27 0.38 M80.85 41.13 C89.07 31.94, 95.92 22.57, 116.27 0.38 M85.83 41.49 C95.61 28.36, 109.93 15.9, 121.92 -0.02 M85.83 41.49 C93.31 32.07, 101.79 23.25, 121.92 -0.02 M91.48 41.1 C103.66 26.81, 116.78 9.81, 126.91 0.34 M91.48 41.1 C106.22 25.67, 119.13 9.41, 126.91 0.34 M96.46 41.46 C107.33 30.17, 117.36 19.22, 132.55 -0.05 M96.46 41.46 C104.62 31.97, 112.03 22.26, 132.55 -0.05 M102.11 41.06 C110.06 29.57, 121.16 18.59, 137.54 0.31 M102.11 41.06 C109.66 32.62, 116.62 22.9, 137.54 0.31 M107.09 41.42 C121.03 24.79, 134.29 9.01, 143.18 -0.09 M107.09 41.42 C117.25 30.94, 126.53 19.88, 143.18 -0.09 M112.74 41.03 C122.87 31.61, 130.55 19.59, 148.17 0.27 M112.74 41.03 C127.43 25.41, 141.2 9.21, 148.17 0.27 M117.73 41.39 C126.64 34.38, 135.19 25.08, 153.81 -0.12 M117.73 41.39 C130.52 25.98, 143.92 11.67, 153.81 -0.12 M123.37 40.99 C136.51 28.24, 148.57 14.64, 158.8 0.24 M123.37 40.99 C133.41 28.39, 142.57 18.27, 158.8 0.24 M128.36 41.35 C138.29 29.48, 148.13 21.22, 164.44 -0.16 M128.36 41.35 C142.48 25.25, 155.06 9.51, 164.44 -0.16 M134 40.96 C144.03 30.88, 155.74 16.85, 169.43 0.2 M134 40.96 C145.1 28.04, 156.14 14.29, 169.43 0.2 M138.99 41.32 C151.8 26.67, 166.48 9.32, 175.07 -0.19 M138.99 41.32 C150.59 27.67, 162.93 12.95, 175.07 -0.19 M144.63 40.92 C154.44 30.34, 160.04 21.51, 180.06 0.17 M144.63 40.92 C153.06 31.44, 160.72 21.63, 180.06 0.17 M149.62 41.28 C159.46 30.7, 171.44 18.79, 179.79 6.57 M149.62 41.28 C156.97 32.67, 166.31 22.7, 179.79 6.57 M155.26 40.89 C164.61 27.97, 173.58 18.13, 180.19 12.21 M155.26 40.89 C164.58 28.75, 173.74 18.88, 180.19 12.21 M160.25 41.25 C166.17 34.87, 168.76 29.22, 179.93 18.61 M160.25 41.25 C165.98 35.26, 172.37 28.27, 179.93 18.61 M165.89 40.85 C170.84 36.75, 177.5 28.37, 180.32 24.25 M165.89 40.85 C169.77 36.57, 173.34 32.41, 180.32 24.25 M170.88 41.21 C172.74 38.42, 175.97 34.43, 180.06 30.65 M170.88 41.21 C172.97 38.74, 175.3 36.49, 180.06 30.65 M176.52 40.82 C177.46 39.17, 178.77 38.01, 179.8 37.05 M176.52 40.82 C177.68 39.27, 179.14 37.82, 179.8 37.05" stroke="#7950f2" stroke-width="0.5" fill="none"></path><path d="M0 0 C39.5 1.09, 77.61 -1.02, 180 0 M0 0 C64.97 0.12, 129.73 -0.68, 180 0 M180 0 C179.57 13.64, 179.77 22.98, 180 40 M180 0 C180.65 12.47, 180.72 26.2, 180 40 M180 40 C143.32 41.49, 107.15 37.94, 0 40 M180 40 C143.59 40.1, 107.38 40.75, 0 40 M0 40 C0.1 26.03, 0.21 9.99, 0 0 M0 40 C-0.9 28.88, -0.77 16.79, 0 0" stroke="#5f3dc4" stroke-width="1" fill="none"></path></g><g stroke-linecap="round" transform="translate(10 230) rotate(0 100 20)"><path d="M0 0 C65.09 -0.16, 128.98 1.76, 200 0 M0 0 C59.78 -0.59, 120.95 -0.21, 200 0 M200 0 C199.47 14.81, 198.83 31.52, 200 40 M200 0 C198.78 15.46, 198.8 31.71, 200 40 M200 40 C130.66 36.74, 64.32 39.65, 0 40 M200 40 C153.19 41.46, 104.91 41.02, 0 40 M0 40 C1.45 29.49, 0.43 20.07, 0 0 M0 40 C-0.04 26.66, 0.4 11.5, 0 0" stroke="#000000" stroke-width="1" fill="none"></path></g><g transform="translate(45.5 240) rotate(0 64.5 10)"><text x="64.5" y="0" font-family="Virgil, Segoe UI Emoji" font-size="16px" fill="#000000" text-anchor="middle" style="white-space: pre;" direction="ltr" dominant-baseline="text-before-edge">large buffer #3</text></g><g stroke-linecap="round" transform="translate(10 289.8515625) rotate(0 10 20)"><path d="M0 0 C0 0, 0 0, 0 0 M0 0 C0 0, 0 0, 0 0 M-0.26 6.4 C1.46 4.44, 3.11 2.13, 4.99 0.36 M-0.26 6.4 C1.1 5.05, 2.41 3.21, 4.99 0.36 M0.13 12.04 C3.71 7.38, 7.74 3.45, 10.63 -0.03 M0.13 12.04 C3.48 7.98, 7.35 3.48, 10.63 -0.03 M-0.13 18.44 C4.87 11.8, 10.64 6.15, 15.62 0.33 M-0.13 18.44 C3.58 14.56, 7.07 10.77, 15.62 0.33 M0.27 24.08 C7.44 16.13, 15.72 6.91, 20.6 0.69 M0.27 24.08 C6.51 17.27, 12.91 9.72, 20.6 0.69 M0 30.48 C7.31 21.42, 15.25 13.73, 21 6.33 M0 30.48 C5.89 24.13, 11.71 16.6, 21 6.33 M-0.26 36.88 C5.65 29.65, 11.18 24.52, 20.74 12.73 M-0.26 36.88 C6.46 29.12, 12.52 22.16, 20.74 12.73 M2.11 40.26 C5.95 35.47, 9.93 29.32, 20.48 19.12 M2.11 40.26 C7.88 33.66, 12.75 28.06, 20.48 19.12 M7.09 40.62 C13.07 34.16, 17.14 29.21, 20.87 24.77 M7.09 40.62 C11.23 35.62, 16.07 30.99, 20.87 24.77 M12.74 40.22 C15.15 37.64, 16.55 36.05, 20.61 31.17 M12.74 40.22 C14.72 38.2, 16.81 35.78, 20.61 31.17 M17.72 40.58 C18.55 39.56, 19.66 38.32, 21 36.81 M17.72 40.58 C18.89 39.37, 19.82 38.03, 21 36.81" stroke="#228be6" stroke-width="0.5" fill="none"></path><path d="M0 0 C6.73 -0.98, 13.68 -0.55, 20 0 M0 0 C7.65 0.03, 16.17 0.47, 20 0 M20 0 C20.26 8.96, 20.99 18.79, 20 40 M20 0 C20.04 10.57, 20.42 20.47, 20 40 M20 40 C14.19 40.33, 7.55 39.52, 0 40 M20 40 C15.73 39.88, 11.81 40.22, 0 40 M0 40 C-0.22 25.07, -0.23 9.13, 0 0 M0 40 C0.44 29.39, 0.03 17.99, 0 0" stroke="#1864ab" stroke-width="1" fill="none"></path></g><g stroke-linecap="round" transform="translate(10 289.8515625) rotate(0 100 20)"><path d="M0 0 C49.3 -1.98, 95.66 -2.85, 200 0 M0 0 C51.01 -1.16, 100.9 -0.86, 200 0 M200 0 C200.14 15.43, 201.02 27.22, 200 40 M200 0 C200.5 14.3, 200.48 29.2, 200 40 M200 40 C131.77 38.63, 59.71 39.02, 0 40 M200 40 C124.79 38.62, 51.02 38.93, 0 40 M0 40 C1.63 29.27, 1.72 17.47, 0 0 M0 40 C-1.23 30.99, -0.08 20.73, 0 0" stroke="#000000" stroke-width="1" fill="none"></path></g><g transform="translate(46 299.8515625) rotate(0 64 10)"><text x="64" y="0" font-family="Virgil, Segoe UI Emoji" font-size="16px" fill="#000000" text-anchor="middle" style="white-space: pre;" direction="ltr" dominant-baseline="text-before-edge">large buffer #4</text></g><g stroke-linecap="round" transform="translate(30 350) rotate(0 90 20)"><path d="M0 0 C0 0, 0 0, 0 0 M0 0 C0 0, 0 0, 0 0 M-0.26 6.4 C0.52 4.4, 2.24 3, 4.99 0.36 M-0.26 6.4 C1.66 4.71, 3.17 2.87, 4.99 0.36 M0.13 12.04 C3.85 6.83, 9.01 3.4, 10.63 -0.03 M0.13 12.04 C4.2 7.73, 8.27 3.73, 10.63 -0.03 M-0.13 18.44 C1.68 13.08, 7.05 8.96, 15.62 0.33 M-0.13 18.44 C5.17 11.21, 13.01 3.92, 15.62 0.33 M0.27 24.08 C6.34 19.65, 7.62 14.49, 21.26 -0.07 M0.27 24.08 C8.09 15.31, 15.59 5.19, 21.26 -0.07 M0 30.48 C12.26 17.54, 21.46 4.92, 26.25 0.29 M0 30.48 C4.81 24.63, 10.41 16.99, 26.25 0.29 M-0.26 36.88 C11.98 24.75, 22.55 8.82, 31.89 -0.1 M-0.26 36.88 C9.97 24.91, 20.01 14.25, 31.89 -0.1 M2.11 40.26 C13.06 28.19, 25.15 12.55, 36.88 0.26 M2.11 40.26 C13.71 26.4, 27.12 12.9, 36.88 0.26 M7.09 40.62 C20.09 24.01, 34.44 9.67, 42.52 -0.14 M7.09 40.62 C17.71 27.95, 30.43 13.36, 42.52 -0.14 M12.74 40.22 C21.18 28.22, 30.47 19.76, 47.51 0.22 M12.74 40.22 C21.02 29.27, 30.15 18.99, 47.51 0.22 M17.72 40.58 C30.18 24.45, 45 8.84, 53.15 -0.17 M17.72 40.58 C24.12 32.5, 31.24 23.7, 53.15 -0.17 M23.37 40.19 C31.98 33.04, 38.19 23.66, 58.14 0.19 M23.37 40.19 C34.32 28.37, 43.04 16.41, 58.14 0.19 M28.35 40.55 C44.41 23.89, 54.83 9.82, 63.78 -0.21 M28.35 40.55 C36.46 31.77, 44.92 21.66, 63.78 -0.21 M34 40.15 C42.09 31.93, 48.37 22.05, 68.77 0.15 M34 40.15 C44.04 30.63, 52.13 19.17, 68.77 0.15 M38.98 40.51 C47.17 28.8, 54.88 21.21, 74.41 -0.24 M38.98 40.51 C50.69 27.52, 64.06 12.62, 74.41 -0.24 M43.97 40.87 C58.91 26.95, 68.42 8.28, 79.4 0.12 M43.97 40.87 C52.85 31.04, 61.68 20.13, 79.4 0.12 M49.61 40.48 C62.64 26.54, 74.49 15.13, 85.04 -0.28 M49.61 40.48 C62.66 24.98, 76.75 10.51, 85.04 -0.28 M54.6 40.84 C69.34 27.36, 80.01 10.7, 90.03 0.08 M54.6 40.84 C62.82 32.37, 70.55 21.54, 90.03 0.08 M60.24 40.44 C72.28 27.21, 84.37 9.94, 95.67 -0.31 M60.24 40.44 C68.47 31.62, 75.94 22.45, 95.67 -0.31 M65.23 40.8 C80.09 26.03, 91.6 7.44, 100.66 0.05 M65.23 40.8 C73.63 31.94, 82.34 22.58, 100.66 0.05 M70.87 40.41 C79.18 32.01, 85.28 26, 106.3 -0.34 M70.87 40.41 C80.97 27.92, 90.19 17.23, 106.3 -0.34 M75.86 40.77 C87.45 27.34, 99.4 15.52, 111.29 0.02 M75.86 40.77 C90 25.24, 102.16 9.72, 111.29 0.02 M81.5 40.37 C87.7 30.24, 97.72 22.54, 116.27 0.38 M81.5 40.37 C95.32 25.38, 109.5 10.32, 116.27 0.38 M86.49 40.73 C98.08 23.79, 113.44 10.79, 121.92 -0.02 M86.49 40.73 C93.98 30.34, 103.88 21.44, 121.92 -0.02 M92.13 40.34 C100.53 31.01, 112.04 21.54, 126.91 0.34 M92.13 40.34 C101.43 29.96, 111.06 19.79, 126.91 0.34 M97.12 40.7 C110.16 25.99, 122.49 10.59, 132.55 -0.05 M97.12 40.7 C107.46 28.13, 118.16 15.34, 132.55 -0.05 M102.76 40.31 C117.62 26.04, 131.93 6.9, 137.54 0.31 M102.76 40.31 C112.85 27.23, 124.55 15, 137.54 0.31 M107.75 40.67 C116.97 29.35, 129.91 15.83, 143.18 -0.09 M107.75 40.67 C118.9 27.55, 128.61 16.65, 143.18 -0.09 M113.39 40.27 C123.48 26.74, 136.21 13.1, 148.17 0.27 M113.39 40.27 C121.24 30.01, 128.74 21.37, 148.17 0.27 M118.38 40.63 C126.4 31.82, 135.01 21.01, 153.81 -0.12 M118.38 40.63 C126.09 32.22, 133.86 22.04, 153.81 -0.12 M124.02 40.24 C136.48 24.89, 151.79 9.95, 158.8 0.24 M124.02 40.24 C136.51 26.02, 148.12 14.17, 158.8 0.24 M129.01 40.6 C140.68 28.33, 151.9 16.49, 164.44 -0.16 M129.01 40.6 C136.64 31.77, 143.05 25.16, 164.44 -0.16 M134.65 40.2 C143.7 30.73, 153.78 16.74, 169.43 0.2 M134.65 40.2 C144.47 29.07, 153.9 17.79, 169.43 0.2 M139.64 40.56 C152.78 26.34, 163.66 12.39, 175.07 -0.19 M139.64 40.56 C151.95 26.68, 165.73 11.44, 175.07 -0.19 M145.28 40.17 C159.62 22.18, 170.98 7.44, 180.06 0.17 M145.28 40.17 C157.59 26.46, 169.37 11.12, 180.06 0.17 M150.27 40.53 C158.59 30.53, 166.92 21.01, 179.79 6.57 M150.27 40.53 C161.06 27.82, 172.41 16.57, 179.79 6.57 M155.91 40.13 C165.61 29.78, 171.95 19.78, 180.19 12.21 M155.91 40.13 C164.49 31.74, 172.34 22.23, 180.19 12.21 M160.9 40.49 C167.98 32.97, 174.39 27.07, 179.93 18.61 M160.9 40.49 C166.15 33.81, 173 26.58, 179.93 18.61 M165.89 40.85 C169.05 37.53, 174 30.24, 180.32 24.25 M165.89 40.85 C169.06 36.85, 173.78 32.95, 180.32 24.25 M171.53 40.46 C173.69 37.08, 176.2 35.92, 180.06 30.65 M171.53 40.46 C174.72 36.17, 178.22 32.77, 180.06 30.65 M176.52 40.82 C177.19 39.69, 178.52 38.38, 179.8 37.05 M176.52 40.82 C177.51 39.64, 178.2 38.77, 179.8 37.05 M-0.18 39.84 C-0.18 39.84, -0.18 39.84, -0.18 39.84 M-0.18 39.84 C-0.18 39.84, -0.18 39.84, -0.18 39.84 M6.21 40.1 C4.37 39.83, 4.5 38.68, 0.18 34.85 M6.21 40.1 C4.73 38.68, 3.37 37.49, 0.18 34.85 M11.86 39.71 C7.99 34.82, 2.11 32.01, -0.22 29.21 M11.86 39.71 C6.91 36.05, 3.58 32.04, -0.22 29.21 M18.26 39.97 C11.86 34, 7 29.42, 0.14 24.22 M18.26 39.97 C12.05 34.33, 7.07 30.42, 0.14 24.22 M24.65 40.23 C18.46 35.56, 10.84 27.79, -0.25 18.58 M24.65 40.23 C19.89 36.08, 12.68 30.19, -0.25 18.58 M30.3 39.84 C24.6 34.65, 13.86 25.55, 0.11 13.59 M30.3 39.84 C20.24 31.92, 8.97 22.97, 0.11 13.59 M36.69 40.1 C27.62 29.19, 15.79 20.81, -0.29 7.95 M36.69 40.1 C27.84 31.12, 16.49 23.38, -0.29 7.95 M42.34 39.7 C27.42 26.08, 12.48 15.37, 0.07 2.96 M42.34 39.7 C29.78 28.93, 16.31 17.69, 0.07 2.96 M48.74 39.96 C33.04 25.63, 21.19 14.5, 1.94 -0.71 M48.74 39.96 C34.8 27.59, 20.03 15.07, 1.94 -0.71 M55.13 40.23 C44.45 28.69, 32.39 20.98, 8.34 -0.45 M55.13 40.23 C43.29 29.07, 30.33 19.56, 8.34 -0.45 M60.78 39.83 C48.68 27.22, 34.83 18.88, 13.98 -0.84 M60.78 39.83 C48.05 28.76, 36.38 18.24, 13.98 -0.84 M67.17 40.09 C56.05 31.26, 45.9 23.31, 20.38 -0.58 M67.17 40.09 C57.8 30.07, 46.58 21.69, 20.38 -0.58 M72.82 39.7 C62.4 33.49, 53.33 21.23, 26.78 -0.32 M72.82 39.7 C63.07 31, 53.62 23.3, 26.78 -0.32 M79.21 39.96 C68.74 32.01, 60.4 23.92, 32.42 -0.72 M79.21 39.96 C66.5 30.18, 54.97 18.74, 32.42 -0.72 M85.61 40.22 C75.57 32.47, 65.59 24.31, 38.82 -0.45 M85.61 40.22 C71.88 27.91, 56.52 14.48, 38.82 -0.45 M91.26 39.83 C79.54 28.64, 63.85 18.18, 44.46 -0.85 M91.26 39.83 C78.08 28.56, 65.21 16.64, 44.46 -0.85 M97.65 40.09 C85.72 30.88, 71.49 19.48, 50.86 -0.59 M97.65 40.09 C85 29.01, 71.47 18.08, 50.86 -0.59 M103.3 39.69 C86.38 26.04, 71.23 9.96, 57.26 -0.33 M103.3 39.69 C84.41 22.97, 67.21 8.95, 57.26 -0.33 M109.69 39.95 C98.21 30.89, 87.94 22.06, 62.9 -0.72 M109.69 39.95 C93.32 26.85, 78.08 13.53, 62.9 -0.72 M116.09 40.22 C98.18 22.66, 79.94 8.76, 69.3 -0.46 M116.09 40.22 C102.41 27.14, 87.05 15.54, 69.3 -0.46 M121.74 39.82 C104.85 23.74, 84.23 9.28, 74.94 -0.85 M121.74 39.82 C110.95 30.72, 99.54 20.46, 74.94 -0.85 M128.13 40.08 C115.86 27.33, 102.82 16.87, 81.34 -0.59 M128.13 40.08 C115.57 29.93, 104.54 19.55, 81.34 -0.59 M133.78 39.69 C116 25.18, 98.45 8.64, 87.74 -0.33 M133.78 39.69 C119.76 29.51, 108.46 16.93, 87.74 -0.33 M140.17 39.95 C125.27 27.52, 110.37 11, 93.38 -0.73 M140.17 39.95 C123.24 24.97, 105.69 10.91, 93.38 -0.73 M146.57 40.21 C133.38 27.29, 116.61 15.56, 99.78 -0.46 M146.57 40.21 C133.34 29.32, 122.52 18.78, 99.78 -0.46 M152.21 39.82 C134.35 25.45, 116 8.23, 105.42 -0.86 M152.21 39.82 C137.79 26.74, 122.03 14.03, 105.42 -0.86 M158.61 40.08 C144.78 29.41, 133.04 19.29, 111.82 -0.6 M158.61 40.08 C144.38 26.93, 128.6 14.44, 111.82 -0.6 M164.26 39.68 C147.43 27.33, 134.24 14.75, 118.22 -0.34 M164.26 39.68 C150.07 27.5, 137.27 15.89, 118.22 -0.34 M170.65 39.95 C154.8 28.93, 143.61 15.13, 123.86 -0.73 M170.65 39.95 C157.1 29.5, 145.11 17.15, 123.86 -0.73 M177.05 40.21 C162.45 26.99, 147.37 12.31, 130.26 -0.47 M177.05 40.21 C167.35 32.26, 157.48 22.64, 130.26 -0.47 M180.43 37.84 C166.01 26.28, 152.93 11.4, 135.9 -0.86 M180.43 37.84 C164.88 23.97, 151.39 11.57, 135.9 -0.86 M180.79 32.86 C165.79 18.02, 148.74 7.7, 142.3 -0.6 M180.79 32.86 C169.2 21.19, 155.9 11.92, 142.3 -0.6 M180.4 27.21 C170.77 19.55, 161.5 12.36, 148.7 -0.34 M180.4 27.21 C173.8 21.08, 167.82 15.55, 148.7 -0.34 M180.76 22.23 C173.41 16.76, 167.75 12.06, 154.34 -0.74 M180.76 22.23 C171.46 13.36, 160.49 4.28, 154.34 -0.74 M180.36 16.58 C175.46 11.45, 170.5 6.79, 160.74 -0.47 M180.36 16.58 C174.05 10.58, 167.51 4.96, 160.74 -0.47 M180.72 11.6 C176.44 8.52, 170.26 1.82, 166.38 -0.87 M180.72 11.6 C176.36 8.29, 172.19 4.82, 166.38 -0.87 M180.33 5.95 C177.23 2.9, 173.84 1.42, 172.78 -0.61 M180.33 5.95 C178.98 4.97, 177.47 3.41, 172.78 -0.61 M180.69 0.97 C180.38 0.63, 179.83 0.49, 179.18 -0.35 M180.69 0.97 C180.36 0.62, 179.87 0.18, 179.18 -0.35" stroke="#fa5252" stroke-width="0.5" fill="none"></path><path d="M0 0 C64.86 -0.47, 130.1 0.56, 180 0 M0 0 C50.61 0.91, 102.44 1.62, 180 0 M180 0 C180.32 13.85, 179.82 25.82, 180 40 M180 0 C179.64 11.85, 180.86 22.9, 180 40 M180 40 C129.29 38.51, 76.21 39.6, 0 40 M180 40 C113.8 40.09, 46.71 40.24, 0 40 M0 40 C-1.15 29.92, -0.59 22, 0 0 M0 40 C-0.62 28.73, 0.09 20.3, 0 0" stroke="#c92a2a" stroke-width="1" fill="none"></path></g><g transform="translate(88.5 360) rotate(0 31.5 9.5)"><text x="31.5" y="0" font-family="Virgil, Segoe UI Emoji" font-size="16px" fill="#000000" text-anchor="middle" style="white-space: pre;" direction="ltr" dominant-baseline="text-before-edge">overspill</text></g><g transform="translate(230 10) rotate(0 87.5 40)"><text x="0" y="0" font-family="Virgil, Segoe UI Emoji" font-size="16px" fill="#1864ab" text-anchor="start" style="white-space: pre;" direction="ltr" dominant-baseline="text-before-edge">GET / HTTP/1.1</text><text x="0" y="20" font-family="Virgil, Segoe UI Emoji" font-size="16px" fill="#1864ab" text-anchor="start" style="white-space: pre;" direction="ltr" dominant-baseline="text-before-edge">Host: 127.0.0.1:9999</text><text x="0" y="40" font-family="Virgil, Segoe UI Emoji" font-size="16px" fill="#1864ab" text-anchor="start" style="white-space: pre;" direction="ltr" dominant-baseline="text-before-edge">User-Agent: curl/7.79.1</text><text x="0" y="60" font-family="Virgil, Segoe UI Emoji" font-size="16px" fill="#1864ab" text-anchor="start" style="white-space: pre;" direction="ltr" dominant-baseline="text-before-edge">Accept: */*</text></g><g transform="translate(230 120.46542358398438) rotate(0 137 10)"><text x="0" y="0" font-family="Virgil, Segoe UI Emoji" font-size="16px" fill="#5f3dc4" text-anchor="start" style="white-space: pre;" direction="ltr" dominant-baseline="text-before-edge">A: 11111111111..............................................</text></g><g transform="translate(230 180.46542358398438) rotate(0 29 20)"><text x="0" y="0" font-family="Virgil, Segoe UI Emoji" font-size="16px" fill="#1864ab" text-anchor="start" style="white-space: pre;" direction="ltr" dominant-baseline="text-before-edge">B: hello</text><text x="0" y="20" font-family="Virgil, Segoe UI Emoji" font-size="16px" fill="#1864ab" text-anchor="start" style="white-space: pre;" direction="ltr" dominant-baseline="text-before-edge"></text></g><g transform="translate(230 240.46542358398438) rotate(0 136.5 20)"><text x="0" y="0" font-family="Virgil, Segoe UI Emoji" font-size="16px" fill="#5f3dc4" text-anchor="start" style="white-space: pre;" direction="ltr" dominant-baseline="text-before-edge">C: 11111111111..............................................</text><text x="0" y="20" font-family="Virgil, Segoe UI Emoji" font-size="16px" fill="#5f3dc4" text-anchor="start" style="white-space: pre;" direction="ltr" dominant-baseline="text-before-edge"></text></g><g transform="translate(230 300.4654235839844) rotate(0 32.5 10)"><text x="0" y="0" font-family="Virgil, Segoe UI Emoji" font-size="16px" fill="#1864ab" text-anchor="start" style="white-space: pre;" direction="ltr" dominant-baseline="text-before-edge">D: world</text></g><g transform="translate(230 360.4654235839844) rotate(0 137 10)"><text x="0" y="0" font-family="Virgil, Segoe UI Emoji" font-size="16px" fill="#c92a2a" text-anchor="start" style="white-space: pre;" direction="ltr" dominant-baseline="text-before-edge">E: 11111111111..............................................</text></g><g transform="translate(230 470) rotate(0 137 12.5)"><text x="0" y="0" font-family="Virgil, Segoe UI Emoji" font-size="20px" fill="#c92a2a" text-anchor="start" style="white-space: pre;" direction="ltr" dominant-baseline="text-before-edge">HTTP/1.1 400 Bad Request</text></g><g stroke-linecap="round"><g transform="translate(117.80255126953125 391.92254638671875) rotate(0 51.00537109375 44.384552001953125)"><path d="M0.89 1.15 C2.75 14.51, -4.38 64.31, 12.34 78.93 C29.07 93.55, 86.47 87.38, 101.25 88.88 M-0.11 0.72 C1.51 13.84, -5.84 62.34, 11.47 77.26 C28.78 92.18, 88.87 88.37, 103.75 90.25" stroke="#c92a2a" stroke-width="1" fill="none"></path></g><g transform="translate(117.80255126953125 391.92254638671875) rotate(0 51.00537109375 44.384552001953125)"><path d="M103.15 91.33 L87.98 94.53 L92.19 81.52 L104.63 90.35" stroke="none" stroke-width="0" fill="#c92a2a" fill-rule="evenodd"></path><path d="M103.75 90.25 C99.68 92.85, 93.85 94.03, 89.94 96.11 M103.75 90.25 C98.78 92.1, 95.38 93.94, 89.94 96.11 M89.94 96.11 C90.77 91.69, 89.63 88.69, 90.38 83.44 M89.94 96.11 C89.62 92.46, 90.35 87.89, 90.38 83.44 M90.38 83.44 C93.25 86.57, 97.43 88.14, 103.75 90.25 M90.38 83.44 C94.62 84.76, 97.49 87.85, 103.75 90.25 M103.75 90.25 C103.75 90.25, 103.75 90.25, 103.75 90.25 M103.75 90.25 C103.75 90.25, 103.75 90.25, 103.75 90.25" stroke="#c92a2a" stroke-width="1" fill="none"></path></g></g><mask></mask></svg>