<svg version="1.1" xmlns="http://www.w3.org/2000/svg" viewBox="0 0 820 302.55432687318944" width="1640" height="605.1086537463789" style="background-color: #1f222a"><!-- svg-source:excalidraw --><metadata/><defs><style class="style-fonts">@font-face {
  font-family: "Nunito";
  src: url('/fonts/excalidraw/Nunito/Nunito-Regular-XRXI3I6Li01BKofiOc5wtlZ2di8HDIkhdTk3j6zbXWjgevT5.woff2') format('woff2');
  font-weight: 500;
  unicode-range: U+0460-052F, U+1C80-1C88, U+20B4, U+2DE0-2DFF, U+A640-A69F, U+FE2E-FE2F;
}
@font-face {
  font-family: "Nunito";
  src: url('/fonts/excalidraw/Nunito/Nunito-Regular-XRXI3I6Li01BKofiOc5wtlZ2di8HDIkhdTA3j6zbXWjgevT5.woff2') format('woff2');
  font-weight: 500;
  unicode-range: U+0301, U+0400-045F, U+0490-0491, U+04B0-04B1, U+2116;
}
@font-face {
  font-family: "Nunito";
  src: url('/fonts/excalidraw/Nunito/Nunito-Regular-XRXI3I6Li01BKofiOc5wtlZ2di8HDIkhdTs3j6zbXWjgevT5.woff2') format('woff2');
  font-weight: 500;
  unicode-range: U+0102-0103, U+0110-0111, U+0128-0129, U+0168-0169, U+01A0-01A1, U+01AF-01B0, U+0300-0301, U+0303-0304, U+0308-0309, U+0323, U+0329, U+1EA0-1EF9, U+20AB;
}
@font-face {
  font-family: "Nunito";
  src: url('/fonts/excalidraw/Nunito/Nunito-Regular-XRXI3I6Li01BKofiOc5wtlZ2di8HDIkhdTo3j6zbXWjgevT5.woff2') format('woff2');
  font-weight: 500;
  unicode-range: U+0100-02AF, U+0304, U+0308, U+0329, U+1E00-1E9F, U+1EF2-1EFF, U+2020, U+20A0-20AB, U+20AD-20C0, U+2113, U+2C60-2C7F, U+A720-A7FF;
}
@font-face {
  font-family: "Nunito";
  src: url('/fonts/excalidraw/Nunito/Nunito-Regular-XRXI3I6Li01BKofiOc5wtlZ2di8HDIkhdTQ3j6zbXWjgeg.woff2') format('woff2');
  font-weight: 500;
  unicode-range: U+0000-00FF, U+0131, U+0152-0153, U+02BB-02BC, U+02C6, U+02DA, U+02DC, U+0304, U+0308, U+0329, U+2000-206F, U+2074, U+20AC, U+2122, U+2191, U+2193, U+2212, U+2215, U+FEFF, U+FFFD;
}
@font-face {
  font-family: "Comic Shanns";
  src: url('/fonts/excalidraw/ComicShanns/ComicShanns-Regular-279a7b317d12eb88de06167bd672b4b4.woff2') format('woff2');
  unicode-range: U+20-7e,U+a1-a6,U+a8,U+ab-ac,U+af-b1,U+b4,U+b8,U+bb-bc,U+bf-cf,U+d1-d7,U+d9-de,U+e0-ef,U+f1-f7,U+f9-ff,U+131,U+152-153,U+2c6,U+2da,U+2dc,U+2013-2014,U+2018-201a,U+201c-201d,U+2020-2022,U+2026,U+2039-203a,U+2044,U+20ac,U+2191,U+2193,U+2212;
}
@font-face {
  font-family: "Comic Shanns";
  src: url('/fonts/excalidraw/ComicShanns/ComicShanns-Regular-fcb0fc02dcbee4c9846b3e2508668039.woff2') format('woff2');
  unicode-range: U+100-10f,U+112-125,U+128-130,U+134-137,U+139-13c,U+141-148,U+14c-151,U+154-161,U+164-165,U+168-17f,U+1bf,U+1f7,U+218-21b,U+237,U+1e80-1e85,U+1ef2-1ef3,U+a75b;
}
@font-face {
  font-family: "Comic Shanns";
  src: url('/fonts/excalidraw/ComicShanns/ComicShanns-Regular-dc6a8806fa96795d7b3be5026f989a17.woff2') format('woff2');
  unicode-range: U+2c7,U+2d8-2d9,U+2db,U+2dd,U+315,U+2190,U+2192,U+2200,U+2203-2204,U+2264-2265,U+f6c3;
}
@font-face {
  font-family: "Comic Shanns";
  src: url('/fonts/excalidraw/ComicShanns/ComicShanns-Regular-6e066e8de2ac57ea9283adb9c24d7f0c.woff2') format('woff2');
  unicode-range: U+3bb;
}
@font-face {
  font-family: "Excalifont";
  src: url('/fonts/excalidraw/Excalifont/Excalifont-Regular-a88b72a24fb54c9f94e3b5fdaa7481c9.woff2') format('woff2');
  unicode-range: U+20-7e,U+a0-a3,U+a5-a6,U+a8-ab,U+ad-b1,U+b4,U+b6-b8,U+ba-ff,U+131,U+152-153,U+2bc,U+2c6,U+2da,U+2dc,U+304,U+308,U+2013-2014,U+2018-201a,U+201c-201e,U+2020,U+2022,U+2024-2026,U+2030,U+2039-203a,U+20ac,U+2122,U+2212;
}
@font-face {
  font-family: "Excalifont";
  src: url('/fonts/excalidraw/Excalifont/Excalifont-Regular-be310b9bcd4f1a43f571c46df7809174.woff2') format('woff2');
  unicode-range: U+100-130,U+132-137,U+139-149,U+14c-151,U+154-17e,U+192,U+1fc-1ff,U+218-21b,U+237,U+1e80-1e85,U+1ef2-1ef3,U+2113;
}
@font-face {
  font-family: "Excalifont";
  src: url('/fonts/excalidraw/Excalifont/Excalifont-Regular-b9dcf9d2e50a1eaf42fc664b50a3fd0d.woff2') format('woff2');
  unicode-range: U+400-45f,U+490-491,U+2116;
}
@font-face {
  font-family: "Excalifont";
  src: url('/fonts/excalidraw/Excalifont/Excalifont-Regular-41b173a47b57366892116a575a43e2b6.woff2') format('woff2');
  unicode-range: U+37e,U+384-38a,U+38c,U+38e-393,U+395-3a1,U+3a3-3a8,U+3aa-3cf,U+3d7;
}
@font-face {
  font-family: "Excalifont";
  src: url('/fonts/excalidraw/Excalifont/Excalifont-Regular-3f2c5db56cc93c5a6873b1361d730c16.woff2') format('woff2');
  unicode-range: U+2c7,U+2d8-2d9,U+2db,U+2dd,U+302,U+306-307,U+30a-30c,U+326-328,U+212e,U+2211,U+fb01-fb02;
}
@font-face {
  font-family: "Excalifont";
  src: url('/fonts/excalidraw/Excalifont/Excalifont-Regular-349fac6ca4700ffec595a7150a0d1e1d.woff2') format('woff2');
  unicode-range: U+462-463,U+472-475,U+4d8-4d9,U+4e2-4e3,U+4e6-4e9,U+4ee-4ef;
}
@font-face {
  font-family: "Excalifont";
  src: url('/fonts/excalidraw/Excalifont/Excalifont-Regular-623ccf21b21ef6b3a0d87738f77eb071.woff2') format('woff2');
  unicode-range: U+300-301,U+303;
}</style></defs><g filter="invert(93%) hue-rotate(180deg)"><g stroke-linecap="round" transform="translate(290 110) rotate(0 100 50)"><path d="M25 0 C55.2 0, 85.4 0, 175 0 C191.67 0, 200 8.33, 200 25 C200 37.15, 200 49.29, 200 75 C200 91.67, 191.67 100, 175 100 C120.87 100, 66.75 100, 25 100 C8.33 100, 0 91.67, 0 75 C0 57.46, 0 39.93, 0 25 C0 8.33, 8.33 0, 25 0" stroke="none" stroke-width="0" fill="#fff"/><path d="M25 0 C59.89 0, 94.78 0, 175 0 M25 0 C67.25 0, 109.49 0, 175 0 M175 0 C191.67 0, 200 8.33, 200 25 M175 0 C191.67 0, 200 8.33, 200 25 M200 25 C200 37.3, 200 49.59, 200 75 M200 25 C200 39.35, 200 53.7, 200 75 M200 75 C200 91.67, 191.67 100, 175 100 M200 75 C200 91.67, 191.67 100, 175 100 M175 100 C123.5 100, 71.99 100, 25 100 M175 100 C134.35 100, 93.71 100, 25 100 M25 100 C8.33 100, 0 91.67, 0 75 M25 100 C8.33 100, 0 91.67, 0 75 M0 75 C0 64.65, 0 54.3, 0 25 M0 75 C0 57.34, 0 39.67, 0 25 M0 25 C0 8.33, 8.33 0, 25 0 M0 25 C0 8.33, 8.33 0, 25 0" stroke="#e03131" stroke-width="1" fill="none"/></g><g stroke-linecap="round" transform="translate(10 10) rotate(0 100 100)"><path d="M32 0 C71.55 0, 111.11 0, 168 0 C189.33 0, 200 10.67, 200 32 C200 68.09, 200 104.18, 200 168 C200 189.33, 189.33 200, 168 200 C139.54 200, 111.08 200, 32 200 C10.67 200, 0 189.33, 0 168 C0 135.9, 0 103.8, 0 32 C0 10.67, 10.67 0, 32 0" stroke="none" stroke-width="0" fill="#fff"/><path d="M32 0 C65.36 0, 98.71 0, 168 0 M32 0 C76.03 0, 120.06 0, 168 0 M168 0 C189.33 0, 200 10.67, 200 32 M168 0 C189.33 0, 200 10.67, 200 32 M200 32 C200 82.8, 200 133.6, 200 168 M200 32 C200 79.5, 200 126.99, 200 168 M200 168 C200 189.33, 189.33 200, 168 200 M200 168 C200 189.33, 189.33 200, 168 200 M168 200 C118.57 200, 69.13 200, 32 200 M168 200 C129.78 200, 91.56 200, 32 200 M32 200 C10.67 200, 0 189.33, 0 168 M32 200 C10.67 200, 0 189.33, 0 168 M0 168 C0 121.15, 0 74.3, 0 32 M0 168 C0 122.4, 0 76.8, 0 32 M0 32 C0 10.67, 10.67 0, 32 0 M0 32 C0 10.67, 10.67 0, 32 0" stroke="#1971c2" stroke-width="4" fill="none"/></g><g transform="translate(68.9814453125 87.5) rotate(0 41.0185546875 22.5)"><text x="41.0185546875" y="34.344" font-family="Nunito, Segoe UI Emoji" font-size="36px" fill="#1971c2" text-anchor="middle" style="white-space: pre;" direction="ltr" dominant-baseline="alphabetic">Child</text></g><g stroke-linecap="round" transform="translate(610 10) rotate(0 100 100)"><path d="M32 0 C81.96 0, 131.91 0, 168 0 C189.33 0, 200 10.67, 200 32 C200 68.06, 200 104.12, 200 168 C200 189.33, 189.33 200, 168 200 C138.91 200, 109.82 200, 32 200 C10.67 200, 0 189.33, 0 168 C0 119.95, 0 71.9, 0 32 C0 10.67, 10.67 0, 32 0" stroke="none" stroke-width="0" fill="#ffffff"/><path d="M32 0 C78.96 0, 125.91 0, 168 0 M32 0 C61.15 0, 90.29 0, 168 0 M168 0 C189.33 0, 200 10.67, 200 32 M168 0 C189.33 0, 200 10.67, 200 32 M200 32 C200 82.84, 200 133.68, 200 168 M200 32 C200 74.86, 200 117.72, 200 168 M200 168 C200 189.33, 189.33 200, 168 200 M200 168 C200 189.33, 189.33 200, 168 200 M168 200 C125.35 200, 82.7 200, 32 200 M168 200 C137.54 200, 107.08 200, 32 200 M32 200 C10.67 200, 0 189.33, 0 168 M32 200 C10.67 200, 0 189.33, 0 168 M0 168 C0 116.02, 0 64.03, 0 32 M0 168 C0 133.17, 0 98.34, 0 32 M0 32 C0 10.67, 10.67 0, 32 0 M0 32 C0 10.67, 10.67 0, 32 0" stroke="#1971c2" stroke-width="4" fill="none"/></g><g transform="translate(656.966796875 87.5) rotate(0 53.033203125 22.5)"><text x="53.033203125" y="34.344" font-family="Nunito, Segoe UI Emoji" font-size="36px" fill="#1971c2" text-anchor="middle" style="white-space: pre;" direction="ltr" dominant-baseline="alphabetic">Parent</text></g><g transform="translate(506.97432955603153 46.159378410452746) rotate(0 27.2412109375 12.5)"><text x="0" y="17.5" font-family="Comic Shanns, Segoe UI Emoji" font-size="20px" fill="#2f9e44" text-anchor="start" style="white-space: pre;" direction="ltr" dominant-baseline="alphabetic">stdout</text></g><g transform="translate(508.24104806412106 126.12623377834268) rotate(0 25.5615234375 12.5)"><text x="0" y="17.5" font-family="Comic Shanns, Segoe UI Emoji" font-size="20px" fill="#e03131" text-anchor="start" style="white-space: pre;" direction="ltr" dominant-baseline="alphabetic">stderr</text></g><g transform="translate(423.5200671371231 184.19204723439532) rotate(0 26.1328125 12.5)"><text x="52.265625" y="17.5" font-family="Comic Shanns, Segoe UI Emoji" font-size="20px" fill="#e03131" text-anchor="end" style="white-space: pre;" direction="ltr" dominant-baseline="alphabetic">64 Kb</text></g><g stroke-linecap="round"><g transform="translate(211 70) rotate(0 199 0)"><path d="M0 0 C66.33 0, 331.67 0, 398 0 M0 0 C66.33 0, 331.67 0, 398 0" stroke="#2f9e44" stroke-width="2" fill="none"/></g><g transform="translate(211 70) rotate(0 199 0)"><path d="M398 0 L384.41 6.34 L384.41 -6.34 L398 0" stroke="none" stroke-width="0" fill="#2f9e44" fill-rule="evenodd"/><path d="M398 0 C393.56 2.07, 389.11 4.14, 384.41 6.34 M398 0 C395.01 1.39, 392.03 2.79, 384.41 6.34 M384.41 6.34 C384.41 1.44, 384.41 -3.47, 384.41 -6.34 M384.41 6.34 C384.41 2.14, 384.41 -2.05, 384.41 -6.34 M384.41 -6.34 C387.29 -4.99, 390.18 -3.65, 398 0 M384.41 -6.34 C388.32 -4.51, 392.24 -2.69, 398 0 M398 0 C398 0, 398 0, 398 0 M398 0 C398 0, 398 0, 398 0" stroke="#2f9e44" stroke-width="2" fill="none"/></g></g><mask/><g stroke-linecap="round"><g transform="translate(211 150) rotate(0 199 0)"><path d="M0 0 C66.33 0, 331.67 0, 398 0 M0 0 C66.33 0, 331.67 0, 398 0" stroke="#e03131" stroke-width="2" fill="none"/></g><g transform="translate(211 150) rotate(0 199 0)"><path d="M398 0 L384.41 6.34 L384.41 -6.34 L398 0" stroke="none" stroke-width="0" fill="#e03131" fill-rule="evenodd"/><path d="M398 0 C394.6 1.58, 391.2 3.17, 384.41 6.34 M398 0 C394.78 1.5, 391.56 3, 384.41 6.34 M384.41 6.34 C384.41 1.91, 384.41 -2.51, 384.41 -6.34 M384.41 6.34 C384.41 2.63, 384.41 -1.08, 384.41 -6.34 M384.41 -6.34 C389.71 -3.86, 395.02 -1.39, 398 0 M384.41 -6.34 C388.87 -4.26, 393.33 -2.18, 398 0 M398 0 C398 0, 398 0, 398 0 M398 0 C398 0, 398 0, 398 0" stroke="#e03131" stroke-width="2" fill="none"/></g></g><mask/><g stroke-linecap="round" transform="translate(310 130) rotate(0 8.14454702112539 20)"><path d="M4.07 0 C7.08 0, 10.09 0, 12.22 0 C14.93 0, 16.29 1.36, 16.29 4.07 C16.29 14.31, 16.29 24.55, 16.29 35.93 C16.29 38.64, 14.93 40, 12.22 40 C9.37 40, 6.53 40, 4.07 40 C1.36 40, 0 38.64, 0 35.93 C0 25.06, 0 14.18, 0 4.07 C0 1.36, 1.36 0, 4.07 0" stroke="none" stroke-width="0" fill="#fff"/><path d="M4.07 0 C6.84 0, 9.6 0, 12.22 0 M4.07 0 C6.37 0, 8.66 0, 12.22 0 M12.22 0 C14.93 0, 16.29 1.36, 16.29 4.07 M12.22 0 C14.93 0, 16.29 1.36, 16.29 4.07 M16.29 4.07 C16.29 16.37, 16.29 28.68, 16.29 35.93 M16.29 4.07 C16.29 11.22, 16.29 18.36, 16.29 35.93 M16.29 35.93 C16.29 38.64, 14.93 40, 12.22 40 M16.29 35.93 C16.29 38.64, 14.93 40, 12.22 40 M12.22 40 C9.59 40, 6.97 40, 4.07 40 M12.22 40 C9.68 40, 7.15 40, 4.07 40 M4.07 40 C1.36 40, 0 38.64, 0 35.93 M4.07 40 C1.36 40, 0 38.64, 0 35.93 M0 35.93 C0 23.21, 0 10.49, 0 4.07 M0 35.93 C0 23.39, 0 10.86, 0 4.07 M0 4.07 C0 1.36, 1.36 0, 4.07 0 M0 4.07 C0 1.36, 1.36 0, 4.07 0" stroke="#e03131" stroke-width="2" fill="none"/></g><g transform="translate(155.4309743455765 242.55432687318944) rotate(0 102.255859375 25)"><text x="0" y="17.619999999999997" font-family="Excalifont, Xiaolai, Segoe UI Emoji" font-size="20px" fill="#868e96" text-anchor="start" style="white-space: pre;" direction="ltr" dominant-baseline="alphabetic">Child process can't </text><text x="0" y="42.62" font-family="Excalifont, Xiaolai, Segoe UI Emoji" font-size="20px" fill="#868e96" text-anchor="start" style="white-space: pre;" direction="ltr" dominant-baseline="alphabetic">write to stderr anymore</text></g><g stroke-linecap="round"><g transform="translate(228.95345550460843 242.19924062676) rotate(0 9.600820985565178 -35.872622470320664)"><path d="M0 0 C-0.33 -6.14, -5.53 -24.9, -2 -36.86 C1.53 -48.82, 17.33 -65.93, 21.2 -71.75 M0 0 C-0.33 -6.14, -5.53 -24.9, -2 -36.86 C1.53 -48.82, 17.33 -65.93, 21.2 -71.75" stroke="#868e96" stroke-width="1" fill="none"/></g><g transform="translate(228.95345550460843 242.19924062676) rotate(0 9.600820985565178 -35.872622470320664)"><path d="M14.85 -51.78 C17.13 -58.97, 19.42 -66.15, 21.2 -71.75 M14.85 -51.78 C16.89 -58.18, 18.92 -64.58, 21.2 -71.75" stroke="#868e96" stroke-width="1" fill="none"/></g><g transform="translate(228.95345550460843 242.19924062676) rotate(0 9.600820985565178 -35.872622470320664)"><path d="M3.5 -60.54 C9.87 -64.57, 16.24 -68.6, 21.2 -71.75 M3.5 -60.54 C9.18 -64.13, 14.85 -67.72, 21.2 -71.75" stroke="#868e96" stroke-width="1" fill="none"/></g></g><mask/><g stroke-linecap="round" transform="translate(330 130) rotate(0 8.14454702112539 20)"><path d="M4.07 0 C6.16 0, 8.24 0, 12.22 0 C14.93 0, 16.29 1.36, 16.29 4.07 C16.29 16.02, 16.29 27.96, 16.29 35.93 C16.29 38.64, 14.93 40, 12.22 40 C9.97 40, 7.72 40, 4.07 40 C1.36 40, 0 38.64, 0 35.93 C0 26.9, 0 17.87, 0 4.07 C0 1.36, 1.36 0, 4.07 0" stroke="none" stroke-width="0" fill="#fff"/><path d="M4.07 0 C6.17 0, 8.26 0, 12.22 0 M4.07 0 C7.25 0, 10.44 0, 12.22 0 M12.22 0 C14.93 0, 16.29 1.36, 16.29 4.07 M12.22 0 C14.93 0, 16.29 1.36, 16.29 4.07 M16.29 4.07 C16.29 16.12, 16.29 28.16, 16.29 35.93 M16.29 4.07 C16.29 10.83, 16.29 17.58, 16.29 35.93 M16.29 35.93 C16.29 38.64, 14.93 40, 12.22 40 M16.29 35.93 C16.29 38.64, 14.93 40, 12.22 40 M12.22 40 C9.8 40, 7.39 40, 4.07 40 M12.22 40 C9.23 40, 6.24 40, 4.07 40 M4.07 40 C1.36 40, 0 38.64, 0 35.93 M4.07 40 C1.36 40, 0 38.64, 0 35.93 M0 35.93 C0 28.28, 0 20.64, 0 4.07 M0 35.93 C0 24.51, 0 13.1, 0 4.07 M0 4.07 C0 1.36, 1.36 0, 4.07 0 M0 4.07 C0 1.36, 1.36 0, 4.07 0" stroke="#e03131" stroke-width="2" fill="none"/></g><g stroke-linecap="round" transform="translate(350 130) rotate(0 8.14454702112539 20)"><path d="M4.07 0 C6.35 0, 8.63 0, 12.22 0 C14.93 0, 16.29 1.36, 16.29 4.07 C16.29 16.52, 16.29 28.96, 16.29 35.93 C16.29 38.64, 14.93 40, 12.22 40 C9.08 40, 5.94 40, 4.07 40 C1.36 40, 0 38.64, 0 35.93 C0 27.92, 0 19.91, 0 4.07 C0 1.36, 1.36 0, 4.07 0" stroke="none" stroke-width="0" fill="#fff"/><path d="M4.07 0 C6.85 0, 9.63 0, 12.22 0 M4.07 0 C6.54 0, 9 0, 12.22 0 M12.22 0 C14.93 0, 16.29 1.36, 16.29 4.07 M12.22 0 C14.93 0, 16.29 1.36, 16.29 4.07 M16.29 4.07 C16.29 13, 16.29 21.93, 16.29 35.93 M16.29 4.07 C16.29 12.36, 16.29 20.64, 16.29 35.93 M16.29 35.93 C16.29 38.64, 14.93 40, 12.22 40 M16.29 35.93 C16.29 38.64, 14.93 40, 12.22 40 M12.22 40 C9.46 40, 6.71 40, 4.07 40 M12.22 40 C9.05 40, 5.87 40, 4.07 40 M4.07 40 C1.36 40, 0 38.64, 0 35.93 M4.07 40 C1.36 40, 0 38.64, 0 35.93 M0 35.93 C0 28.54, 0 21.15, 0 4.07 M0 35.93 C0 27.61, 0 19.3, 0 4.07 M0 4.07 C0 1.36, 1.36 0, 4.07 0 M0 4.07 C0 1.36, 1.36 0, 4.07 0" stroke="#e03131" stroke-width="2" fill="none"/></g><g stroke-linecap="round" transform="translate(290 50) rotate(0 8.14454702112539 20)"><path d="M4.07 0 C6.64 0, 9.21 0, 12.22 0 C14.93 0, 16.29 1.36, 16.29 4.07 C16.29 15.8, 16.29 27.53, 16.29 35.93 C16.29 38.64, 14.93 40, 12.22 40 C10.26 40, 8.3 40, 4.07 40 C1.36 40, 0 38.64, 0 35.93 C0 29.08, 0 22.24, 0 4.07 C0 1.36, 1.36 0, 4.07 0" stroke="none" stroke-width="0" fill="#b2f2bb"/><path d="M4.07 0 C6.07 0, 8.06 0, 12.22 0 M4.07 0 C6.95 0, 9.82 0, 12.22 0 M12.22 0 C14.93 0, 16.29 1.36, 16.29 4.07 M12.22 0 C14.93 0, 16.29 1.36, 16.29 4.07 M16.29 4.07 C16.29 14.37, 16.29 24.66, 16.29 35.93 M16.29 4.07 C16.29 14.74, 16.29 25.4, 16.29 35.93 M16.29 35.93 C16.29 38.64, 14.93 40, 12.22 40 M16.29 35.93 C16.29 38.64, 14.93 40, 12.22 40 M12.22 40 C9.25 40, 6.29 40, 4.07 40 M12.22 40 C9.65 40, 7.08 40, 4.07 40 M4.07 40 C1.36 40, 0 38.64, 0 35.93 M4.07 40 C1.36 40, 0 38.64, 0 35.93 M0 35.93 C0 28.06, 0 20.2, 0 4.07 M0 35.93 C0 24.47, 0 13.01, 0 4.07 M0 4.07 C0 1.36, 1.36 0, 4.07 0 M0 4.07 C0 1.36, 1.36 0, 4.07 0" stroke="#2f9e44" stroke-width="2" fill="none"/></g><g stroke-linecap="round" transform="translate(250 130) rotate(0 8.14454702112539 20)"><path d="M4.07 0 C6.92 0, 9.76 0, 12.22 0 C14.93 0, 16.29 1.36, 16.29 4.07 C16.29 15.56, 16.29 27.05, 16.29 35.93 C16.29 38.64, 14.93 40, 12.22 40 C10 40, 7.78 40, 4.07 40 C1.36 40, 0 38.64, 0 35.93 C0 25.36, 0 14.8, 0 4.07 C0 1.36, 1.36 0, 4.07 0" stroke="none" stroke-width="0" fill="#fff"/><path d="M4.07 0 C5.91 0, 7.75 0, 12.22 0 M4.07 0 C7.19 0, 10.3 0, 12.22 0 M12.22 0 C14.93 0, 16.29 1.36, 16.29 4.07 M12.22 0 C14.93 0, 16.29 1.36, 16.29 4.07 M16.29 4.07 C16.29 10.98, 16.29 17.89, 16.29 35.93 M16.29 4.07 C16.29 10.79, 16.29 17.52, 16.29 35.93 M16.29 35.93 C16.29 38.64, 14.93 40, 12.22 40 M16.29 35.93 C16.29 38.64, 14.93 40, 12.22 40 M12.22 40 C10.29 40, 8.36 40, 4.07 40 M12.22 40 C9.26 40, 6.3 40, 4.07 40 M4.07 40 C1.36 40, 0 38.64, 0 35.93 M4.07 40 C1.36 40, 0 38.64, 0 35.93 M0 35.93 C0 23.99, 0 12.05, 0 4.07 M0 35.93 C0 28.95, 0 21.96, 0 4.07 M0 4.07 C0 1.36, 1.36 0, 4.07 0 M0 4.07 C0 1.36, 1.36 0, 4.07 0" stroke="#e03131" stroke-width="2" fill="none"/></g><g stroke-linecap="round" transform="translate(250 130) rotate(0 8.14454702112539 20)"><path d="M1.08 0.94 C1.08 0.94, 1.08 0.94, 1.08 0.94 M1.08 0.94 C1.08 0.94, 1.08 0.94, 1.08 0.94 M0.56 13.74 C4.62 9.07, 8.68 4.39, 12.37 0.15 M0.56 13.74 C3.3 10.59, 6.04 7.44, 12.37 0.15 M0.69 25.78 C4.8 21.05, 8.91 16.32, 16.44 7.67 M0.69 25.78 C6.27 19.37, 11.84 12.96, 16.44 7.67 M0.83 37.82 C4.2 33.94, 7.57 30.06, 16.57 19.71 M0.83 37.82 C4.73 33.33, 8.63 28.85, 16.57 19.71 M9.49 40.05 C12 37.16, 14.51 34.27, 16.71 31.75 M9.49 40.05 C10.96 38.35, 12.44 36.66, 16.71 31.75 M2.44 39.87 C2.44 39.87, 2.44 39.87, 2.44 39.87 M2.44 39.87 C2.44 39.87, 2.44 39.87, 2.44 39.87 M14.48 39.74 C10.67 36.43, 6.86 33.12, 0.89 27.93 M14.48 39.74 C9.5 35.41, 4.51 31.08, 0.89 27.93 M16.71 31.08 C11.98 26.97, 7.26 22.86, 0.86 17.3 M16.71 31.08 C11.69 26.71, 6.66 22.35, 0.86 17.3 M16.67 20.45 C12.07 16.44, 7.46 12.44, 0.83 6.67 M16.67 20.45 C10.94 15.46, 5.2 10.47, 0.83 6.67 M16.64 9.82 C14.21 7.71, 11.78 5.59, 4.56 -0.68 M16.64 9.82 C11.97 5.76, 7.31 1.71, 4.56 -0.68" stroke="#ffc9c9" stroke-width="1" fill="none"/><path d="M4.07 0 C6.46 0, 8.84 0, 12.22 0 M4.07 0 C5.91 0, 7.76 0, 12.22 0 M12.22 0 C14.93 0, 16.29 1.36, 16.29 4.07 M12.22 0 C14.93 0, 16.29 1.36, 16.29 4.07 M16.29 4.07 C16.29 13.69, 16.29 23.31, 16.29 35.93 M16.29 4.07 C16.29 15.73, 16.29 27.4, 16.29 35.93 M16.29 35.93 C16.29 38.64, 14.93 40, 12.22 40 M16.29 35.93 C16.29 38.64, 14.93 40, 12.22 40 M12.22 40 C9.29 40, 6.36 40, 4.07 40 M12.22 40 C9.93 40, 7.64 40, 4.07 40 M4.07 40 C1.36 40, 0 38.64, 0 35.93 M4.07 40 C1.36 40, 0 38.64, 0 35.93 M0 35.93 C0 28.14, 0 20.35, 0 4.07 M0 35.93 C0 28.4, 0 20.87, 0 4.07 M0 4.07 C0 1.36, 1.36 0, 4.07 0 M0 4.07 C0 1.36, 1.36 0, 4.07 0" stroke="#e03131" stroke-width="2" fill="none"/></g><g stroke-linecap="round" transform="translate(370 50) rotate(0 8.14454702112539 20)"><path d="M4.07 0 C7.07 0, 10.07 0, 12.22 0 C14.93 0, 16.29 1.36, 16.29 4.07 C16.29 15.83, 16.29 27.58, 16.29 35.93 C16.29 38.64, 14.93 40, 12.22 40 C10.38 40, 8.54 40, 4.07 40 C1.36 40, 0 38.64, 0 35.93 C0 25.25, 0 14.57, 0 4.07 C0 1.36, 1.36 0, 4.07 0" stroke="none" stroke-width="0" fill="#b2f2bb"/><path d="M4.07 0 C6.58 0, 9.09 0, 12.22 0 M4.07 0 C7.1 0, 10.12 0, 12.22 0 M12.22 0 C14.93 0, 16.29 1.36, 16.29 4.07 M12.22 0 C14.93 0, 16.29 1.36, 16.29 4.07 M16.29 4.07 C16.29 16.12, 16.29 28.16, 16.29 35.93 M16.29 4.07 C16.29 16.59, 16.29 29.11, 16.29 35.93 M16.29 35.93 C16.29 38.64, 14.93 40, 12.22 40 M16.29 35.93 C16.29 38.64, 14.93 40, 12.22 40 M12.22 40 C9.75 40, 7.28 40, 4.07 40 M12.22 40 C10.15 40, 8.09 40, 4.07 40 M4.07 40 C1.36 40, 0 38.64, 0 35.93 M4.07 40 C1.36 40, 0 38.64, 0 35.93 M0 35.93 C0 25.32, 0 14.71, 0 4.07 M0 35.93 C0 28.59, 0 21.26, 0 4.07 M0 4.07 C0 1.36, 1.36 0, 4.07 0 M0 4.07 C0 1.36, 1.36 0, 4.07 0" stroke="#2f9e44" stroke-width="2" fill="none"/></g><g stroke-linecap="round" transform="translate(390 130) rotate(0 8.14454702112539 20)"><path d="M4.07 0 C5.95 0, 7.82 0, 12.22 0 C14.93 0, 16.29 1.36, 16.29 4.07 C16.29 13.34, 16.29 22.6, 16.29 35.93 C16.29 38.64, 14.93 40, 12.22 40 C10.4 40, 8.59 40, 4.07 40 C1.36 40, 0 38.64, 0 35.93 C0 28.81, 0 21.7, 0 4.07 C0 1.36, 1.36 0, 4.07 0" stroke="none" stroke-width="0" fill="#fff"/><path d="M4.07 0 C7.32 0, 10.57 0, 12.22 0 M4.07 0 C5.96 0, 7.85 0, 12.22 0 M12.22 0 C14.93 0, 16.29 1.36, 16.29 4.07 M12.22 0 C14.93 0, 16.29 1.36, 16.29 4.07 M16.29 4.07 C16.29 14.46, 16.29 24.85, 16.29 35.93 M16.29 4.07 C16.29 16.53, 16.29 28.98, 16.29 35.93 M16.29 35.93 C16.29 38.64, 14.93 40, 12.22 40 M16.29 35.93 C16.29 38.64, 14.93 40, 12.22 40 M12.22 40 C9 40, 5.79 40, 4.07 40 M12.22 40 C9.36 40, 6.51 40, 4.07 40 M4.07 40 C1.36 40, 0 38.64, 0 35.93 M4.07 40 C1.36 40, 0 38.64, 0 35.93 M0 35.93 C0 25.39, 0 14.85, 0 4.07 M0 35.93 C0 25.14, 0 14.35, 0 4.07 M0 4.07 C0 1.36, 1.36 0, 4.07 0 M0 4.07 C0 1.36, 1.36 0, 4.07 0" stroke="#e03131" stroke-width="2" fill="none"/></g><g stroke-linecap="round" transform="translate(410 130) rotate(0 8.14454702112539 20)"><path d="M4.07 0 C6.12 0, 8.17 0, 12.22 0 C14.93 0, 16.29 1.36, 16.29 4.07 C16.29 14.4, 16.29 24.73, 16.29 35.93 C16.29 38.64, 14.93 40, 12.22 40 C9.79 40, 7.36 40, 4.07 40 C1.36 40, 0 38.64, 0 35.93 C0 25.6, 0 15.26, 0 4.07 C0 1.36, 1.36 0, 4.07 0" stroke="none" stroke-width="0" fill="#fff"/><path d="M4.07 0 C6.79 0, 9.51 0, 12.22 0 M4.07 0 C5.93 0, 7.78 0, 12.22 0 M12.22 0 C14.93 0, 16.29 1.36, 16.29 4.07 M12.22 0 C14.93 0, 16.29 1.36, 16.29 4.07 M16.29 4.07 C16.29 16.56, 16.29 29.05, 16.29 35.93 M16.29 4.07 C16.29 15.76, 16.29 27.45, 16.29 35.93 M16.29 35.93 C16.29 38.64, 14.93 40, 12.22 40 M16.29 35.93 C16.29 38.64, 14.93 40, 12.22 40 M12.22 40 C10.58 40, 8.94 40, 4.07 40 M12.22 40 C9.78 40, 7.34 40, 4.07 40 M4.07 40 C1.36 40, 0 38.64, 0 35.93 M4.07 40 C1.36 40, 0 38.64, 0 35.93 M0 35.93 C0 23.48, 0 11.04, 0 4.07 M0 35.93 C0 24.46, 0 12.98, 0 4.07 M0 4.07 C0 1.36, 1.36 0, 4.07 0 M0 4.07 C0 1.36, 1.36 0, 4.07 0" stroke="#e03131" stroke-width="2" fill="none"/></g><g stroke-linecap="round" transform="translate(450 130) rotate(0 8.14454702112539 20)"><path d="M4.07 0 C5.96 0, 7.85 0, 12.22 0 C14.93 0, 16.29 1.36, 16.29 4.07 C16.29 10.47, 16.29 16.87, 16.29 35.93 C16.29 38.64, 14.93 40, 12.22 40 C9.94 40, 7.66 40, 4.07 40 C1.36 40, 0 38.64, 0 35.93 C0 23.48, 0 11.04, 0 4.07 C0 1.36, 1.36 0, 4.07 0" stroke="none" stroke-width="0" fill="#fff"/><path d="M4.07 0 C6.69 0, 9.31 0, 12.22 0 M4.07 0 C6.36 0, 8.65 0, 12.22 0 M12.22 0 C14.93 0, 16.29 1.36, 16.29 4.07 M12.22 0 C14.93 0, 16.29 1.36, 16.29 4.07 M16.29 4.07 C16.29 14.94, 16.29 25.82, 16.29 35.93 M16.29 4.07 C16.29 13.71, 16.29 23.35, 16.29 35.93 M16.29 35.93 C16.29 38.64, 14.93 40, 12.22 40 M16.29 35.93 C16.29 38.64, 14.93 40, 12.22 40 M12.22 40 C9.93 40, 7.65 40, 4.07 40 M12.22 40 C10.1 40, 7.98 40, 4.07 40 M4.07 40 C1.36 40, 0 38.64, 0 35.93 M4.07 40 C1.36 40, 0 38.64, 0 35.93 M0 35.93 C0 25.15, 0 14.38, 0 4.07 M0 35.93 C0 23.52, 0 11.12, 0 4.07 M0 4.07 C0 1.36, 1.36 0, 4.07 0 M0 4.07 C0 1.36, 1.36 0, 4.07 0" stroke="#e03131" stroke-width="2" fill="none"/></g><g stroke-linecap="round" transform="translate(430 50) rotate(0 8.14454702112539 20)"><path d="M4.07 0 C6.65 0, 9.22 0, 12.22 0 C14.93 0, 16.29 1.36, 16.29 4.07 C16.29 11.21, 16.29 18.35, 16.29 35.93 C16.29 38.64, 14.93 40, 12.22 40 C9.86 40, 7.5 40, 4.07 40 C1.36 40, 0 38.64, 0 35.93 C0 25.69, 0 15.46, 0 4.07 C0 1.36, 1.36 0, 4.07 0" stroke="none" stroke-width="0" fill="#b2f2bb"/><path d="M4.07 0 C5.96 0, 7.85 0, 12.22 0 M4.07 0 C6.19 0, 8.31 0, 12.22 0 M12.22 0 C14.93 0, 16.29 1.36, 16.29 4.07 M12.22 0 C14.93 0, 16.29 1.36, 16.29 4.07 M16.29 4.07 C16.29 12.72, 16.29 21.36, 16.29 35.93 M16.29 4.07 C16.29 15.37, 16.29 26.67, 16.29 35.93 M16.29 35.93 C16.29 38.64, 14.93 40, 12.22 40 M16.29 35.93 C16.29 38.64, 14.93 40, 12.22 40 M12.22 40 C9.45 40, 6.68 40, 4.07 40 M12.22 40 C9.56 40, 6.9 40, 4.07 40 M4.07 40 C1.36 40, 0 38.64, 0 35.93 M4.07 40 C1.36 40, 0 38.64, 0 35.93 M0 35.93 C0 24.36, 0 12.79, 0 4.07 M0 35.93 C0 23.89, 0 11.86, 0 4.07 M0 4.07 C0 1.36, 1.36 0, 4.07 0 M0 4.07 C0 1.36, 1.36 0, 4.07 0" stroke="#2f9e44" stroke-width="2" fill="none"/></g><g stroke-linecap="round" transform="translate(270 50) rotate(0 8.14454702112539 20)"><path d="M4.07 0 C6.36 0, 8.65 0, 12.22 0 C14.93 0, 16.29 1.36, 16.29 4.07 C16.29 13.55, 16.29 23.03, 16.29 35.93 C16.29 38.64, 14.93 40, 12.22 40 C9.75 40, 7.29 40, 4.07 40 C1.36 40, 0 38.64, 0 35.93 C0 25.57, 0 15.22, 0 4.07 C0 1.36, 1.36 0, 4.07 0" stroke="none" stroke-width="0" fill="#b2f2bb"/><path d="M4.07 0 C6.22 0, 8.37 0, 12.22 0 M4.07 0 C6.3 0, 8.54 0, 12.22 0 M12.22 0 C14.93 0, 16.29 1.36, 16.29 4.07 M12.22 0 C14.93 0, 16.29 1.36, 16.29 4.07 M16.29 4.07 C16.29 10.75, 16.29 17.43, 16.29 35.93 M16.29 4.07 C16.29 13.06, 16.29 22.06, 16.29 35.93 M16.29 35.93 C16.29 38.64, 14.93 40, 12.22 40 M16.29 35.93 C16.29 38.64, 14.93 40, 12.22 40 M12.22 40 C9.94 40, 7.66 40, 4.07 40 M12.22 40 C9.22 40, 6.23 40, 4.07 40 M4.07 40 C1.36 40, 0 38.64, 0 35.93 M4.07 40 C1.36 40, 0 38.64, 0 35.93 M0 35.93 C0 28.66, 0 21.4, 0 4.07 M0 35.93 C0 27.63, 0 19.32, 0 4.07 M0 4.07 C0 1.36, 1.36 0, 4.07 0 M0 4.07 C0 1.36, 1.36 0, 4.07 0" stroke="#2f9e44" stroke-width="2" fill="none"/></g><g stroke-linecap="round" transform="translate(470 50) rotate(0 8.14454702112539 20)"><path d="M4.07 0 C6.85 0, 9.63 0, 12.22 0 C14.93 0, 16.29 1.36, 16.29 4.07 C16.29 12.44, 16.29 20.81, 16.29 35.93 C16.29 38.64, 14.93 40, 12.22 40 C9.71 40, 7.2 40, 4.07 40 C1.36 40, 0 38.64, 0 35.93 C0 27.81, 0 19.69, 0 4.07 C0 1.36, 1.36 0, 4.07 0" stroke="none" stroke-width="0" fill="#b2f2bb"/><path d="M4.07 0 C6.9 0, 9.72 0, 12.22 0 M4.07 0 C6.29 0, 8.51 0, 12.22 0 M12.22 0 C14.93 0, 16.29 1.36, 16.29 4.07 M12.22 0 C14.93 0, 16.29 1.36, 16.29 4.07 M16.29 4.07 C16.29 14.13, 16.29 24.18, 16.29 35.93 M16.29 4.07 C16.29 16.66, 16.29 29.25, 16.29 35.93 M16.29 35.93 C16.29 38.64, 14.93 40, 12.22 40 M16.29 35.93 C16.29 38.64, 14.93 40, 12.22 40 M12.22 40 C9.98 40, 7.75 40, 4.07 40 M12.22 40 C9.28 40, 6.34 40, 4.07 40 M4.07 40 C1.36 40, 0 38.64, 0 35.93 M4.07 40 C1.36 40, 0 38.64, 0 35.93 M0 35.93 C0 29.24, 0 22.55, 0 4.07 M0 35.93 C0 26.11, 0 16.3, 0 4.07 M0 4.07 C0 1.36, 1.36 0, 4.07 0 M0 4.07 C0 1.36, 1.36 0, 4.07 0" stroke="#2f9e44" stroke-width="2" fill="none"/></g></g></svg>