<svg version="1.1" xmlns="http://www.w3.org/2000/svg" viewBox="0 0 820 307.27223337111093" width="1640" height="614.5444667422219">
  <!-- svg-source:excalidraw -->
  
  <defs>
    <style class="style-fonts">
    </style>
    
  </defs>
  <g stroke-linecap="round" transform="translate(310 110) rotate(0 100 50)"><path d="M25 0 C55.2 0, 85.4 0, 175 0 C191.67 0, 200 8.33, 200 25 C200 37.15, 200 49.29, 200 75 C200 91.67, 191.67 100, 175 100 C120.87 100, 66.75 100, 25 100 C8.33 100, 0 91.67, 0 75 C0 57.46, 0 39.93, 0 25 C0 8.33, 8.33 0, 25 0" stroke="none" stroke-width="0" fill="#fff"></path><path d="M25 0 C59.89 0, 94.78 0, 175 0 M25 0 C67.25 0, 109.49 0, 175 0 M175 0 C191.67 0, 200 8.33, 200 25 M175 0 C191.67 0, 200 8.33, 200 25 M200 25 C200 37.3, 200 49.59, 200 75 M200 25 C200 39.35, 200 53.7, 200 75 M200 75 C200 91.67, 191.67 100, 175 100 M200 75 C200 91.67, 191.67 100, 175 100 M175 100 C123.5 100, 71.99 100, 25 100 M175 100 C134.35 100, 93.71 100, 25 100 M25 100 C8.33 100, 0 91.67, 0 75 M25 100 C8.33 100, 0 91.67, 0 75 M0 75 C0 64.65, 0 54.3, 0 25 M0 75 C0 57.34, 0 39.67, 0 25 M0 25 C0 8.33, 8.33 0, 25 0 M0 25 C0 8.33, 8.33 0, 25 0" stroke="#e03131" stroke-width="1" fill="none"></path></g><g stroke-linecap="round" transform="translate(10 10) rotate(0 100 100)"><path d="M32 0 C65.36 0, 98.71 0, 168 0 M32 0 C76.03 0, 120.06 0, 168 0 M168 0 C189.33 0, 200 10.67, 200 32 M168 0 C189.33 0, 200 10.67, 200 32 M200 32 C200 82.8, 200 133.6, 200 168 M200 32 C200 79.5, 200 126.99, 200 168 M200 168 C200 189.33, 189.33 200, 168 200 M200 168 C200 189.33, 189.33 200, 168 200 M168 200 C118.57 200, 69.13 200, 32 200 M168 200 C129.78 200, 91.56 200, 32 200 M32 200 C10.67 200, 0 189.33, 0 168 M32 200 C10.67 200, 0 189.33, 0 168 M0 168 C0 121.15, 0 74.3, 0 32 M0 168 C0 122.4, 0 76.8, 0 32 M0 32 C0 10.67, 10.67 0, 32 0 M0 32 C0 10.67, 10.67 0, 32 0" stroke="#1971c2" stroke-width="4" fill="none"></path></g><g transform="translate(63.768775939941406 81.9165783594641) rotate(0 46.231224060058594 28.083421640535903)"><text x="46.231224060058594" y="0" font-family="Segoe UI Emoji" font-size="41.60506909709019px" fill="#1971c2" text-anchor="middle" style="white-space: pre;" direction="ltr" dominant-baseline="text-before-edge">Child</text></g><g stroke-linecap="round" transform="translate(610 10) rotate(0 100 100)"><path d="M32 0 C78.96 0, 125.91 0, 168 0 M32 0 C61.15 0, 90.29 0, 168 0 M168 0 C189.33 0, 200 10.67, 200 32 M168 0 C189.33 0, 200 10.67, 200 32 M200 32 C200 82.84, 200 133.68, 200 168 M200 32 C200 74.86, 200 117.72, 200 168 M200 168 C200 189.33, 189.33 200, 168 200 M200 168 C200 189.33, 189.33 200, 168 200 M168 200 C125.35 200, 82.7 200, 32 200 M168 200 C137.54 200, 107.08 200, 32 200 M32 200 C10.67 200, 0 189.33, 0 168 M32 200 C10.67 200, 0 189.33, 0 168 M0 168 C0 116.02, 0 64.03, 0 32 M0 168 C0 133.17, 0 98.34, 0 32 M0 32 C0 10.67, 10.67 0, 32 0 M0 32 C0 10.67, 10.67 0, 32 0" stroke="#1971c2" stroke-width="4" fill="none"></path></g><g transform="translate(656.8625335693359 81.9165783594641) rotate(0 53.13746643066406 28.083421640535903)"><text x="53.13746643066406" y="0" font-family="Segoe UI Emoji" font-size="41.60506909709019px" fill="#1971c2" text-anchor="middle" style="white-space: pre;" direction="ltr" dominant-baseline="text-before-edge">Parent</text></g><g transform="translate(521.9576090481778 42.5514259836973) rotate(0 29.062023014666693 14.858953248960802)"><text x="0" y="0" font-family="Segoe UI Emoji" font-size="23.774325198337248px" fill="#2f9e44" text-anchor="start" style="white-space: pre;" direction="ltr" dominant-baseline="text-before-edge">stdout</text></g><g transform="translate(523.0826315737781 122.70139008942022) rotate(0 27.06535117183762 14.858953248960802)"><text x="0" y="0" font-family="Segoe UI Emoji" font-size="23.774325198337248px" fill="#e03131" text-anchor="start" style="white-space: pre;" direction="ltr" dominant-baseline="text-before-edge">stderr</text></g><g transform="translate(436.4888554157583 176.96858836536342) rotate(0 29.387062616987578 14.858953248960802)"><text x="58.77412523397533" y="0" font-family="Segoe UI Emoji" font-size="23.774325198337248px" fill="#e03131" text-anchor="end" style="white-space: pre;" direction="ltr" dominant-baseline="text-before-edge">64 Kb</text></g><g stroke-linecap="round"><g transform="translate(210 70) rotate(0 200 0)"><path d="M0 0 C66.67 0, 333.33 0, 400 0 M0 0 C66.67 0, 333.33 0, 400 0" stroke="#2f9e44" stroke-width="2" fill="none"></path></g><g transform="translate(210 70) rotate(0 200 0)"><path d="M400 0 L386.41 6.34 L386.41 -6.34 L400 0" stroke="none" stroke-width="0" fill="#2f9e44" fill-rule="evenodd"></path><path d="M400 0 C395.56 2.07, 391.11 4.14, 386.41 6.34 M400 0 C397.01 1.39, 394.03 2.79, 386.41 6.34 M386.41 6.34 C386.41 1.44, 386.41 -3.47, 386.41 -6.34 M386.41 6.34 C386.41 2.14, 386.41 -2.05, 386.41 -6.34 M386.41 -6.34 C389.29 -4.99, 392.18 -3.65, 400 0 M386.41 -6.34 C390.32 -4.51, 394.24 -2.69, 400 0 M400 0 C400 0, 400 0, 400 0 M400 0 C400 0, 400 0, 400 0" stroke="#2f9e44" stroke-width="2" fill="none"></path></g></g><mask></mask><g stroke-linecap="round"><g transform="translate(210 150) rotate(0 200 0)"><path d="M0 0 C66.67 0, 333.33 0, 400 0 M0 0 C66.67 0, 333.33 0, 400 0" stroke="#e03131" stroke-width="2" fill="none"></path></g><g transform="translate(210 150) rotate(0 200 0)"><path d="M400 0 L386.41 6.34 L386.41 -6.34 L400 0" stroke="none" stroke-width="0" fill="#e03131" fill-rule="evenodd"></path><path d="M400 0 C396.6 1.58, 393.2 3.17, 386.41 6.34 M400 0 C396.78 1.5, 393.56 3, 386.41 6.34 M386.41 6.34 C386.41 1.91, 386.41 -2.51, 386.41 -6.34 M386.41 6.34 C386.41 2.63, 386.41 -1.08, 386.41 -6.34 M386.41 -6.34 C391.71 -3.86, 397.02 -1.39, 400 0 M386.41 -6.34 C390.87 -4.26, 395.33 -2.18, 400 0 M400 0 C400 0, 400 0, 400 0 M400 0 C400 0, 400 0, 400 0" stroke="#e03131" stroke-width="2" fill="none"></path></g></g><mask></mask><g stroke-linecap="round" transform="translate(330 130) rotate(0 8.14454702112539 20)"><path d="M4.07 0 C7.08 0, 10.09 0, 12.22 0 C14.93 0, 16.29 1.36, 16.29 4.07 C16.29 14.31, 16.29 24.55, 16.29 35.93 C16.29 38.64, 14.93 40, 12.22 40 C9.37 40, 6.53 40, 4.07 40 C1.36 40, 0 38.64, 0 35.93 C0 25.06, 0 14.18, 0 4.07 C0 1.36, 1.36 0, 4.07 0" stroke="none" stroke-width="0" fill="#fff"></path><path d="M4.07 0 C6.84 0, 9.6 0, 12.22 0 M4.07 0 C6.37 0, 8.66 0, 12.22 0 M12.22 0 C14.93 0, 16.29 1.36, 16.29 4.07 M12.22 0 C14.93 0, 16.29 1.36, 16.29 4.07 M16.29 4.07 C16.29 16.37, 16.29 28.68, 16.29 35.93 M16.29 4.07 C16.29 11.22, 16.29 18.36, 16.29 35.93 M16.29 35.93 C16.29 38.64, 14.93 40, 12.22 40 M16.29 35.93 C16.29 38.64, 14.93 40, 12.22 40 M12.22 40 C9.59 40, 6.97 40, 4.07 40 M12.22 40 C9.68 40, 7.15 40, 4.07 40 M4.07 40 C1.36 40, 0 38.64, 0 35.93 M4.07 40 C1.36 40, 0 38.64, 0 35.93 M0 35.93 C0 23.21, 0 10.49, 0 4.07 M0 35.93 C0 23.39, 0 10.86, 0 4.07 M0 4.07 C0 1.36, 1.36 0, 4.07 0 M0 4.07 C0 1.36, 1.36 0, 4.07 0" stroke="#e03131" stroke-width="2" fill="none"></path></g><g transform="translate(155.4309743455765 237.83642037526783) rotate(0 111.23899961575512 29.717906497921547)"><text x="0" y="0" font-family="Segoe UI Emoji" font-size="23.774325198337248px" fill="#868e96" text-anchor="start" style="white-space: pre;" direction="ltr" dominant-baseline="text-before-edge">Child process can't </text><text x="0" y="29.71790649792156" font-family="Segoe UI Emoji" font-size="23.774325198337248px" fill="#868e96" text-anchor="start" style="white-space: pre;" direction="ltr" dominant-baseline="text-before-edge">write to stderr anymore</text></g><g stroke-linecap="round"><g transform="translate(246.15766537505988 245.3906979771674) rotate(0 11.964320586416079 -37.927624405765584)"><path d="M0 0 C0.12 -6.83, -3.26 -28.33, 0.73 -40.97 C4.71 -53.61, 20.06 -70.04, 23.93 -75.86 M0 0 C0.12 -6.83, -3.26 -28.33, 0.73 -40.97 C4.71 -53.61, 20.06 -70.04, 23.93 -75.86" stroke="#868e96" stroke-width="1" fill="none"></path></g><g transform="translate(246.15766537505988 245.3906979771674) rotate(0 11.964320586416079 -37.927624405765584)"><path d="M17.55 -55.9 C19.85 -63.08, 22.14 -70.26, 23.93 -75.86 M17.55 -55.9 C19.6 -62.3, 21.64 -68.69, 23.93 -75.86" stroke="#868e96" stroke-width="1" fill="none"></path></g><g transform="translate(246.15766537505988 245.3906979771674) rotate(0 11.964320586416079 -37.927624405765584)"><path d="M6.22 -64.67 C12.59 -68.69, 18.96 -72.72, 23.93 -75.86 M6.22 -64.67 C11.89 -68.25, 17.57 -71.84, 23.93 -75.86" stroke="#868e96" stroke-width="1" fill="none"></path></g></g><mask></mask><g stroke-linecap="round" transform="translate(350 130) rotate(0 8.14454702112539 20)"><path d="M4.07 0 C6.16 0, 8.24 0, 12.22 0 C14.93 0, 16.29 1.36, 16.29 4.07 C16.29 16.02, 16.29 27.96, 16.29 35.93 C16.29 38.64, 14.93 40, 12.22 40 C9.97 40, 7.72 40, 4.07 40 C1.36 40, 0 38.64, 0 35.93 C0 26.9, 0 17.87, 0 4.07 C0 1.36, 1.36 0, 4.07 0" stroke="none" stroke-width="0" fill="#fff"></path><path d="M4.07 0 C6.17 0, 8.26 0, 12.22 0 M4.07 0 C7.25 0, 10.44 0, 12.22 0 M12.22 0 C14.93 0, 16.29 1.36, 16.29 4.07 M12.22 0 C14.93 0, 16.29 1.36, 16.29 4.07 M16.29 4.07 C16.29 16.12, 16.29 28.16, 16.29 35.93 M16.29 4.07 C16.29 10.83, 16.29 17.58, 16.29 35.93 M16.29 35.93 C16.29 38.64, 14.93 40, 12.22 40 M16.29 35.93 C16.29 38.64, 14.93 40, 12.22 40 M12.22 40 C9.8 40, 7.39 40, 4.07 40 M12.22 40 C9.23 40, 6.24 40, 4.07 40 M4.07 40 C1.36 40, 0 38.64, 0 35.93 M4.07 40 C1.36 40, 0 38.64, 0 35.93 M0 35.93 C0 28.28, 0 20.64, 0 4.07 M0 35.93 C0 24.51, 0 13.1, 0 4.07 M0 4.07 C0 1.36, 1.36 0, 4.07 0 M0 4.07 C0 1.36, 1.36 0, 4.07 0" stroke="#e03131" stroke-width="2" fill="none"></path></g><g stroke-linecap="round" transform="translate(370 130) rotate(0 8.14454702112539 20)"><path d="M4.07 0 C6.35 0, 8.63 0, 12.22 0 C14.93 0, 16.29 1.36, 16.29 4.07 C16.29 16.52, 16.29 28.96, 16.29 35.93 C16.29 38.64, 14.93 40, 12.22 40 C9.08 40, 5.94 40, 4.07 40 C1.36 40, 0 38.64, 0 35.93 C0 27.92, 0 19.91, 0 4.07 C0 1.36, 1.36 0, 4.07 0" stroke="none" stroke-width="0" fill="#fff"></path><path d="M4.07 0 C6.85 0, 9.63 0, 12.22 0 M4.07 0 C6.54 0, 9 0, 12.22 0 M12.22 0 C14.93 0, 16.29 1.36, 16.29 4.07 M12.22 0 C14.93 0, 16.29 1.36, 16.29 4.07 M16.29 4.07 C16.29 13, 16.29 21.93, 16.29 35.93 M16.29 4.07 C16.29 12.36, 16.29 20.64, 16.29 35.93 M16.29 35.93 C16.29 38.64, 14.93 40, 12.22 40 M16.29 35.93 C16.29 38.64, 14.93 40, 12.22 40 M12.22 40 C9.46 40, 6.71 40, 4.07 40 M12.22 40 C9.05 40, 5.87 40, 4.07 40 M4.07 40 C1.36 40, 0 38.64, 0 35.93 M4.07 40 C1.36 40, 0 38.64, 0 35.93 M0 35.93 C0 28.54, 0 21.15, 0 4.07 M0 35.93 C0 27.61, 0 19.3, 0 4.07 M0 4.07 C0 1.36, 1.36 0, 4.07 0 M0 4.07 C0 1.36, 1.36 0, 4.07 0" stroke="#e03131" stroke-width="2" fill="none"></path></g><g stroke-linecap="round" transform="translate(310 50) rotate(0 8.14454702112539 20)"><path d="M4.07 0 C6.36 0, 8.65 0, 12.22 0 C14.93 0, 16.29 1.36, 16.29 4.07 C16.29 13.55, 16.29 23.03, 16.29 35.93 C16.29 38.64, 14.93 40, 12.22 40 C9.75 40, 7.29 40, 4.07 40 C1.36 40, 0 38.64, 0 35.93 C0 25.57, 0 15.22, 0 4.07 C0 1.36, 1.36 0, 4.07 0" stroke="none" stroke-width="0" fill="#b2f2bb"></path><path d="M4.07 0 C6.22 0, 8.37 0, 12.22 0 M4.07 0 C6.3 0, 8.54 0, 12.22 0 M12.22 0 C14.93 0, 16.29 1.36, 16.29 4.07 M12.22 0 C14.93 0, 16.29 1.36, 16.29 4.07 M16.29 4.07 C16.29 10.75, 16.29 17.43, 16.29 35.93 M16.29 4.07 C16.29 13.06, 16.29 22.06, 16.29 35.93 M16.29 35.93 C16.29 38.64, 14.93 40, 12.22 40 M16.29 35.93 C16.29 38.64, 14.93 40, 12.22 40 M12.22 40 C9.94 40, 7.66 40, 4.07 40 M12.22 40 C9.22 40, 6.23 40, 4.07 40 M4.07 40 C1.36 40, 0 38.64, 0 35.93 M4.07 40 C1.36 40, 0 38.64, 0 35.93 M0 35.93 C0 28.66, 0 21.4, 0 4.07 M0 35.93 C0 27.63, 0 19.32, 0 4.07 M0 4.07 C0 1.36, 1.36 0, 4.07 0 M0 4.07 C0 1.36, 1.36 0, 4.07 0" stroke="#2f9e44" stroke-width="2" fill="none"></path></g><g stroke-linecap="round" transform="translate(270 130) rotate(0 8.14454702112539 20)"><path d="M4.07 0 C6.92 0, 9.76 0, 12.22 0 C14.93 0, 16.29 1.36, 16.29 4.07 C16.29 15.56, 16.29 27.05, 16.29 35.93 C16.29 38.64, 14.93 40, 12.22 40 C10 40, 7.78 40, 4.07 40 C1.36 40, 0 38.64, 0 35.93 C0 25.36, 0 14.8, 0 4.07 C0 1.36, 1.36 0, 4.07 0" stroke="none" stroke-width="0" fill="#fff"></path><path d="M4.07 0 C5.91 0, 7.75 0, 12.22 0 M4.07 0 C7.19 0, 10.3 0, 12.22 0 M12.22 0 C14.93 0, 16.29 1.36, 16.29 4.07 M12.22 0 C14.93 0, 16.29 1.36, 16.29 4.07 M16.29 4.07 C16.29 10.98, 16.29 17.89, 16.29 35.93 M16.29 4.07 C16.29 10.79, 16.29 17.52, 16.29 35.93 M16.29 35.93 C16.29 38.64, 14.93 40, 12.22 40 M16.29 35.93 C16.29 38.64, 14.93 40, 12.22 40 M12.22 40 C10.29 40, 8.36 40, 4.07 40 M12.22 40 C9.26 40, 6.3 40, 4.07 40 M4.07 40 C1.36 40, 0 38.64, 0 35.93 M4.07 40 C1.36 40, 0 38.64, 0 35.93 M0 35.93 C0 23.99, 0 12.05, 0 4.07 M0 35.93 C0 28.95, 0 21.96, 0 4.07 M0 4.07 C0 1.36, 1.36 0, 4.07 0 M0 4.07 C0 1.36, 1.36 0, 4.07 0" stroke="#e03131" stroke-width="2" fill="none"></path></g><g stroke-linecap="round" transform="translate(270 130) rotate(0 8.14454702112539 20)"><path d="M1.08 0.94 C1.08 0.94, 1.08 0.94, 1.08 0.94 M1.08 0.94 C1.08 0.94, 1.08 0.94, 1.08 0.94 M0.56 13.74 C4.62 9.07, 8.68 4.39, 12.37 0.15 M0.56 13.74 C3.3 10.59, 6.04 7.44, 12.37 0.15 M0.69 25.78 C4.8 21.05, 8.91 16.32, 16.44 7.67 M0.69 25.78 C6.27 19.37, 11.84 12.96, 16.44 7.67 M0.83 37.82 C4.2 33.94, 7.57 30.06, 16.57 19.71 M0.83 37.82 C4.73 33.33, 8.63 28.85, 16.57 19.71 M9.49 40.05 C12 37.16, 14.51 34.27, 16.71 31.75 M9.49 40.05 C10.96 38.35, 12.44 36.66, 16.71 31.75 M2.44 39.87 C2.44 39.87, 2.44 39.87, 2.44 39.87 M2.44 39.87 C2.44 39.87, 2.44 39.87, 2.44 39.87 M14.48 39.74 C10.67 36.43, 6.86 33.12, 0.89 27.93 M14.48 39.74 C9.5 35.41, 4.51 31.08, 0.89 27.93 M16.71 31.08 C11.98 26.97, 7.26 22.86, 0.86 17.3 M16.71 31.08 C11.69 26.71, 6.66 22.35, 0.86 17.3 M16.67 20.45 C12.07 16.44, 7.46 12.44, 0.83 6.67 M16.67 20.45 C10.94 15.46, 5.2 10.47, 0.83 6.67 M16.64 9.82 C14.21 7.71, 11.78 5.59, 4.56 -0.68 M16.64 9.82 C11.97 5.76, 7.31 1.71, 4.56 -0.68" stroke="#ffc9c9" stroke-width="1" fill="none"></path><path d="M4.07 0 C6.46 0, 8.84 0, 12.22 0 M4.07 0 C5.91 0, 7.76 0, 12.22 0 M12.22 0 C14.93 0, 16.29 1.36, 16.29 4.07 M12.22 0 C14.93 0, 16.29 1.36, 16.29 4.07 M16.29 4.07 C16.29 13.69, 16.29 23.31, 16.29 35.93 M16.29 4.07 C16.29 15.73, 16.29 27.4, 16.29 35.93 M16.29 35.93 C16.29 38.64, 14.93 40, 12.22 40 M16.29 35.93 C16.29 38.64, 14.93 40, 12.22 40 M12.22 40 C9.29 40, 6.36 40, 4.07 40 M12.22 40 C9.93 40, 7.64 40, 4.07 40 M4.07 40 C1.36 40, 0 38.64, 0 35.93 M4.07 40 C1.36 40, 0 38.64, 0 35.93 M0 35.93 C0 28.14, 0 20.35, 0 4.07 M0 35.93 C0 28.4, 0 20.87, 0 4.07 M0 4.07 C0 1.36, 1.36 0, 4.07 0 M0 4.07 C0 1.36, 1.36 0, 4.07 0" stroke="#e03131" stroke-width="2" fill="none"></path></g><g stroke-linecap="round" transform="translate(390 50) rotate(0 8.14454702112539 20)"><path d="M4.07 0 C7.07 0, 10.07 0, 12.22 0 C14.93 0, 16.29 1.36, 16.29 4.07 C16.29 15.83, 16.29 27.58, 16.29 35.93 C16.29 38.64, 14.93 40, 12.22 40 C10.38 40, 8.54 40, 4.07 40 C1.36 40, 0 38.64, 0 35.93 C0 25.25, 0 14.57, 0 4.07 C0 1.36, 1.36 0, 4.07 0" stroke="none" stroke-width="0" fill="#b2f2bb"></path><path d="M4.07 0 C6.58 0, 9.09 0, 12.22 0 M4.07 0 C7.1 0, 10.12 0, 12.22 0 M12.22 0 C14.93 0, 16.29 1.36, 16.29 4.07 M12.22 0 C14.93 0, 16.29 1.36, 16.29 4.07 M16.29 4.07 C16.29 16.12, 16.29 28.16, 16.29 35.93 M16.29 4.07 C16.29 16.59, 16.29 29.11, 16.29 35.93 M16.29 35.93 C16.29 38.64, 14.93 40, 12.22 40 M16.29 35.93 C16.29 38.64, 14.93 40, 12.22 40 M12.22 40 C9.75 40, 7.28 40, 4.07 40 M12.22 40 C10.15 40, 8.09 40, 4.07 40 M4.07 40 C1.36 40, 0 38.64, 0 35.93 M4.07 40 C1.36 40, 0 38.64, 0 35.93 M0 35.93 C0 25.32, 0 14.71, 0 4.07 M0 35.93 C0 28.59, 0 21.26, 0 4.07 M0 4.07 C0 1.36, 1.36 0, 4.07 0 M0 4.07 C0 1.36, 1.36 0, 4.07 0" stroke="#2f9e44" stroke-width="2" fill="none"></path></g><g stroke-linecap="round" transform="translate(410 130) rotate(0 8.14454702112539 20)"><path d="M4.07 0 C5.95 0, 7.82 0, 12.22 0 C14.93 0, 16.29 1.36, 16.29 4.07 C16.29 13.34, 16.29 22.6, 16.29 35.93 C16.29 38.64, 14.93 40, 12.22 40 C10.4 40, 8.59 40, 4.07 40 C1.36 40, 0 38.64, 0 35.93 C0 28.81, 0 21.7, 0 4.07 C0 1.36, 1.36 0, 4.07 0" stroke="none" stroke-width="0" fill="#fff"></path><path d="M4.07 0 C7.32 0, 10.57 0, 12.22 0 M4.07 0 C5.96 0, 7.85 0, 12.22 0 M12.22 0 C14.93 0, 16.29 1.36, 16.29 4.07 M12.22 0 C14.93 0, 16.29 1.36, 16.29 4.07 M16.29 4.07 C16.29 14.46, 16.29 24.85, 16.29 35.93 M16.29 4.07 C16.29 16.53, 16.29 28.98, 16.29 35.93 M16.29 35.93 C16.29 38.64, 14.93 40, 12.22 40 M16.29 35.93 C16.29 38.64, 14.93 40, 12.22 40 M12.22 40 C9 40, 5.79 40, 4.07 40 M12.22 40 C9.36 40, 6.51 40, 4.07 40 M4.07 40 C1.36 40, 0 38.64, 0 35.93 M4.07 40 C1.36 40, 0 38.64, 0 35.93 M0 35.93 C0 25.39, 0 14.85, 0 4.07 M0 35.93 C0 25.14, 0 14.35, 0 4.07 M0 4.07 C0 1.36, 1.36 0, 4.07 0 M0 4.07 C0 1.36, 1.36 0, 4.07 0" stroke="#e03131" stroke-width="2" fill="none"></path></g><g stroke-linecap="round" transform="translate(430 130) rotate(0 8.14454702112539 20)"><path d="M4.07 0 C6.12 0, 8.17 0, 12.22 0 C14.93 0, 16.29 1.36, 16.29 4.07 C16.29 14.4, 16.29 24.73, 16.29 35.93 C16.29 38.64, 14.93 40, 12.22 40 C9.79 40, 7.36 40, 4.07 40 C1.36 40, 0 38.64, 0 35.93 C0 25.6, 0 15.26, 0 4.07 C0 1.36, 1.36 0, 4.07 0" stroke="none" stroke-width="0" fill="#fff"></path><path d="M4.07 0 C6.79 0, 9.51 0, 12.22 0 M4.07 0 C5.93 0, 7.78 0, 12.22 0 M12.22 0 C14.93 0, 16.29 1.36, 16.29 4.07 M12.22 0 C14.93 0, 16.29 1.36, 16.29 4.07 M16.29 4.07 C16.29 16.56, 16.29 29.05, 16.29 35.93 M16.29 4.07 C16.29 15.76, 16.29 27.45, 16.29 35.93 M16.29 35.93 C16.29 38.64, 14.93 40, 12.22 40 M16.29 35.93 C16.29 38.64, 14.93 40, 12.22 40 M12.22 40 C10.58 40, 8.94 40, 4.07 40 M12.22 40 C9.78 40, 7.34 40, 4.07 40 M4.07 40 C1.36 40, 0 38.64, 0 35.93 M4.07 40 C1.36 40, 0 38.64, 0 35.93 M0 35.93 C0 23.48, 0 11.04, 0 4.07 M0 35.93 C0 24.46, 0 12.98, 0 4.07 M0 4.07 C0 1.36, 1.36 0, 4.07 0 M0 4.07 C0 1.36, 1.36 0, 4.07 0" stroke="#e03131" stroke-width="2" fill="none"></path></g><g stroke-linecap="round" transform="translate(470 130) rotate(0 8.14454702112539 20)"><path d="M4.07 0 C5.96 0, 7.85 0, 12.22 0 C14.93 0, 16.29 1.36, 16.29 4.07 C16.29 10.47, 16.29 16.87, 16.29 35.93 C16.29 38.64, 14.93 40, 12.22 40 C9.94 40, 7.66 40, 4.07 40 C1.36 40, 0 38.64, 0 35.93 C0 23.48, 0 11.04, 0 4.07 C0 1.36, 1.36 0, 4.07 0" stroke="none" stroke-width="0" fill="#fff"></path><path d="M4.07 0 C6.69 0, 9.31 0, 12.22 0 M4.07 0 C6.36 0, 8.65 0, 12.22 0 M12.22 0 C14.93 0, 16.29 1.36, 16.29 4.07 M12.22 0 C14.93 0, 16.29 1.36, 16.29 4.07 M16.29 4.07 C16.29 14.94, 16.29 25.82, 16.29 35.93 M16.29 4.07 C16.29 13.71, 16.29 23.35, 16.29 35.93 M16.29 35.93 C16.29 38.64, 14.93 40, 12.22 40 M16.29 35.93 C16.29 38.64, 14.93 40, 12.22 40 M12.22 40 C9.93 40, 7.65 40, 4.07 40 M12.22 40 C10.1 40, 7.98 40, 4.07 40 M4.07 40 C1.36 40, 0 38.64, 0 35.93 M4.07 40 C1.36 40, 0 38.64, 0 35.93 M0 35.93 C0 25.15, 0 14.38, 0 4.07 M0 35.93 C0 23.52, 0 11.12, 0 4.07 M0 4.07 C0 1.36, 1.36 0, 4.07 0 M0 4.07 C0 1.36, 1.36 0, 4.07 0" stroke="#e03131" stroke-width="2" fill="none"></path></g><g stroke-linecap="round" transform="translate(450 50) rotate(0 8.14454702112539 20)"><path d="M4.07 0 C6.85 0, 9.63 0, 12.22 0 C14.93 0, 16.29 1.36, 16.29 4.07 C16.29 12.44, 16.29 20.81, 16.29 35.93 C16.29 38.64, 14.93 40, 12.22 40 C9.71 40, 7.2 40, 4.07 40 C1.36 40, 0 38.64, 0 35.93 C0 27.81, 0 19.69, 0 4.07 C0 1.36, 1.36 0, 4.07 0" stroke="none" stroke-width="0" fill="#b2f2bb"></path><path d="M4.07 0 C6.9 0, 9.72 0, 12.22 0 M4.07 0 C6.29 0, 8.51 0, 12.22 0 M12.22 0 C14.93 0, 16.29 1.36, 16.29 4.07 M12.22 0 C14.93 0, 16.29 1.36, 16.29 4.07 M16.29 4.07 C16.29 14.13, 16.29 24.18, 16.29 35.93 M16.29 4.07 C16.29 16.66, 16.29 29.25, 16.29 35.93 M16.29 35.93 C16.29 38.64, 14.93 40, 12.22 40 M16.29 35.93 C16.29 38.64, 14.93 40, 12.22 40 M12.22 40 C9.98 40, 7.75 40, 4.07 40 M12.22 40 C9.28 40, 6.34 40, 4.07 40 M4.07 40 C1.36 40, 0 38.64, 0 35.93 M4.07 40 C1.36 40, 0 38.64, 0 35.93 M0 35.93 C0 29.24, 0 22.55, 0 4.07 M0 35.93 C0 26.11, 0 16.3, 0 4.07 M0 4.07 C0 1.36, 1.36 0, 4.07 0 M0 4.07 C0 1.36, 1.36 0, 4.07 0" stroke="#2f9e44" stroke-width="2" fill="none"></path></g></svg>