<svg version="1.1" xmlns="http://www.w3.org/2000/svg" viewBox="0 0 820 307.27223337111093" width="1640" height="614.5444667422219" filter="invert(93%) hue-rotate(180deg)">
  <!-- svg-source:excalidraw -->
  
  <defs>
    <style class="style-fonts">
      @font-face {
        font-family: "Virgil";
        src: url('/fonts/Virgil.woff2') format('woff2');
      }
      @font-face {
        font-family: "Cascadia";
        src: url('/fonts/Cascadia.woff2') format('woff2');
      }
    </style>
    
  </defs>
  <g stroke-linecap="round" transform="translate(290 110) rotate(0 100 50)"><path d="M25 0 C55.2 0, 85.4 0, 175 0 C191.67 0, 200 8.33, 200 25 C200 37.15, 200 49.29, 200 75 C200 91.67, 191.67 100, 175 100 C120.87 100, 66.75 100, 25 100 C8.33 100, 0 91.67, 0 75 C0 57.46, 0 39.93, 0 25 C0 8.33, 8.33 0, 25 0" stroke="none" stroke-width="0" fill="#fff"></path><path d="M25 0 C59.89 0, 94.78 0, 175 0 M25 0 C67.25 0, 109.49 0, 175 0 M175 0 C191.67 0, 200 8.33, 200 25 M175 0 C191.67 0, 200 8.33, 200 25 M200 25 C200 37.3, 200 49.59, 200 75 M200 25 C200 39.35, 200 53.7, 200 75 M200 75 C200 91.67, 191.67 100, 175 100 M200 75 C200 91.67, 191.67 100, 175 100 M175 100 C123.5 100, 71.99 100, 25 100 M175 100 C134.35 100, 93.71 100, 25 100 M25 100 C8.33 100, 0 91.67, 0 75 M25 100 C8.33 100, 0 91.67, 0 75 M0 75 C0 64.65, 0 54.3, 0 25 M0 75 C0 57.34, 0 39.67, 0 25 M0 25 C0 8.33, 8.33 0, 25 0 M0 25 C0 8.33, 8.33 0, 25 0" stroke="#e03131" stroke-width="1" fill="none"></path></g><g stroke-linecap="round" transform="translate(10 10) rotate(0 100 100)"><path d="M32 0 C71.55 0, 111.11 0, 168 0 C189.33 0, 200 10.67, 200 32 C200 68.09, 200 104.18, 200 168 C200 189.33, 189.33 200, 168 200 C139.54 200, 111.08 200, 32 200 C10.67 200, 0 189.33, 0 168 C0 135.9, 0 103.8, 0 32 C0 10.67, 10.67 0, 32 0" stroke="none" stroke-width="0" fill="#fff"></path><path d="M32 0 C65.36 0, 98.71 0, 168 0 M32 0 C76.03 0, 120.06 0, 168 0 M168 0 C189.33 0, 200 10.67, 200 32 M168 0 C189.33 0, 200 10.67, 200 32 M200 32 C200 82.8, 200 133.6, 200 168 M200 32 C200 79.5, 200 126.99, 200 168 M200 168 C200 189.33, 189.33 200, 168 200 M200 168 C200 189.33, 189.33 200, 168 200 M168 200 C118.57 200, 69.13 200, 32 200 M168 200 C129.78 200, 91.56 200, 32 200 M32 200 C10.67 200, 0 189.33, 0 168 M32 200 C10.67 200, 0 189.33, 0 168 M0 168 C0 121.15, 0 74.3, 0 32 M0 168 C0 122.4, 0 76.8, 0 32 M0 32 C0 10.67, 10.67 0, 32 0 M0 32 C0 10.67, 10.67 0, 32 0" stroke="#1971c2" stroke-width="4" fill="none"></path></g><g transform="translate(62.600799560546875 86.07708526917315) rotate(0 47.399200439453125 23.922914730826847)"><text x="47.399200439453125" y="0" font-family="Helvetica, Segoe UI Emoji" font-size="41.60506909709019px" fill="#1971c2" text-anchor="middle" style="white-space: pre;" direction="ltr" dominant-baseline="text-before-edge">Child</text></g><g stroke-linecap="round" transform="translate(610 10) rotate(0 100 100)"><path d="M32 0 C81.96 0, 131.91 0, 168 0 C189.33 0, 200 10.67, 200 32 C200 68.06, 200 104.12, 200 168 C200 189.33, 189.33 200, 168 200 C138.91 200, 109.82 200, 32 200 C10.67 200, 0 189.33, 0 168 C0 119.95, 0 71.9, 0 32 C0 10.67, 10.67 0, 32 0" stroke="none" stroke-width="0" fill="#ffffff"></path><path d="M32 0 C78.96 0, 125.91 0, 168 0 M32 0 C61.15 0, 90.29 0, 168 0 M168 0 C189.33 0, 200 10.67, 200 32 M168 0 C189.33 0, 200 10.67, 200 32 M200 32 C200 82.84, 200 133.68, 200 168 M200 32 C200 74.86, 200 117.72, 200 168 M200 168 C200 189.33, 189.33 200, 168 200 M200 168 C200 189.33, 189.33 200, 168 200 M168 200 C125.35 200, 82.7 200, 32 200 M168 200 C137.54 200, 107.08 200, 32 200 M32 200 C10.67 200, 0 189.33, 0 168 M32 200 C10.67 200, 0 189.33, 0 168 M0 168 C0 116.02, 0 64.03, 0 32 M0 168 C0 133.17, 0 98.34, 0 32 M0 32 C0 10.67, 10.67 0, 32 0 M0 32 C0 10.67, 10.67 0, 32 0" stroke="#1971c2" stroke-width="4" fill="none"></path></g><g transform="translate(648.7172164916992 86.07708526917315) rotate(0 61.28278350830078 23.922914730826847)"><text x="61.28278350830078" y="0" font-family="Helvetica, Segoe UI Emoji" font-size="41.60506909709019px" fill="#1971c2" text-anchor="middle" style="white-space: pre;" direction="ltr" dominant-baseline="text-before-edge">Parent</text></g><g transform="translate(506.78494803952526 41.31247190542513) rotate(0 41.783203125 14.264595119002365)"><text x="0" y="0" font-family="Cascadia, Segoe UI Emoji" font-size="23.774325198337248px" fill="#2f9e44" text-anchor="start" style="white-space: pre;" direction="ltr" dominant-baseline="text-before-edge">stdout</text></g><g transform="translate(508.24104806412106 122.07027360696009) rotate(0 41.783203125 14.264595119002365)"><text x="0" y="0" font-family="Cascadia, Segoe UI Emoji" font-size="23.774325198337248px" fill="#e03131" text-anchor="start" style="white-space: pre;" direction="ltr" dominant-baseline="text-before-edge">stderr</text></g><g transform="translate(405.62430877473344 176.96858836536342) rotate(0 34.8193359375 14.264595119002365)"><text x="69.638671875" y="0" font-family="Cascadia, Segoe UI Emoji" font-size="23.774325198337248px" fill="#e03131" text-anchor="end" style="white-space: pre;" direction="ltr" dominant-baseline="text-before-edge">64 Kb</text></g><g stroke-linecap="round"><g transform="translate(211 70) rotate(0 199 0)"><path d="M0 0 C66.33 0, 331.67 0, 398 0 M0 0 C66.33 0, 331.67 0, 398 0" stroke="#2f9e44" stroke-width="2" fill="none"></path></g><g transform="translate(211 70) rotate(0 199 0)"><path d="M398 0 L384.41 6.34 L384.41 -6.34 L398 0" stroke="none" stroke-width="0" fill="#2f9e44" fill-rule="evenodd"></path><path d="M398 0 C393.56 2.07, 389.11 4.14, 384.41 6.34 M398 0 C395.01 1.39, 392.03 2.79, 384.41 6.34 M384.41 6.34 C384.41 1.44, 384.41 -3.47, 384.41 -6.34 M384.41 6.34 C384.41 2.14, 384.41 -2.05, 384.41 -6.34 M384.41 -6.34 C387.29 -4.99, 390.18 -3.65, 398 0 M384.41 -6.34 C388.32 -4.51, 392.24 -2.69, 398 0 M398 0 C398 0, 398 0, 398 0 M398 0 C398 0, 398 0, 398 0" stroke="#2f9e44" stroke-width="2" fill="none"></path></g></g><mask></mask><g stroke-linecap="round"><g transform="translate(211 150) rotate(0 199 0)"><path d="M0 0 C66.33 0, 331.67 0, 398 0 M0 0 C66.33 0, 331.67 0, 398 0" stroke="#e03131" stroke-width="2" fill="none"></path></g><g transform="translate(211 150) rotate(0 199 0)"><path d="M398 0 L384.41 6.34 L384.41 -6.34 L398 0" stroke="none" stroke-width="0" fill="#e03131" fill-rule="evenodd"></path><path d="M398 0 C394.6 1.58, 391.2 3.17, 384.41 6.34 M398 0 C394.78 1.5, 391.56 3, 384.41 6.34 M384.41 6.34 C384.41 1.91, 384.41 -2.51, 384.41 -6.34 M384.41 6.34 C384.41 2.63, 384.41 -1.08, 384.41 -6.34 M384.41 -6.34 C389.71 -3.86, 395.02 -1.39, 398 0 M384.41 -6.34 C388.87 -4.26, 393.33 -2.18, 398 0 M398 0 C398 0, 398 0, 398 0 M398 0 C398 0, 398 0, 398 0" stroke="#e03131" stroke-width="2" fill="none"></path></g></g><mask></mask><g stroke-linecap="round" transform="translate(310 130) rotate(0 8.14454702112539 20)"><path d="M4.07 0 C7.08 0, 10.09 0, 12.22 0 C14.93 0, 16.29 1.36, 16.29 4.07 C16.29 14.31, 16.29 24.55, 16.29 35.93 C16.29 38.64, 14.93 40, 12.22 40 C9.37 40, 6.53 40, 4.07 40 C1.36 40, 0 38.64, 0 35.93 C0 25.06, 0 14.18, 0 4.07 C0 1.36, 1.36 0, 4.07 0" stroke="none" stroke-width="0" fill="#fff"></path><path d="M4.07 0 C6.84 0, 9.6 0, 12.22 0 M4.07 0 C6.37 0, 8.66 0, 12.22 0 M12.22 0 C14.93 0, 16.29 1.36, 16.29 4.07 M12.22 0 C14.93 0, 16.29 1.36, 16.29 4.07 M16.29 4.07 C16.29 16.37, 16.29 28.68, 16.29 35.93 M16.29 4.07 C16.29 11.22, 16.29 18.36, 16.29 35.93 M16.29 35.93 C16.29 38.64, 14.93 40, 12.22 40 M16.29 35.93 C16.29 38.64, 14.93 40, 12.22 40 M12.22 40 C9.59 40, 6.97 40, 4.07 40 M12.22 40 C9.68 40, 7.15 40, 4.07 40 M4.07 40 C1.36 40, 0 38.64, 0 35.93 M4.07 40 C1.36 40, 0 38.64, 0 35.93 M0 35.93 C0 23.21, 0 10.49, 0 4.07 M0 35.93 C0 23.39, 0 10.86, 0 4.07 M0 4.07 C0 1.36, 1.36 0, 4.07 0 M0 4.07 C0 1.36, 1.36 0, 4.07 0" stroke="#e03131" stroke-width="2" fill="none"></path></g><g transform="translate(155.4309743455765 237.83642037526783) rotate(0 140.71832275390625 29.717906497921547)"><text x="0" y="0" font-family="Virgil, Segoe UI Emoji" font-size="23.774325198337248px" fill="#868e96" text-anchor="start" style="white-space: pre;" direction="ltr" dominant-baseline="text-before-edge">Child process can't </text><text x="0" y="29.71790649792156" font-family="Virgil, Segoe UI Emoji" font-size="23.774325198337248px" fill="#868e96" text-anchor="start" style="white-space: pre;" direction="ltr" dominant-baseline="text-before-edge">write to stderr anymore</text></g><g stroke-linecap="round"><g transform="translate(228.95345550460843 242.19924062676) rotate(0 9.600820985565178 -35.872622470320664)"><path d="M0 0 C-0.33 -6.14, -5.53 -24.9, -2 -36.86 C1.53 -48.82, 17.33 -65.93, 21.2 -71.75 M0 0 C-0.33 -6.14, -5.53 -24.9, -2 -36.86 C1.53 -48.82, 17.33 -65.93, 21.2 -71.75" stroke="#868e96" stroke-width="1" fill="none"></path></g><g transform="translate(228.95345550460843 242.19924062676) rotate(0 9.600820985565178 -35.872622470320664)"><path d="M14.85 -51.78 C17.13 -58.97, 19.42 -66.15, 21.2 -71.75 M14.85 -51.78 C16.89 -58.18, 18.92 -64.58, 21.2 -71.75" stroke="#868e96" stroke-width="1" fill="none"></path></g><g transform="translate(228.95345550460843 242.19924062676) rotate(0 9.600820985565178 -35.872622470320664)"><path d="M3.5 -60.54 C9.87 -64.57, 16.24 -68.6, 21.2 -71.75 M3.5 -60.54 C9.18 -64.13, 14.85 -67.72, 21.2 -71.75" stroke="#868e96" stroke-width="1" fill="none"></path></g></g><mask></mask><g stroke-linecap="round" transform="translate(330 130) rotate(0 8.14454702112539 20)"><path d="M4.07 0 C6.16 0, 8.24 0, 12.22 0 C14.93 0, 16.29 1.36, 16.29 4.07 C16.29 16.02, 16.29 27.96, 16.29 35.93 C16.29 38.64, 14.93 40, 12.22 40 C9.97 40, 7.72 40, 4.07 40 C1.36 40, 0 38.64, 0 35.93 C0 26.9, 0 17.87, 0 4.07 C0 1.36, 1.36 0, 4.07 0" stroke="none" stroke-width="0" fill="#fff"></path><path d="M4.07 0 C6.17 0, 8.26 0, 12.22 0 M4.07 0 C7.25 0, 10.44 0, 12.22 0 M12.22 0 C14.93 0, 16.29 1.36, 16.29 4.07 M12.22 0 C14.93 0, 16.29 1.36, 16.29 4.07 M16.29 4.07 C16.29 16.12, 16.29 28.16, 16.29 35.93 M16.29 4.07 C16.29 10.83, 16.29 17.58, 16.29 35.93 M16.29 35.93 C16.29 38.64, 14.93 40, 12.22 40 M16.29 35.93 C16.29 38.64, 14.93 40, 12.22 40 M12.22 40 C9.8 40, 7.39 40, 4.07 40 M12.22 40 C9.23 40, 6.24 40, 4.07 40 M4.07 40 C1.36 40, 0 38.64, 0 35.93 M4.07 40 C1.36 40, 0 38.64, 0 35.93 M0 35.93 C0 28.28, 0 20.64, 0 4.07 M0 35.93 C0 24.51, 0 13.1, 0 4.07 M0 4.07 C0 1.36, 1.36 0, 4.07 0 M0 4.07 C0 1.36, 1.36 0, 4.07 0" stroke="#e03131" stroke-width="2" fill="none"></path></g><g stroke-linecap="round" transform="translate(350 130) rotate(0 8.14454702112539 20)"><path d="M4.07 0 C6.35 0, 8.63 0, 12.22 0 C14.93 0, 16.29 1.36, 16.29 4.07 C16.29 16.52, 16.29 28.96, 16.29 35.93 C16.29 38.64, 14.93 40, 12.22 40 C9.08 40, 5.94 40, 4.07 40 C1.36 40, 0 38.64, 0 35.93 C0 27.92, 0 19.91, 0 4.07 C0 1.36, 1.36 0, 4.07 0" stroke="none" stroke-width="0" fill="#fff"></path><path d="M4.07 0 C6.85 0, 9.63 0, 12.22 0 M4.07 0 C6.54 0, 9 0, 12.22 0 M12.22 0 C14.93 0, 16.29 1.36, 16.29 4.07 M12.22 0 C14.93 0, 16.29 1.36, 16.29 4.07 M16.29 4.07 C16.29 13, 16.29 21.93, 16.29 35.93 M16.29 4.07 C16.29 12.36, 16.29 20.64, 16.29 35.93 M16.29 35.93 C16.29 38.64, 14.93 40, 12.22 40 M16.29 35.93 C16.29 38.64, 14.93 40, 12.22 40 M12.22 40 C9.46 40, 6.71 40, 4.07 40 M12.22 40 C9.05 40, 5.87 40, 4.07 40 M4.07 40 C1.36 40, 0 38.64, 0 35.93 M4.07 40 C1.36 40, 0 38.64, 0 35.93 M0 35.93 C0 28.54, 0 21.15, 0 4.07 M0 35.93 C0 27.61, 0 19.3, 0 4.07 M0 4.07 C0 1.36, 1.36 0, 4.07 0 M0 4.07 C0 1.36, 1.36 0, 4.07 0" stroke="#e03131" stroke-width="2" fill="none"></path></g><g stroke-linecap="round" transform="translate(290 50) rotate(0 8.14454702112539 20)"><path d="M4.07 0 C6.64 0, 9.21 0, 12.22 0 C14.93 0, 16.29 1.36, 16.29 4.07 C16.29 15.8, 16.29 27.53, 16.29 35.93 C16.29 38.64, 14.93 40, 12.22 40 C10.26 40, 8.3 40, 4.07 40 C1.36 40, 0 38.64, 0 35.93 C0 29.08, 0 22.24, 0 4.07 C0 1.36, 1.36 0, 4.07 0" stroke="none" stroke-width="0" fill="#b2f2bb"></path><path d="M4.07 0 C6.07 0, 8.06 0, 12.22 0 M4.07 0 C6.95 0, 9.82 0, 12.22 0 M12.22 0 C14.93 0, 16.29 1.36, 16.29 4.07 M12.22 0 C14.93 0, 16.29 1.36, 16.29 4.07 M16.29 4.07 C16.29 14.37, 16.29 24.66, 16.29 35.93 M16.29 4.07 C16.29 14.74, 16.29 25.4, 16.29 35.93 M16.29 35.93 C16.29 38.64, 14.93 40, 12.22 40 M16.29 35.93 C16.29 38.64, 14.93 40, 12.22 40 M12.22 40 C9.25 40, 6.29 40, 4.07 40 M12.22 40 C9.65 40, 7.08 40, 4.07 40 M4.07 40 C1.36 40, 0 38.64, 0 35.93 M4.07 40 C1.36 40, 0 38.64, 0 35.93 M0 35.93 C0 28.06, 0 20.2, 0 4.07 M0 35.93 C0 24.47, 0 13.01, 0 4.07 M0 4.07 C0 1.36, 1.36 0, 4.07 0 M0 4.07 C0 1.36, 1.36 0, 4.07 0" stroke="#2f9e44" stroke-width="2" fill="none"></path></g><g stroke-linecap="round" transform="translate(250 130) rotate(0 8.14454702112539 20)"><path d="M4.07 0 C6.92 0, 9.76 0, 12.22 0 C14.93 0, 16.29 1.36, 16.29 4.07 C16.29 15.56, 16.29 27.05, 16.29 35.93 C16.29 38.64, 14.93 40, 12.22 40 C10 40, 7.78 40, 4.07 40 C1.36 40, 0 38.64, 0 35.93 C0 25.36, 0 14.8, 0 4.07 C0 1.36, 1.36 0, 4.07 0" stroke="none" stroke-width="0" fill="#fff"></path><path d="M4.07 0 C5.91 0, 7.75 0, 12.22 0 M4.07 0 C7.19 0, 10.3 0, 12.22 0 M12.22 0 C14.93 0, 16.29 1.36, 16.29 4.07 M12.22 0 C14.93 0, 16.29 1.36, 16.29 4.07 M16.29 4.07 C16.29 10.98, 16.29 17.89, 16.29 35.93 M16.29 4.07 C16.29 10.79, 16.29 17.52, 16.29 35.93 M16.29 35.93 C16.29 38.64, 14.93 40, 12.22 40 M16.29 35.93 C16.29 38.64, 14.93 40, 12.22 40 M12.22 40 C10.29 40, 8.36 40, 4.07 40 M12.22 40 C9.26 40, 6.3 40, 4.07 40 M4.07 40 C1.36 40, 0 38.64, 0 35.93 M4.07 40 C1.36 40, 0 38.64, 0 35.93 M0 35.93 C0 23.99, 0 12.05, 0 4.07 M0 35.93 C0 28.95, 0 21.96, 0 4.07 M0 4.07 C0 1.36, 1.36 0, 4.07 0 M0 4.07 C0 1.36, 1.36 0, 4.07 0" stroke="#e03131" stroke-width="2" fill="none"></path></g><g stroke-linecap="round" transform="translate(250 130) rotate(0 8.14454702112539 20)"><path d="M1.08 0.94 C1.08 0.94, 1.08 0.94, 1.08 0.94 M1.08 0.94 C1.08 0.94, 1.08 0.94, 1.08 0.94 M0.56 13.74 C4.62 9.07, 8.68 4.39, 12.37 0.15 M0.56 13.74 C3.3 10.59, 6.04 7.44, 12.37 0.15 M0.69 25.78 C4.8 21.05, 8.91 16.32, 16.44 7.67 M0.69 25.78 C6.27 19.37, 11.84 12.96, 16.44 7.67 M0.83 37.82 C4.2 33.94, 7.57 30.06, 16.57 19.71 M0.83 37.82 C4.73 33.33, 8.63 28.85, 16.57 19.71 M9.49 40.05 C12 37.16, 14.51 34.27, 16.71 31.75 M9.49 40.05 C10.96 38.35, 12.44 36.66, 16.71 31.75 M2.44 39.87 C2.44 39.87, 2.44 39.87, 2.44 39.87 M2.44 39.87 C2.44 39.87, 2.44 39.87, 2.44 39.87 M14.48 39.74 C10.67 36.43, 6.86 33.12, 0.89 27.93 M14.48 39.74 C9.5 35.41, 4.51 31.08, 0.89 27.93 M16.71 31.08 C11.98 26.97, 7.26 22.86, 0.86 17.3 M16.71 31.08 C11.69 26.71, 6.66 22.35, 0.86 17.3 M16.67 20.45 C12.07 16.44, 7.46 12.44, 0.83 6.67 M16.67 20.45 C10.94 15.46, 5.2 10.47, 0.83 6.67 M16.64 9.82 C14.21 7.71, 11.78 5.59, 4.56 -0.68 M16.64 9.82 C11.97 5.76, 7.31 1.71, 4.56 -0.68" stroke="#ffc9c9" stroke-width="1" fill="none"></path><path d="M4.07 0 C6.46 0, 8.84 0, 12.22 0 M4.07 0 C5.91 0, 7.76 0, 12.22 0 M12.22 0 C14.93 0, 16.29 1.36, 16.29 4.07 M12.22 0 C14.93 0, 16.29 1.36, 16.29 4.07 M16.29 4.07 C16.29 13.69, 16.29 23.31, 16.29 35.93 M16.29 4.07 C16.29 15.73, 16.29 27.4, 16.29 35.93 M16.29 35.93 C16.29 38.64, 14.93 40, 12.22 40 M16.29 35.93 C16.29 38.64, 14.93 40, 12.22 40 M12.22 40 C9.29 40, 6.36 40, 4.07 40 M12.22 40 C9.93 40, 7.64 40, 4.07 40 M4.07 40 C1.36 40, 0 38.64, 0 35.93 M4.07 40 C1.36 40, 0 38.64, 0 35.93 M0 35.93 C0 28.14, 0 20.35, 0 4.07 M0 35.93 C0 28.4, 0 20.87, 0 4.07 M0 4.07 C0 1.36, 1.36 0, 4.07 0 M0 4.07 C0 1.36, 1.36 0, 4.07 0" stroke="#e03131" stroke-width="2" fill="none"></path></g><g stroke-linecap="round" transform="translate(370 50) rotate(0 8.14454702112539 20)"><path d="M4.07 0 C7.07 0, 10.07 0, 12.22 0 C14.93 0, 16.29 1.36, 16.29 4.07 C16.29 15.83, 16.29 27.58, 16.29 35.93 C16.29 38.64, 14.93 40, 12.22 40 C10.38 40, 8.54 40, 4.07 40 C1.36 40, 0 38.64, 0 35.93 C0 25.25, 0 14.57, 0 4.07 C0 1.36, 1.36 0, 4.07 0" stroke="none" stroke-width="0" fill="#b2f2bb"></path><path d="M4.07 0 C6.58 0, 9.09 0, 12.22 0 M4.07 0 C7.1 0, 10.12 0, 12.22 0 M12.22 0 C14.93 0, 16.29 1.36, 16.29 4.07 M12.22 0 C14.93 0, 16.29 1.36, 16.29 4.07 M16.29 4.07 C16.29 16.12, 16.29 28.16, 16.29 35.93 M16.29 4.07 C16.29 16.59, 16.29 29.11, 16.29 35.93 M16.29 35.93 C16.29 38.64, 14.93 40, 12.22 40 M16.29 35.93 C16.29 38.64, 14.93 40, 12.22 40 M12.22 40 C9.75 40, 7.28 40, 4.07 40 M12.22 40 C10.15 40, 8.09 40, 4.07 40 M4.07 40 C1.36 40, 0 38.64, 0 35.93 M4.07 40 C1.36 40, 0 38.64, 0 35.93 M0 35.93 C0 25.32, 0 14.71, 0 4.07 M0 35.93 C0 28.59, 0 21.26, 0 4.07 M0 4.07 C0 1.36, 1.36 0, 4.07 0 M0 4.07 C0 1.36, 1.36 0, 4.07 0" stroke="#2f9e44" stroke-width="2" fill="none"></path></g><g stroke-linecap="round" transform="translate(390 130) rotate(0 8.14454702112539 20)"><path d="M4.07 0 C5.95 0, 7.82 0, 12.22 0 C14.93 0, 16.29 1.36, 16.29 4.07 C16.29 13.34, 16.29 22.6, 16.29 35.93 C16.29 38.64, 14.93 40, 12.22 40 C10.4 40, 8.59 40, 4.07 40 C1.36 40, 0 38.64, 0 35.93 C0 28.81, 0 21.7, 0 4.07 C0 1.36, 1.36 0, 4.07 0" stroke="none" stroke-width="0" fill="#fff"></path><path d="M4.07 0 C7.32 0, 10.57 0, 12.22 0 M4.07 0 C5.96 0, 7.85 0, 12.22 0 M12.22 0 C14.93 0, 16.29 1.36, 16.29 4.07 M12.22 0 C14.93 0, 16.29 1.36, 16.29 4.07 M16.29 4.07 C16.29 14.46, 16.29 24.85, 16.29 35.93 M16.29 4.07 C16.29 16.53, 16.29 28.98, 16.29 35.93 M16.29 35.93 C16.29 38.64, 14.93 40, 12.22 40 M16.29 35.93 C16.29 38.64, 14.93 40, 12.22 40 M12.22 40 C9 40, 5.79 40, 4.07 40 M12.22 40 C9.36 40, 6.51 40, 4.07 40 M4.07 40 C1.36 40, 0 38.64, 0 35.93 M4.07 40 C1.36 40, 0 38.64, 0 35.93 M0 35.93 C0 25.39, 0 14.85, 0 4.07 M0 35.93 C0 25.14, 0 14.35, 0 4.07 M0 4.07 C0 1.36, 1.36 0, 4.07 0 M0 4.07 C0 1.36, 1.36 0, 4.07 0" stroke="#e03131" stroke-width="2" fill="none"></path></g><g stroke-linecap="round" transform="translate(410 130) rotate(0 8.14454702112539 20)"><path d="M4.07 0 C6.12 0, 8.17 0, 12.22 0 C14.93 0, 16.29 1.36, 16.29 4.07 C16.29 14.4, 16.29 24.73, 16.29 35.93 C16.29 38.64, 14.93 40, 12.22 40 C9.79 40, 7.36 40, 4.07 40 C1.36 40, 0 38.64, 0 35.93 C0 25.6, 0 15.26, 0 4.07 C0 1.36, 1.36 0, 4.07 0" stroke="none" stroke-width="0" fill="#fff"></path><path d="M4.07 0 C6.79 0, 9.51 0, 12.22 0 M4.07 0 C5.93 0, 7.78 0, 12.22 0 M12.22 0 C14.93 0, 16.29 1.36, 16.29 4.07 M12.22 0 C14.93 0, 16.29 1.36, 16.29 4.07 M16.29 4.07 C16.29 16.56, 16.29 29.05, 16.29 35.93 M16.29 4.07 C16.29 15.76, 16.29 27.45, 16.29 35.93 M16.29 35.93 C16.29 38.64, 14.93 40, 12.22 40 M16.29 35.93 C16.29 38.64, 14.93 40, 12.22 40 M12.22 40 C10.58 40, 8.94 40, 4.07 40 M12.22 40 C9.78 40, 7.34 40, 4.07 40 M4.07 40 C1.36 40, 0 38.64, 0 35.93 M4.07 40 C1.36 40, 0 38.64, 0 35.93 M0 35.93 C0 23.48, 0 11.04, 0 4.07 M0 35.93 C0 24.46, 0 12.98, 0 4.07 M0 4.07 C0 1.36, 1.36 0, 4.07 0 M0 4.07 C0 1.36, 1.36 0, 4.07 0" stroke="#e03131" stroke-width="2" fill="none"></path></g><g stroke-linecap="round" transform="translate(450 130) rotate(0 8.14454702112539 20)"><path d="M4.07 0 C5.96 0, 7.85 0, 12.22 0 C14.93 0, 16.29 1.36, 16.29 4.07 C16.29 10.47, 16.29 16.87, 16.29 35.93 C16.29 38.64, 14.93 40, 12.22 40 C9.94 40, 7.66 40, 4.07 40 C1.36 40, 0 38.64, 0 35.93 C0 23.48, 0 11.04, 0 4.07 C0 1.36, 1.36 0, 4.07 0" stroke="none" stroke-width="0" fill="#fff"></path><path d="M4.07 0 C6.69 0, 9.31 0, 12.22 0 M4.07 0 C6.36 0, 8.65 0, 12.22 0 M12.22 0 C14.93 0, 16.29 1.36, 16.29 4.07 M12.22 0 C14.93 0, 16.29 1.36, 16.29 4.07 M16.29 4.07 C16.29 14.94, 16.29 25.82, 16.29 35.93 M16.29 4.07 C16.29 13.71, 16.29 23.35, 16.29 35.93 M16.29 35.93 C16.29 38.64, 14.93 40, 12.22 40 M16.29 35.93 C16.29 38.64, 14.93 40, 12.22 40 M12.22 40 C9.93 40, 7.65 40, 4.07 40 M12.22 40 C10.1 40, 7.98 40, 4.07 40 M4.07 40 C1.36 40, 0 38.64, 0 35.93 M4.07 40 C1.36 40, 0 38.64, 0 35.93 M0 35.93 C0 25.15, 0 14.38, 0 4.07 M0 35.93 C0 23.52, 0 11.12, 0 4.07 M0 4.07 C0 1.36, 1.36 0, 4.07 0 M0 4.07 C0 1.36, 1.36 0, 4.07 0" stroke="#e03131" stroke-width="2" fill="none"></path></g><g stroke-linecap="round" transform="translate(430 50) rotate(0 8.14454702112539 20)"><path d="M4.07 0 C6.65 0, 9.22 0, 12.22 0 C14.93 0, 16.29 1.36, 16.29 4.07 C16.29 11.21, 16.29 18.35, 16.29 35.93 C16.29 38.64, 14.93 40, 12.22 40 C9.86 40, 7.5 40, 4.07 40 C1.36 40, 0 38.64, 0 35.93 C0 25.69, 0 15.46, 0 4.07 C0 1.36, 1.36 0, 4.07 0" stroke="none" stroke-width="0" fill="#b2f2bb"></path><path d="M4.07 0 C5.96 0, 7.85 0, 12.22 0 M4.07 0 C6.19 0, 8.31 0, 12.22 0 M12.22 0 C14.93 0, 16.29 1.36, 16.29 4.07 M12.22 0 C14.93 0, 16.29 1.36, 16.29 4.07 M16.29 4.07 C16.29 12.72, 16.29 21.36, 16.29 35.93 M16.29 4.07 C16.29 15.37, 16.29 26.67, 16.29 35.93 M16.29 35.93 C16.29 38.64, 14.93 40, 12.22 40 M16.29 35.93 C16.29 38.64, 14.93 40, 12.22 40 M12.22 40 C9.45 40, 6.68 40, 4.07 40 M12.22 40 C9.56 40, 6.9 40, 4.07 40 M4.07 40 C1.36 40, 0 38.64, 0 35.93 M4.07 40 C1.36 40, 0 38.64, 0 35.93 M0 35.93 C0 24.36, 0 12.79, 0 4.07 M0 35.93 C0 23.89, 0 11.86, 0 4.07 M0 4.07 C0 1.36, 1.36 0, 4.07 0 M0 4.07 C0 1.36, 1.36 0, 4.07 0" stroke="#2f9e44" stroke-width="2" fill="none"></path></g><g stroke-linecap="round" transform="translate(270 50) rotate(0 8.14454702112539 20)"><path d="M4.07 0 C6.36 0, 8.65 0, 12.22 0 C14.93 0, 16.29 1.36, 16.29 4.07 C16.29 13.55, 16.29 23.03, 16.29 35.93 C16.29 38.64, 14.93 40, 12.22 40 C9.75 40, 7.29 40, 4.07 40 C1.36 40, 0 38.64, 0 35.93 C0 25.57, 0 15.22, 0 4.07 C0 1.36, 1.36 0, 4.07 0" stroke="none" stroke-width="0" fill="#b2f2bb"></path><path d="M4.07 0 C6.22 0, 8.37 0, 12.22 0 M4.07 0 C6.3 0, 8.54 0, 12.22 0 M12.22 0 C14.93 0, 16.29 1.36, 16.29 4.07 M12.22 0 C14.93 0, 16.29 1.36, 16.29 4.07 M16.29 4.07 C16.29 10.75, 16.29 17.43, 16.29 35.93 M16.29 4.07 C16.29 13.06, 16.29 22.06, 16.29 35.93 M16.29 35.93 C16.29 38.64, 14.93 40, 12.22 40 M16.29 35.93 C16.29 38.64, 14.93 40, 12.22 40 M12.22 40 C9.94 40, 7.66 40, 4.07 40 M12.22 40 C9.22 40, 6.23 40, 4.07 40 M4.07 40 C1.36 40, 0 38.64, 0 35.93 M4.07 40 C1.36 40, 0 38.64, 0 35.93 M0 35.93 C0 28.66, 0 21.4, 0 4.07 M0 35.93 C0 27.63, 0 19.32, 0 4.07 M0 4.07 C0 1.36, 1.36 0, 4.07 0 M0 4.07 C0 1.36, 1.36 0, 4.07 0" stroke="#2f9e44" stroke-width="2" fill="none"></path></g><g stroke-linecap="round" transform="translate(470 50) rotate(0 8.14454702112539 20)"><path d="M4.07 0 C6.85 0, 9.63 0, 12.22 0 C14.93 0, 16.29 1.36, 16.29 4.07 C16.29 12.44, 16.29 20.81, 16.29 35.93 C16.29 38.64, 14.93 40, 12.22 40 C9.71 40, 7.2 40, 4.07 40 C1.36 40, 0 38.64, 0 35.93 C0 27.81, 0 19.69, 0 4.07 C0 1.36, 1.36 0, 4.07 0" stroke="none" stroke-width="0" fill="#b2f2bb"></path><path d="M4.07 0 C6.9 0, 9.72 0, 12.22 0 M4.07 0 C6.29 0, 8.51 0, 12.22 0 M12.22 0 C14.93 0, 16.29 1.36, 16.29 4.07 M12.22 0 C14.93 0, 16.29 1.36, 16.29 4.07 M16.29 4.07 C16.29 14.13, 16.29 24.18, 16.29 35.93 M16.29 4.07 C16.29 16.66, 16.29 29.25, 16.29 35.93 M16.29 35.93 C16.29 38.64, 14.93 40, 12.22 40 M16.29 35.93 C16.29 38.64, 14.93 40, 12.22 40 M12.22 40 C9.98 40, 7.75 40, 4.07 40 M12.22 40 C9.28 40, 6.34 40, 4.07 40 M4.07 40 C1.36 40, 0 38.64, 0 35.93 M4.07 40 C1.36 40, 0 38.64, 0 35.93 M0 35.93 C0 29.24, 0 22.55, 0 4.07 M0 35.93 C0 26.11, 0 16.3, 0 4.07 M0 4.07 C0 1.36, 1.36 0, 4.07 0 M0 4.07 C0 1.36, 1.36 0, 4.07 0" stroke="#2f9e44" stroke-width="2" fill="none"></path></g></svg>