<svg version="1.1" xmlns="http://www.w3.org/2000/svg" viewBox="0 0 541.1597900390625 520" width="1082.319580078125" height="1040">
  <!-- svg-source:excalidraw -->
  
  <defs>
    <style class="style-fonts">
      @font-face {
        font-family: "Virgil";
        src: url('/fonts/Virgil.woff2') format('woff2');
      }
      @font-face {
        font-family: "Cascadia";
        src: url('/fonts/Cascadia.woff2') format('woff2');
      }
    </style>
  </defs>
  <g stroke-linecap="round" transform="translate(10 10) rotate(0 160 250)"><path d="M0 0 C0 0, 0 0, 0 0 M0 0 C0 0, 0 0, 0 0 M-0.49 6.5 C2.02 3.8, 3.7 2.72, 4.39 0.18 M-0.64 6.37 C1.71 4.39, 3.66 1.64, 4.73 0.65 M0.69 12.12 C3.05 9.73, 6.69 5.88, 11.11 -0.73 M0.48 12.59 C3.24 7.52, 7.86 3.12, 10.72 0.15 M0 18.56 C4.41 12.49, 11.48 6.11, 14.37 1.2 M0.26 17.48 C6.28 13.17, 10.08 5.36, 14.72 -0.52 M0.11 24.21 C4.72 18.67, 11.3 10.42, 22.62 1.04 M0.35 23.51 C6.89 16.35, 13.6 8.78, 21.62 -0.9 M-1.55 32.2 C9.85 21.83, 18.67 11.56, 24.65 -0.85 M-0.28 30.06 C9.93 18.31, 21.36 7.28, 25.58 0.13 M-1.09 35.1 C7.85 27.44, 17.64 16.95, 33.53 1.65 M-0.89 37.58 C8.86 26.92, 16.96 18, 31.72 0.65 M2.1 43.04 C12.1 27.69, 21.3 17.31, 37.54 0.08 M0.12 42 C8.38 32.88, 18.02 22.41, 37.8 -0.2 M-0.47 47.86 C7.54 38.01, 15.6 29.01, 41.59 -0.67 M0.15 49.07 C9.25 38.97, 19.36 27.68, 42.45 -0.18 M-1.69 55.72 C12.09 41.39, 26.18 24.5, 46.06 1.48 M-0.03 55.14 C18.73 33.88, 36.52 11.95, 46.83 0.16 M0.07 58.98 C11.79 48.15, 23.03 32.92, 52.22 1.67 M-0.63 61.27 C14.75 44.43, 30.68 26.01, 52.81 -0.52 M1.61 68.83 C10.72 52.87, 27.76 36.95, 57.05 0.02 M0.73 67.98 C19.43 42.85, 41.15 20.67, 58.7 -0.21 M1.11 71.39 C18.3 52.59, 38.74 29.62, 62.67 1.44 M-0.05 73.63 C13.04 57.09, 26.38 43, 63.39 0.41 M0.29 79.88 C18.1 60.97, 35.9 40.58, 67.16 -0.43 M-0.56 78.67 C15.18 62.27, 28.11 43.85, 68.06 0.16 M1.07 83.2 C23.6 56.26, 50.04 25.32, 73.99 0.6 M-0.35 84.51 C22.25 61.19, 42.19 37.21, 74.37 -0.7 M0.52 89.85 C22.96 66.95, 41.49 42.46, 78.85 -0.82 M0.75 91.53 C22.33 67.74, 44.12 43.96, 80.13 -0.33 M-0.5 96.48 C24.43 71.37, 48.17 42.67, 83.05 -1.71 M0.17 97.92 C17.79 76.09, 38.24 51.97, 85.52 0.72 M0.9 104.11 C26.26 75.94, 51.95 44.85, 88.39 1.1 M-0.44 104.01 C34.71 63.92, 69.32 24.44, 90.74 -0.4 M-0.27 110.2 C32.23 74.12, 65.99 37.08, 94.53 -1.14 M-0.23 110.53 C31.97 72.98, 62.53 38.1, 96.22 -0.82 M-0.13 117.27 C35.96 75.21, 69.32 35.72, 101.87 -1.24 M0.36 115.48 C21 88.13, 45.37 62.62, 100.31 0.16 M0.94 120.8 C33.73 83.18, 69.86 41.54, 104.92 -0.18 M-0.67 122.16 C27.86 88.3, 57.56 54.45, 105.43 -0.91 M-0.98 129.85 C38.98 85.35, 79.41 37.54, 111.19 0.76 M0.59 127.99 C27.76 96.6, 54.62 62.88, 111.84 0.46 M0.79 135.15 C48.27 80.43, 94.13 27.94, 117.88 0.63 M0.99 134.8 C38.36 91.51, 76.43 47.19, 117.06 -0.5 M1.71 141.29 C31.23 99.37, 65.71 60.06, 122.06 -1.08 M-0.76 141.2 C35.53 98.87, 73.08 55.48, 120.94 0.5 M-1.27 147.29 C35.67 102.38, 75.31 60.33, 126.83 -0.3 M-0.52 145.33 C51.09 87.38, 100.73 30.46, 126.56 1.13 M1.04 150.7 C49.24 97.15, 96.29 42.91, 133.86 0.19 M0.84 152.91 C31.2 118.53, 60.84 84.17, 131.89 -0.72 M-0.57 159.18 C40.02 110.36, 80.85 66.75, 138.87 -0.98 M-0.49 158.36 C37.74 113.76, 76.2 70.13, 137.09 0.77 M-0.81 164.78 C39.3 117.02, 82.28 68.88, 144.22 -1.01 M0.5 164.3 C33.95 125.12, 69.83 85.48, 143.24 0.34 M-0.74 170.02 C33.92 128.35, 71 87.19, 146.55 0.34 M0.15 170.89 C40.34 121.91, 82.06 74.91, 147.86 0.61 M0.77 176.73 C28.87 137.87, 61.02 103.76, 152.54 0.12 M0.5 176.11 C57.68 111.14, 115.85 44.1, 154.5 0.67 M-1.42 183.49 C54.42 124.71, 104.87 62.88, 159.87 -0.22 M-0.41 183.39 C61.51 113.26, 121.56 43.79, 157.99 0.49 M-0.65 188.9 C53.86 127.45, 106.88 68.04, 163.07 0.56 M0.21 189.71 C35.4 147.35, 73.79 105.08, 164.04 0.04 M-0.39 195.18 C57.52 130.22, 113.12 64.8, 168.14 1.22 M0.43 194.65 C48.01 139.87, 94.87 85.02, 169.58 0.29 M0.5 202.12 C50.01 144.22, 102.49 84.19, 174.63 0.17 M0.63 200.91 C35.21 159.04, 70.53 119.3, 175.61 0.55 M-0.51 206.79 C66.57 130.08, 130.02 57.11, 180.53 -0.3 M0.74 207.46 C60.69 138.62, 119.35 70.15, 179.46 -0.19 M1.03 213.99 C48.13 160.43, 95.71 104.15, 184.52 1.27 M0.52 212.62 C51.81 151.1, 105.19 90.44, 185.35 0.15 M-0.57 219.99 C57.5 153.77, 116.44 87.24, 189.9 0.77 M0.15 219.65 C77.13 132.29, 152.13 45.73, 190.59 0.34 M1.56 225.56 C77.41 137.23, 154.36 50.59, 197.61 -0.64 M0.56 225.18 C54.14 166.65, 105.45 105.97, 196.21 -0.81 M0.78 230.54 C40.81 186.7, 83.2 139.28, 201.46 1.42 M0.62 232.2 C47.09 180.5, 93.04 127.53, 200.9 -0.01 M-0.36 238.62 C72.78 152.63, 146.24 69.42, 208.04 -1.47 M-0.39 237.39 C63.1 162.93, 127.67 88.91, 206.89 0.05 M1.36 244.66 C54.48 183.53, 106.75 123, 211.23 -0.11 M-0.29 244.45 C56.49 177.66, 112.47 112.68, 212.49 -0.12 M0.58 250.79 C49.82 192.97, 97.92 133.59, 217.48 -0.99 M-0.12 250.28 C82.81 155.49, 165.45 59.15, 218.07 -0.09 M1.12 255.76 C47.81 201.56, 94.77 147.11, 223.72 0.82 M0.3 255.78 C55.27 190.95, 111.78 126.47, 222.88 -0.43 M0.19 261.3 C93.5 158.38, 183.71 52.4, 228.56 0.43 M-0.39 262.49 C52.98 201.54, 105.75 140.85, 228.09 -0.41 M1.16 267.99 C93.19 159.92, 185.59 53.7, 232.35 1.22 M0.07 267.55 C47.77 212.49, 95.44 157.78, 233.54 -0.1 M0.55 274.78 C67.69 197.47, 135.29 119.95, 238.95 0.21 M0.29 274.88 C49.33 217.76, 97.8 161.93, 237.75 -0.15 M0.43 280.21 C72.3 197.88, 145.19 115.29, 243.76 -0.73 M-0.75 281 C57.57 217.65, 113.93 152.63, 244.24 0.29 M-0.96 285.61 C88.4 185.02, 175.88 84.26, 249.64 0.77 M-0.11 286.26 C58.35 219.9, 117.44 153.37, 248.79 -0.26 M0.97 293.51 C84.66 196.42, 169.59 100.78, 254.01 -1.11 M0.23 293.19 C86.95 192.92, 173.65 93, 254.56 0.2 M0.29 298.93 C93.11 190.26, 186.4 84.91, 258.44 1.09 M-0.07 297.87 C65.38 224.96, 129.45 150.78, 258.91 -0.14 M-0.76 305.9 C81.52 210.3, 164.7 117.39, 264.19 -0.48 M0.2 305.3 C59.14 232.77, 120.92 163.25, 265.04 0.24 M0.77 311.66 C80.59 218.03, 162.37 123.07, 269.52 -0.77 M-0.31 311.48 C97.02 201.81, 193.92 90.95, 270.38 0.56 M0.29 316.78 C108.44 193.59, 212.79 71.76, 275.11 -0.85 M-0.13 317.12 C76.8 227.96, 154.87 138.36, 275.89 -0.18 M-0.68 323.91 C68.9 245.37, 135.97 168.23, 280.94 -0.52 M0.21 323.2 C75.27 237.52, 150.55 150.84, 281.2 0.49 M1.01 329.35 C79.25 240.53, 154.91 151.33, 287.33 0.83 M0.11 328.94 C107.77 207.16, 215.42 83.07, 286.09 -0.6 M-0.84 334.4 C84.61 236.88, 171.47 137.29, 292 0.94 M0.42 335.77 C79.68 241.28, 161.69 148.08, 291.01 0.03 M-0.91 340.77 C70.55 259.8, 142.99 177.23, 297.33 -0.13 M-0.67 341.21 C80.16 249.15, 161.47 155.57, 296.53 -0.66 M-0.44 347.68 C72.8 262.98, 146.6 177.37, 301.13 0.62 M-0.2 346.99 C82.89 249.59, 166.81 154.02, 301.7 -0.1 M0.8 353.57 C101.71 234.73, 204.51 116.67, 307.7 0.33 M0.17 353.53 C71.49 269.24, 144.2 185.67, 307.74 -0.13 M-0.13 359.05 C103.06 241.19, 206.59 123.09, 313.21 -0.7 M0.4 359.52 C104.9 236.8, 210.24 115.42, 312.38 0.19 M-0.07 366.22 C109.51 240.34, 216.58 117.28, 318.69 -0.87 M-0.12 366.17 C66.14 287.61, 133.32 210.5, 318.24 -0.6 M0.46 372.7 C78.72 281, 157.4 189.8, 321.51 2.15 M-0.31 371.97 C106.08 247.66, 214.1 124.13, 322.11 1.19 M0.9 378.19 C67.71 300.09, 135.79 224.08, 321.6 7.41 M0.24 377.5 C74.95 289.57, 151.1 202.32, 321.91 8.19 M0.28 384 C114.75 254.53, 226.69 123.66, 322.49 12.86 M-0.31 384.29 C102.23 265.71, 204.85 146.67, 321.97 13.72 M0.19 390.28 C84.48 294.93, 166.94 199.24, 322.21 20.43 M0.64 389.65 C77.45 299.37, 156.04 209.79, 321.86 20.16 M-0.41 396.17 C83.59 298.09, 167.96 201.04, 321.89 25.38 M0.22 396.05 C113.21 268.94, 224.86 139.86, 322 25.97 M-0.56 401.97 C114.28 272.21, 227.12 141.63, 322.2 31.43 M0.11 402.5 C80.12 310.81, 160.27 218.38, 322.05 32.48 M0.83 408.83 C82.03 314.01, 163.99 219.77, 321.37 37.93 M-0.07 408.55 C81.74 314.3, 164.68 219.87, 321.83 38.69 M-0.31 415.15 C106.85 292.45, 212.93 171.25, 321.56 44.58 M-0.14 414.88 C119.03 277.06, 237.32 141.95, 322.15 44.37 M-0.9 421.18 C85.67 321.35, 173.07 222.35, 321.99 51.14 M-0.05 421.32 C90.54 316.8, 180.09 214.15, 321.63 50.71 M0.75 427 C120.16 287.37, 241.37 148.04, 321.89 56.24 M0.23 426.61 C129.01 278.27, 256.52 131.67, 322.49 55.87 M-0.33 432.33 C92.59 325.95, 186.68 218.04, 321.95 62.56 M-0.08 433.23 C74.27 344.74, 149.69 257.58, 321.53 62.7 M0.54 438.58 C78.18 348.63, 157.35 257.99, 322.36 68.98 M-0.03 438.78 C72.37 353.66, 146.5 269.13, 321.76 68.54 M-0.85 445.78 C123.98 302.64, 246.63 161.5, 322.49 75.3 M-0.18 445.39 C107.1 320.67, 216.02 194.94, 321.7 74.94 M0.38 451.36 C75.94 362.98, 153.47 275.02, 322.38 80.29 M-0.1 451.95 C79.35 358.13, 158.73 266.21, 322.09 80.82 M-0.34 456.5 C80.53 364.47, 161.87 271.19, 322.31 87.15 M0.1 457.27 C126.41 313.9, 251.52 169.32, 322.58 86.4 M-0.66 464.22 C73.97 376.34, 149.12 290.79, 322.65 93.74 M-0.25 463.98 C105.06 343.06, 209.96 221.45, 321.84 93.38 M-0.02 469.88 C88.19 366.58, 176.33 264.34, 321.84 99.65 M0.23 469.15 C122.24 326.92, 245.39 185.36, 321.7 99.72 M0.24 476.29 C80.97 382.12, 161.36 288.78, 322.78 104.32 M0.01 475.34 C74.06 389.65, 148 305.14, 322.31 105.25 M-0.22 482.61 C92.06 374.87, 185.51 269.3, 322.6 111.71 M-0.31 482.01 C98.37 370, 196.44 257.36, 322.14 111.46 M0.69 487.3 C91.96 382.96, 181.11 279.46, 322.29 117.5 M0.4 487.81 C66.82 410.8, 134.07 333.09, 322.18 117.09 M0.62 494.6 C121.03 355.01, 241.97 216.82, 321.54 124.2 M-0.25 493.71 C103.53 375, 208.76 254.45, 321.9 123.33 M0.7 499.94 C86.86 400.39, 173.44 301.62, 321.65 130.03 M0.08 499.39 C67.56 422.98, 135.42 344.84, 321.76 130.27 M3.66 503.08 C97.54 395.82, 191.07 288.12, 322.02 135.22 M2.81 502.22 C71.78 423, 139.78 345.02, 322.43 135.84 M8.93 502.52 C109.53 387.56, 209.21 271.37, 321.52 141.83 M7.97 502.71 C92.33 405.64, 177.3 308.5, 321.52 142.24 M14.62 502.58 C89.75 413.65, 166.23 325.61, 321.47 147.51 M14.14 502.28 C113.54 388.51, 213.77 272.95, 322.02 147.33 M18.15 503.16 C110.66 397.79, 200.1 293.82, 322.29 153.99 M18.44 502.53 C115.72 393.66, 211.09 283.1, 322.36 154.26 M24.52 502.66 C116.83 396.03, 211.03 289.03, 320.81 161.01 M24.18 502.29 C84.89 431.87, 144.51 361.9, 322.06 160.77 M30.09 503.17 C98.55 422.37, 166.58 344.89, 321.23 165.54 M29.73 502.72 C135.96 381.97, 241.54 259.81, 322.09 165.96 M35.1 501.48 C95.06 430.51, 156.84 358.91, 322.24 172.75 M34.87 502.27 C146.53 372.86, 258.08 245.06, 321.61 172.79 M40.7 502.01 C123.93 403.89, 209.9 304.46, 322.52 178.72 M40.06 502.72 C127.42 401.48, 216.81 299.07, 321.3 178.62 M45.66 502.44 C139.17 392.78, 235.35 282.68, 322.85 183.42 M45.58 502.97 C103.51 437.54, 161.64 372.09, 321.86 184.49 M50.35 503.01 C119.76 420.64, 189.37 341.25, 322.36 190.15 M50.87 502.32 C153.91 384.34, 256.31 266.99, 321.49 191.34 M55.11 503.42 C148.42 397.58, 242.33 289.45, 323.14 196.97 M55.21 502.83 C157.84 386.54, 259.19 270.1, 322.01 196.76 M60.55 502.86 C164.29 386.21, 266.85 266.15, 322.93 203.53 M60.81 502.97 C121.37 431.74, 182.36 362.21, 322.03 203.24 M66.78 502.78 C150.92 404.29, 237.86 303.74, 321.8 209.06 M65.79 502.47 C122.23 442.05, 177.08 379.16, 321.98 209.66 M71.81 501.87 C168.47 392.7, 263.23 285.95, 322.78 215.96 M72.2 502.12 C138.81 426.43, 205.96 350.43, 321.49 214.68 M78.03 503.28 C144.41 426.2, 209.66 349.64, 320.47 221.37 M76.64 502.92 C126.08 444.12, 176.93 386.18, 321.64 221.39 M83.37 502.41 C136.66 439.98, 191.84 378.22, 322.53 227.18 M83.2 502.32 C164.34 409.25, 246.26 314.67, 321.67 227.34 M88.09 503.85 C177.13 397.27, 268.38 295.33, 322.64 232.83 M87.95 502.77 C147.24 434.5, 207.16 367.2, 321.59 232.92 M92.86 501.56 C168.15 416.17, 243.22 330.34, 322.18 241.07 M93.27 501.99 C142.44 444.37, 193.25 385.86, 321.17 239.95 M98.64 504.01 C178.45 410.46, 257.06 318.43, 321.03 246.08 M98.35 502.94 C149.72 442.71, 200.76 383.26, 322.39 245.13 M104.2 503.45 C148.84 449.57, 194.26 398.11, 320.92 252.43 M103.59 502.56 C182.62 412.31, 261.47 321.41, 321.52 251.27 M108.75 504.02 C180.8 421.93, 251.9 338.51, 322.23 258.07 M108.7 503.1 C155.17 452.53, 199.75 400.46, 322.31 256.92 M114.77 501.05 C193.78 411.09, 272.9 317.22, 321.19 264.18 M114.52 502.13 C175.56 433.12, 236.39 362.25, 322 263.74 M120.05 502.18 C183.89 428.01, 250.06 351.62, 320.21 271.21 M119.74 502.76 C171.9 443.8, 224.64 383.6, 321.98 269.82 M125.76 503.18 C182.52 432.41, 244.92 364.33, 320.55 276.82 M125.45 502.07 C175.29 442.29, 228.48 384.12, 322.27 276.3 M131.35 503.38 C202.19 417.12, 276.27 333.88, 320.33 282.28 M130.53 502.8 C172.28 454.75, 215.4 405.17, 321.67 282.43 M136.93 501.19 C207.99 418.57, 280.56 333.68, 322.13 288.74 M136.14 501.62 C206.93 421.79, 278.41 338.62, 321.6 287.64 M141.07 501.79 C183.3 455.33, 227.74 403.21, 321.84 295.68 M141.2 502.6 C205.74 430.52, 269.08 358.8, 321.54 294.76 M146.22 503.39 C185.5 459.38, 222.97 413.35, 322.41 299.81 M146.77 502.21 C193.38 446.72, 242.18 392.3, 321.34 300.11 M150.49 501.27 C198.01 448.2, 244.72 393.53, 322.84 305.28 M151.57 502.99 C198.8 449.75, 245.16 397.51, 321.4 306.68 M155.41 503.05 C209.79 441.6, 264.61 381, 322.51 311.73 M155.72 503.7 C196.13 456.96, 235.76 412.88, 321.54 312.32 M160.93 503.94 C215.01 442.83, 267.46 381.72, 322.69 319.99 M162.79 503.17 C195.52 462.85, 229.8 421.62, 321.51 318.81 M166.74 502.97 C199.27 465.52, 232.05 428.62, 321.42 323.18 M167.13 502.62 C207.81 456.53, 248.19 410.14, 321.39 325.06 M173.72 502.91 C218.22 450.81, 265.36 399.19, 321.53 332.91 M172.36 502.15 C231.51 435.5, 290.48 367.04, 322.03 331.67 M178.68 504.58 C224.36 449.35, 268.66 392.89, 322.06 336.3 M177.07 503.51 C213.97 461.77, 247.47 422.59, 322.13 336.58 M183.13 502.04 C235.93 443.35, 284.34 385.01, 323.19 343.69 M182.42 502.26 C214.45 468.71, 245.18 433.25, 322.17 342.51 M188.29 504.34 C226.94 457.8, 262.83 414.3, 320.41 347.41 M187.77 502.54 C235.15 448.55, 282.92 393.87, 321.22 348.36 M193.37 503.17 C238.19 455.43, 280.05 405.64, 320.49 353.54 M193.1 502.43 C229.15 461.84, 264.96 420.34, 321.22 355.16 M197.52 501.08 C231.5 466.14, 265.8 426.77, 322.19 361.6 M198.55 503.62 C229.88 467.89, 259.76 431.59, 322.18 360.86 M205.56 501.72 C237.11 466.16, 269.47 430.27, 323.34 366.55 M204.47 503.27 C246.27 452.22, 289.4 403.8, 321.77 366.41 M210.79 504.76 C234.52 474.38, 257.03 447.89, 320.27 371.87 M209.33 502.26 C245.62 461.89, 280.2 420.2, 320.91 374.35 M216.36 501.95 C249.67 461.56, 285.88 417.54, 320.27 377.97 M215.8 503.23 C242.81 472.09, 269.65 441.66, 321.17 379.49 M218.18 500.99 C241.38 482.15, 260.52 456.33, 320.53 386.08 M220.48 502.62 C258.72 459.51, 295.34 415.25, 322.48 385.04 M226.26 501.38 C254.35 468.04, 287.49 433.11, 320.79 390.9 M226.05 502.74 C255.93 466.9, 286.03 432.22, 320.65 391.38 M231.6 502.37 C256.91 469.91, 282.59 442.07, 321.53 396.69 M231 501.81 C263.68 463.48, 298.15 424.07, 322.33 398.36 M235.57 502.74 C259.62 476.92, 283.96 449.43, 322.15 405.41 M235.78 502.08 C263.55 472.13, 289.37 442.15, 322 403.7 M240.76 500.73 C266.01 473.66, 289.97 445.54, 321.64 409.34 M240.5 501.84 C268.62 469.98, 296.17 439.05, 321.49 409.67 M248.4 501.9 C269.48 474.31, 295.8 446.22, 321.49 414.97 M247.13 501.49 C275.45 470.44, 302.33 437.51, 321.65 417.26 M253.19 503.04 C280.37 469.85, 307.1 439.77, 322.38 423.62 M251.17 503.63 C266.47 486.55, 279.69 471.35, 321.92 422.94 M256.69 503.97 C272.56 483.54, 287.57 464.96, 322.38 427.53 M257.85 503.08 C274.73 481.78, 293.39 461.99, 321.26 429 M262.22 503.49 C282.15 485.25, 298.14 463.74, 323.06 434.05 M261.81 503 C283.21 478.31, 303.98 454.79, 321.14 433.84 M268.18 503.2 C284.11 487.34, 294.54 469.34, 322.23 442.2 M269.29 502.88 C286.31 482.3, 302.58 463.38, 323.08 440.79 M275 503.44 C287.48 487.21, 301.15 467.44, 320.83 446.59 M273.81 502.68 C288.81 486.16, 303.28 467.38, 322.31 446.18 M277.77 503.83 C291.05 487.49, 301.06 476.38, 319.6 454.03 M277.72 503.58 C288.74 490.23, 298.25 478.89, 321.33 454.14 M284.49 503.45 C294.61 489.44, 305.53 478.28, 321.3 459.64 M283.14 502.31 C295.47 491.11, 304.48 479.61, 322.84 458.91 M290.14 500.97 C297.45 492.53, 304.95 484.57, 320.82 467.01 M288.98 503.5 C301.17 489.61, 311.42 476.78, 320.75 465.2 M293.46 503.25 C300.19 494.88, 303.79 490.59, 321.91 472.79 M294.39 502.44 C302.45 492.49, 311.49 484.06, 321.71 470.92 M299.81 501.23 C306.22 493.87, 316.61 484.45, 320.06 478.58 M300.53 503.16 C306.45 494.71, 315.12 485.28, 322.74 477.31 M306.51 501.78 C307.9 498.66, 315.63 494.39, 323.24 483.55 M304.7 502.51 C312.07 495.04, 316.68 488.13, 320.85 483.73 M309.82 503.55 C312.97 498.53, 317.7 493.73, 321.99 488.66 M310.09 502.27 C314.62 497.92, 317.69 494.05, 321.94 489.88 M315.03 501.87 C317.33 498.96, 320.91 497.16, 322.6 495.99 M315.84 502.64 C317.55 500.31, 320.5 497.77, 321.76 496.04" stroke="#e64980" stroke-width="0.5" fill="none"></path><path d="M1.38 -0.94 C115.64 -1.21, 231.01 -1.29, 320.33 -0.63 M0.29 0.6 C120.45 -1.83, 241.43 -1.72, 320.46 0.2 M319.93 0.72 C318.78 115.48, 319.44 228.78, 320.15 500.66 M320.23 -0.08 C320.4 151.92, 320.05 303.91, 320.38 500.06 M320.13 499.96 C205.11 497.45, 90.34 497.67, -1.23 499.69 M319.37 500.54 C230.29 498.83, 141.39 498.13, -0.22 499.99 M0.26 499.94 C-1.91 382.88, -1.88 266.85, 0.1 -0.09 M0.14 500.09 C-1.98 332.76, -1.77 164.94, -0.05 0.29" stroke="#000000" stroke-width="1" fill="none"></path></g><g stroke-linecap="round" transform="translate(30 30) rotate(0 140 230)"><path d="M1.34 0.05 L279.33 -0.64 L279.99 458.67 L1.19 459.75" stroke="none" stroke-width="0" fill="#ffff"></path><path d="M-1.24 0.67 C70.65 -0.26, 142.37 1.61, 278.66 -0.7 M0.45 0.15 C103.71 0.61, 206.82 0.91, 280.34 -0.4 M279.56 -0.92 C279.91 129.01, 279.94 258.62, 279.37 460.44 M280.11 -0.21 C281.98 144.53, 282.03 289.14, 280.4 459.92 M281 460.44 C190.9 460.18, 102.65 460.48, 1.39 458.76 M280.15 460.63 C169.26 458.41, 58.15 458.71, -0.15 460.03 M0.89 460.15 C2.34 336.09, 1.1 212.42, -0.03 -0.04 M-0.41 459.9 C-0.11 351.49, -0.35 242.05, 0.36 -0.26" stroke="#000000" stroke-width="1" fill="none"></path></g><g stroke-linecap="round" transform="translate(89.8515625 109.8515625) rotate(0 90 20)"><path d="M10 0 M10 0 C61.27 0.92, 112.77 -2.02, 170 0 M10 0 C66.26 0.58, 121.22 -0.1, 170 0 M170 0 C175.24 1.23, 178.42 3.34, 180 10 M170 0 C178.44 1.01, 181.16 2.41, 180 10 M180 10 C178.12 17.04, 181.03 24.32, 180 30 M180 10 C180.67 16.36, 180.72 25.29, 180 30 M180 30 C180.96 35.24, 175.31 39.16, 170 40 M180 30 C181.96 37.03, 175.66 39.85, 170 40 M170 40 C120.99 41.4, 67.15 42.37, 10 40 M170 40 C137.84 39.03, 103.14 38.61, 10 40 M10 40 C4.08 39.13, -1.78 38.36, 0 30 M10 40 C2.51 39.94, 0.3 37.67, 0 30 M0 30 C-2 22.18, -1.53 18.45, 0 10 M0 30 C0.7 23.3, -0.13 15.65, 0 10 M0 10 C0.11 1.85, 1.84 -1.07, 10 0 M0 10 C0.03 3.01, 2.9 -0.46, 10 0" stroke="#000000" stroke-width="1" fill="none"></path></g><g stroke-linecap="round"><g transform="translate(50 70) rotate(0 19.42578125 30)"><path d="M0 0 C0 21.56, 0 43.12, 0 60 M0 0 C0 15.92, 0 31.84, 0 60 M0 60 C10.46 59.99, 20.92 59.98, 38.85 59.96 M0 60 C14.26 59.98, 28.53 59.97, 38.85 59.96" stroke="#000000" stroke-width="1" fill="none"></path></g><g transform="translate(50 70) rotate(0 19.42578125 30)"><path d="M20.6 66.62 C27.16 64.23, 33.72 61.83, 38.85 59.96 M20.6 66.62 C25.45 64.85, 30.29 63.08, 38.85 59.96" stroke="#000000" stroke-width="1" fill="none"></path></g><g transform="translate(50 70) rotate(0 19.42578125 30)"><path d="M20.59 53.33 C27.15 55.71, 33.71 58.09, 38.85 59.96 M20.59 53.33 C25.44 55.09, 30.28 56.85, 38.85 59.96" stroke="#000000" stroke-width="1" fill="none"></path></g></g><mask></mask><g transform="translate(136.8515625 119.8515625) rotate(0 43 10)"><text x="43" y="0" font-family="Cascadia, Segoe UI Emoji" font-size="16px" fill="#000000" text-anchor="middle" style="white-space: pre;" direction="ltr" dominant-baseline="text-before-edge">heartbeat</text></g><g stroke-linecap="round" transform="translate(90 250) rotate(0 90 20)"><path d="M10 0 M10 0 C64.79 -1, 118.21 1.48, 170 0 M10 0 C74.17 -0.98, 138.78 0.1, 170 0 M170 0 C176.71 1.68, 178.22 4.81, 180 10 M170 0 C175.41 -0.39, 180.72 5.34, 180 10 M180 10 C179.61 18.88, 181.25 23.19, 180 30 M180 10 C180.36 15.9, 180.59 21.18, 180 30 M180 30 C181.06 35.53, 176.76 40.79, 170 40 M180 30 C181.9 34.38, 177.69 42.25, 170 40 M170 40 C118.59 39.45, 69.77 40.4, 10 40 M170 40 C118.11 41.21, 67.49 40.28, 10 40 M10 40 C2.39 41.3, 1.12 36.89, 0 30 M10 40 C5.37 41.73, -0.66 38.8, 0 30 M0 30 C0.03 23.47, -0.54 20.54, 0 10 M0 30 C0 25.36, -0.07 21.41, 0 10 M0 10 C1.48 2.79, 4.93 -0.51, 10 0 M0 10 C1.49 3.54, 4.3 -1.22, 10 0" stroke="#000000" stroke-width="1" fill="none"></path></g><g transform="translate(104 260) rotate(0 76 10)"><text x="76" y="0" font-family="Cascadia, Segoe UI Emoji" font-size="16px" fill="#000000" text-anchor="middle" style="white-space: pre;" direction="ltr" dominant-baseline="text-before-edge">cleanup_the_dead</text></g><g stroke-linecap="round" transform="translate(90 390) rotate(0 90 20)"><path d="M10 0 M10 0 C45.65 -0.77, 78.92 -0.46, 170 0 M10 0 C73.2 1.45, 135.77 -0.17, 170 0 M170 0 C175.97 1.64, 179.36 4.81, 180 10 M170 0 C175.96 -1.71, 180.96 1.97, 180 10 M180 10 C179.65 16.31, 180.98 19.69, 180 30 M180 10 C180.93 15.28, 180.58 19.92, 180 30 M180 30 C178.69 36.11, 176.66 39.12, 170 40 M180 30 C182.09 34.79, 175.27 40.58, 170 40 M170 40 C108.37 39.74, 46.94 38.74, 10 40 M170 40 C116.74 41.91, 65.12 41.9, 10 40 M10 40 C1.88 39.7, -1.14 38.34, 0 30 M10 40 C1.19 40.58, -0.49 35.99, 0 30 M0 30 C-0.9 24.76, 1.73 17.66, 0 10 M0 30 C0.41 23.69, -0.48 19.71, 0 10 M0 10 C-0.66 2.44, 2.22 -1.68, 10 0 M0 10 C-1.3 2.72, 1.49 0.33, 10 0" stroke="#000000" stroke-width="1" fill="none"></path></g><g transform="translate(108.5 400) rotate(0 71.5 10)"><text x="71.5" y="0" font-family="Cascadia, Segoe UI Emoji" font-size="16px" fill="#000000" text-anchor="middle" style="white-space: pre;" direction="ltr" dominant-baseline="text-before-edge">register_myself</text></g><g stroke-linecap="round"><g transform="translate(50 70) rotate(0 19.5 170)"><path d="M0 0 C0 80.75, 0 161.51, 0 340 M0 0 C0 90.2, 0 180.41, 0 340 M0 340 C0 340, 0 340, 0 340 M0 340 C0 340, 0 340, 0 340 M0 340 C12.37 340, 24.75 340, 39 340 M0 340 C15.18 340, 30.36 340, 39 340" stroke="#000000" stroke-width="1" fill="none"></path></g><g transform="translate(50 70) rotate(0 19.5 170)"><path d="M20.68 346.67 C25.03 345.09, 29.38 343.5, 39 340 M20.68 346.67 C25.54 344.9, 30.4 343.13, 39 340" stroke="#000000" stroke-width="1" fill="none"></path></g><g transform="translate(50 70) rotate(0 19.5 170)"><path d="M20.68 333.33 C25.03 334.91, 29.38 336.5, 39 340 M20.68 333.33 C25.54 335.1, 30.4 336.87, 39 340" stroke="#000000" stroke-width="1" fill="none"></path></g></g><mask></mask><g stroke-linecap="round"><g transform="translate(50 70) rotate(0 19.5 100)"><path d="M0 0 C0 48.69, 0 97.38, 0 200 M0 0 C0 57.85, 0 115.7, 0 200 M0 200 C12.49 199.55, 24.97 199.11, 39 198.61 M0 200 C11.15 199.6, 22.29 199.2, 39 198.61" stroke="#000000" stroke-width="1" fill="none"></path></g><g transform="translate(50 70) rotate(0 19.5 100)"><path d="M20.91 205.93 C25.32 204.15, 29.72 202.36, 39 198.61 M20.91 205.93 C26.15 203.81, 31.38 201.69, 39 198.61" stroke="#000000" stroke-width="1" fill="none"></path></g><g transform="translate(50 70) rotate(0 19.5 100)"><path d="M20.44 192.59 C24.96 194.06, 29.48 195.52, 39 198.61 M20.44 192.59 C25.81 194.33, 31.18 196.07, 39 198.61" stroke="#000000" stroke-width="1" fill="none"></path></g></g><mask></mask><g stroke-linecap="round"><g transform="translate(271 269.89510113983556) rotate(0 79 -0.3040379049539297)"><path d="M0 0 C26.33 -0.1, 131.67 -0.51, 158 -0.61 M0 0 C26.33 -0.1, 131.67 -0.51, 158 -0.61" stroke="#000000" stroke-width="1" fill="none"></path></g><g transform="translate(271 269.89510113983556) rotate(0 79 -0.3040379049539297)"><path d="M129.85 9.76 C136.61 7.27, 143.37 4.78, 158 -0.61 M129.85 9.76 C139.34 6.26, 148.84 2.77, 158 -0.61" stroke="#000000" stroke-width="1" fill="none"></path></g><g transform="translate(271 269.89510113983556) rotate(0 79 -0.3040379049539297)"><path d="M129.77 -10.76 C136.55 -8.32, 143.33 -5.88, 158 -0.61 M129.77 -10.76 C139.29 -7.34, 148.82 -3.91, 158 -0.61" stroke="#000000" stroke-width="1" fill="none"></path></g></g><mask></mask><g transform="translate(95.89794921875 298.58380126953125) rotate(0 86.5 27.5)"><text x="0" y="0" font-family="Cascadia, Segoe UI Emoji" font-size="9.46938775510204px" fill="#495057" text-anchor="start" style="white-space: pre;" direction="ltr" dominant-baseline="text-before-edge">sscan("super_processes") do |p|</text><text x="0" y="11.000000000000002" font-family="Cascadia, Segoe UI Emoji" font-size="9.46938775510204px" fill="#495057" text-anchor="start" style="white-space: pre;" direction="ltr" dominant-baseline="text-before-edge">  next if exists(p) &gt; 0</text><text x="0" y="22.000000000000004" font-family="Cascadia, Segoe UI Emoji" font-size="9.46938775510204px" fill="#495057" text-anchor="start" style="white-space: pre;" direction="ltr" dominant-baseline="text-before-edge">  # recover from private queues</text><text x="0" y="33.00000000000001" font-family="Cascadia, Segoe UI Emoji" font-size="9.46938775510204px" fill="#495057" text-anchor="start" style="white-space: pre;" direction="ltr" dominant-baseline="text-before-edge">end</text><text x="0" y="44.00000000000001" font-family="Cascadia, Segoe UI Emoji" font-size="9.46938775510204px" fill="#495057" text-anchor="start" style="white-space: pre;" direction="ltr" dominant-baseline="text-before-edge"></text></g><g stroke-linecap="round" transform="translate(430 190) rotate(0 50 80)"><path d="M1.22 -1.11 C34.92 1.53, 68.7 2.23, 100.79 -0.72 M0.28 -0.28 C28.57 -0.57, 59.33 0.02, 100.28 -0.94 M100.13 -1.39 C99.79 61.18, 101.16 121.89, 101.66 160.91 M99.21 -0.7 C100.29 61.04, 100.15 124.05, 99.47 160.93 M99.2 160.27 C72.57 159.27, 48.51 158.51, -0.95 160.32 M100.6 160.4 C60.07 160.02, 20.14 159.8, 0.25 160.79 M0.98 160.64 C0.91 104.57, 2.06 49.3, 1.75 0 M0.79 160.91 C-1.78 97.83, -0.8 36.3, -0.57 -0.69" stroke="#c92a2a" stroke-width="2" fill="none"></path></g><g stroke-linecap="round" transform="translate(451.8157881191314 226.70464040001264) rotate(0 25.929493610261034 15)"><path d="M24.52 -0.66 L50.23 15.9 L25.99 30.55 L-1.51 16.11" stroke="none" stroke-width="0" fill="#c6302b" fill-rule="evenodd"></path><path d="M25.41 -0.91 C31.6 4.58, 40.58 8.5, 53.13 14.65 M25.57 -0.19 C34.71 5.08, 42 11, 52.48 15.32 M51.19 15.04 C43.32 19.76, 37.24 26.35, 26.41 28.1 M52.48 15.71 C45.2 20.8, 36.86 24.71, 26.11 30.15 M24.44 29.92 C18.73 26.71, 8.34 21.98, 1.88 14.25 M25.19 29.11 C16.61 25.45, 8.45 20.43, 0.46 16.99 M-1.17 17.27 C9.78 10.72, 17.59 5.76, 25.83 0.8 M-0.37 15.03 C8.31 9.7, 16.83 4.37, 25.55 0.77" stroke="#000000" stroke-width="1" fill="none"></path></g><g stroke-linecap="round"><g transform="translate(451.49322025603715 237.2563314600734) rotate(0 25.827140346010083 7.146118813162843)" fill-rule="evenodd"><path d="M1.2 1.24 L0.51 5.41 L27.48 14.41 L52.64 2.96 L51.55 0.85 L26.17 11.7 L-1.56 -0.08" stroke="none" stroke-width="0" fill="#912626" fill-rule="evenodd"></path><path d="M-0.35 -0.55 C-0.63 -0.06, -1.1 1.26, -0.77 1.93 C-0.43 2.6, -0.45 2.61, 1.64 3.49 C3.73 4.37, 8.38 5.52, 11.78 7.21 C15.18 8.89, 19.72 12.51, 22.03 13.61 C24.35 14.7, 24.34 13.76, 25.67 13.78 C26.99 13.8, 27.36 14.66, 29.97 13.74 C32.58 12.83, 37.7 9.82, 41.32 8.3 C44.94 6.77, 50.12 5.65, 51.7 4.59 C53.29 3.53, 51.1 2.56, 50.84 1.92 C50.58 1.28, 50.86 0.82, 50.15 0.75 C49.45 0.68, 50.28 0.08, 46.62 1.51 C42.96 2.93, 31.98 7.8, 28.2 9.32 C24.42 10.84, 28.6 12.35, 23.94 10.61 C19.28 8.87, 4.26 0.81, 0.25 -1.14 M1.66 1.78 C1.7 2.57, 1.62 3.03, 1.54 3.53 C1.46 4.03, -0.64 4.06, 1.17 4.78 C2.99 5.51, 9.19 6.29, 12.43 7.89 C15.67 9.49, 18.23 13.61, 20.61 14.38 C23 15.14, 25.12 12.73, 26.76 12.47 C28.41 12.21, 28.23 13.55, 30.49 12.79 C32.75 12.04, 36.94 9.45, 40.3 7.92 C43.66 6.39, 48.84 4.68, 50.66 3.6 C52.47 2.52, 51.31 2.3, 51.18 1.44 C51.06 0.57, 50.32 -1.48, 49.89 -1.59 C49.47 -1.7, 52.27 -0.88, 48.65 0.78 C45.04 2.43, 32.38 6.63, 28.18 8.34 C23.98 10.05, 28.06 12.2, 23.48 11.04 C18.9 9.87, 4.48 3.28, 0.7 1.36" stroke="#000000" stroke-width="1" fill="none"></path></g></g><mask></mask><g stroke-linecap="round"><g transform="translate(451.41257829026335 229.27277684849298) rotate(0 25.827140346010083 7.146118813162843)" fill-rule="evenodd"><path d="M1.24 -0.57 L2.94 4.77 L26.39 15.25 L51.9 3.04 L52 -0.12 L27.52 9.03 L-0.08 1.48" stroke="none" stroke-width="0" fill="#912626" fill-rule="evenodd"></path><path d="M-0.55 -0.77 C-0.36 -0.31, -0.15 1.54, 0.11 2.39 C0.37 3.23, -0.66 3.35, 1.03 4.31 C2.71 5.26, 6.61 6.79, 10.21 8.12 C13.81 9.45, 20.06 11.3, 22.65 12.29 C25.24 13.28, 24.37 13.95, 25.75 14.06 C27.14 14.18, 28.37 13.75, 30.95 13 C33.53 12.25, 37.85 11.22, 41.23 9.56 C44.61 7.9, 49.53 4.48, 51.25 3.03 C52.98 1.59, 51.48 1.44, 51.59 0.88 C51.7 0.33, 52.76 -0.41, 51.9 -0.29 C51.04 -0.17, 50.36 -0.12, 46.44 1.61 C42.52 3.34, 32 8.73, 28.37 10.07 C24.74 11.42, 29.59 11.38, 24.67 9.68 C19.75 7.98, 3.16 1.36, -1.14 -0.14 M1.37 1.44 C1.49 1.58, -0.59 0.41, -0.78 0.56 C-0.97 0.71, -1.57 0.91, 0.23 2.37 C2.03 3.82, 6.48 7.61, 10.03 9.28 C13.59 10.95, 18.74 11.76, 21.55 12.37 C24.36 12.97, 25.15 13.02, 26.89 12.91 C28.63 12.79, 29.78 12.17, 31.99 11.66 C34.21 11.15, 37.17 10.98, 40.17 9.85 C43.16 8.72, 47.95 5.94, 49.97 4.88 C52 3.83, 51.9 4.24, 52.33 3.51 C52.76 2.78, 53.21 0.91, 52.56 0.48 C51.9 0.06, 52.4 -0.56, 48.39 0.94 C44.37 2.44, 32.41 8.04, 28.44 9.49 C24.47 10.93, 29.56 11.33, 24.58 9.62 C19.6 7.91, 2.8 1.05, -1.41 -0.77" stroke="#000000" stroke-width="1" fill="none"></path></g></g><mask></mask><g stroke-linecap="round" transform="translate(451.4932202560376 218.47915989111164) rotate(0 25.929493610261034 10.669552394652897)"><path d="M25.9 -0.01 L52.41 9.49 L26.11 22.52 L-1.44 12.91" stroke="none" stroke-width="0" fill="#c6302b" fill-rule="evenodd"></path><path d="M26.18 0.94 C32.86 4.41, 38.6 6.29, 53.06 10 M26.01 -0.06 C33.62 3.29, 38.6 5.44, 50.94 11.53 M51.36 11.75 C46.88 14.06, 36.12 16.18, 24.14 22.54 M52.47 11.06 C42.94 15.09, 33.25 19.1, 25.89 21.9 M27.28 21.19 C21.51 21.12, 12.72 17.87, -0.74 9.96 M26.43 21.74 C20.67 19.42, 15.71 17.45, 0.38 10.77 M0.66 9.15 C7.9 8.16, 13.28 6.54, 27.19 1.48 M-0.62 10.1 C6.49 7.78, 14.57 4.6, 25.67 -0.81" stroke="#000000" stroke-width="1" fill="none"></path></g><g stroke-linecap="round" transform="translate(451.16363295057863 210) rotate(0 25.929493610261034 10.669552394652897)"><path d="M25.99 0.55 L50.35 11.11 L27.18 19.9 L1.91 11.62" stroke="none" stroke-width="0" fill="#c6302b" fill-rule="evenodd"></path><path d="M26.94 -0.09 C33.78 1.43, 39.26 6.77, 50.86 10.14 M25.94 0.99 C33.96 2.41, 40.55 5.26, 52.39 10.67 M52.61 12.96 C45.72 11.64, 38.57 14.28, 27.2 22.58 M51.92 11.48 C45.04 14.11, 38.29 16.66, 26.56 20.56 M25.85 22.61 C20.12 16.7, 11.46 14.64, -1.04 9.37 M26.4 21.6 C21.01 20.26, 15.81 17.47, -0.23 10.41 M-1.85 12.7 C9.27 7.72, 19.75 4.11, 27.48 -0.73 M-0.9 10.53 C4.89 9.69, 9.88 6.36, 25.19 -0.05" stroke="#000000" stroke-width="1" fill="none"></path></g><g stroke-linecap="round"><g transform="translate(451.08299098480484 220.79361695738135) rotate(0 25.827140346010083 7.146118813162843)" fill-rule="evenodd"><path d="M1.22 0.12 L2.03 3.76 L26.56 15.03 L51.45 3.86 L49.7 0.03 L27.89 11.87 L-0.15 1.27" stroke="none" stroke-width="0" fill="#912626" fill-rule="evenodd"></path><path d="M0.56 -0.05 C0.82 0.1, 0.66 0.29, 0.76 1.01 C0.86 1.73, -0.43 3.18, 1.18 4.27 C2.79 5.35, 7 5.94, 10.42 7.5 C13.84 9.07, 19.06 12.53, 21.7 13.65 C24.34 14.77, 24.67 14.21, 26.28 14.22 C27.9 14.23, 29.02 14.71, 31.39 13.73 C33.75 12.74, 37.48 9.85, 40.49 8.31 C43.49 6.77, 47.61 5.64, 49.41 4.49 C51.2 3.34, 51.02 2.19, 51.25 1.41 C51.48 0.63, 51.41 -0.5, 50.78 -0.19 C50.16 0.12, 51.12 1.82, 47.47 3.26 C43.83 4.7, 32.94 7.64, 28.92 8.48 C24.9 9.32, 28.05 9.61, 23.35 8.32 C18.65 7.03, 4.67 1.95, 0.72 0.74 M-0.6 -1.13 C-0.37 -0.85, 0.03 1.56, 0.21 2.13 C0.39 2.7, -1.22 1.27, 0.47 2.3 C2.16 3.34, 7.08 6.32, 10.35 8.34 C13.63 10.36, 17.22 13.64, 20.11 14.44 C23 15.24, 26.22 13.42, 27.7 13.14 C29.18 12.87, 26.5 13.64, 29 12.77 C31.49 11.91, 39.06 9.49, 42.7 7.93 C46.33 6.38, 49.3 4.65, 50.81 3.44 C52.33 2.23, 51.8 1.12, 51.81 0.65 C51.82 0.18, 51.78 0.17, 50.86 0.64 C49.94 1.11, 49.89 1.77, 46.3 3.45 C42.7 5.13, 33.23 9.42, 29.27 10.72 C25.32 12.01, 27.22 12.89, 22.58 11.2 C17.94 9.51, 5.1 2.56, 1.42 0.58" stroke="#000000" stroke-width="1" fill="none"></path></g></g><mask></mask><g stroke-linecap="round" transform="translate(460.4438350880373 218.09615376502893) rotate(0 5.597501153692747 2.4666954236611787)"><path d="M7.06 0.81 C8.09 1.05, 10.05 1.12, 10.56 1.62 C11.08 2.12, 10.42 3.28, 10.16 3.81 C9.89 4.34, 9.71 4.51, 8.99 4.8 C8.28 5.08, 6.94 5.67, 5.88 5.53 C4.82 5.39, 3.76 4.48, 2.63 3.95 C1.5 3.41, -0.5 2.93, -0.91 2.32 C-1.31 1.71, -0.51 0.72, 0.2 0.28 C0.91 -0.17, 1.75 -0.25, 3.35 -0.33 C4.96 -0.41, 8.76 -0.31, 9.82 -0.21 C10.89 -0.12, 9.94 0.11, 9.75 0.26 M7.25 -1.06 C8.81 -0.96, 10.59 0.78, 11.18 1.28 C11.77 1.78, 10.99 1.48, 10.78 1.93 C10.58 2.39, 10.74 3.62, 9.95 4.03 C9.16 4.44, 7.13 4.12, 6.04 4.38 C4.95 4.64, 4.51 5.67, 3.43 5.6 C2.35 5.53, -0.02 4.71, -0.43 3.96 C-0.85 3.22, 0.32 1.7, 0.93 1.14 C1.54 0.58, 2.52 0.62, 3.24 0.58 C3.95 0.55, 4.51 0.91, 5.22 0.91 C5.92 0.91, 7.31 0.88, 7.48 0.59" stroke="none" stroke-width="0" fill="#ffff"></path><path d="M3.25 -0.29 C4.25 -0.48, 6.18 0.54, 7.38 0.79 C8.59 1.04, 9.71 0.74, 10.49 1.2 C11.28 1.66, 12.43 3.02, 12.09 3.54 C11.75 4.07, 9.71 4, 8.47 4.32 C7.22 4.64, 5.75 5.55, 4.61 5.47 C3.47 5.39, 2.44 4.33, 1.61 3.86 C0.79 3.38, -0.24 2.89, -0.32 2.62 C-0.4 2.34, 0.27 2.78, 1.16 2.19 C2.05 1.6, 4.27 -0.42, 5.05 -0.93 C5.83 -1.44, 5.77 -1.18, 5.85 -0.88 M4.89 0.74 C5.8 0.52, 7.61 0.46, 8.71 0.59 C9.81 0.72, 10.98 1.26, 11.47 1.53 C11.96 1.8, 12.18 1.51, 11.63 2.21 C11.08 2.92, 9.22 5.33, 8.18 5.75 C7.14 6.18, 6.42 4.83, 5.41 4.77 C4.41 4.71, 3.27 5.69, 2.15 5.4 C1.03 5.12, -1.09 3.98, -1.31 3.08 C-1.52 2.19, 0.05 0.77, 0.87 0.04 C1.68 -0.69, 3.03 -1.42, 3.58 -1.3 C4.13 -1.19, 3.83 0.4, 4.15 0.73" stroke="#000000" stroke-width="1" fill="none"></path></g><g stroke-linecap="round"><g transform="translate(470.79446857732364 225.5760350121668) rotate(0 4.839419555297582 0.12419645082638908)" fill-rule="evenodd"><path d="M0.11 1.18 L5.75 4.31 L10.3 -2.7 L-0.59 -0.09" stroke="none" stroke-width="0" fill="#ffff" fill-rule="evenodd"></path><path d="M-0.51 0.07 C2.95 0.41, 4.66 1.48, 7.67 2.41 M-0.26 -0.02 C1.79 0.86, 4.12 1.18, 7.04 2.31 M6.69 2.34 C7.5 1.17, 9.15 -0.83, 10.16 -1.84 M7.23 2.5 C7.9 1.15, 8.49 -0.4, 9.87 -1.99 M8.81 -1.69 C6.49 -1.95, 3.22 -1.68, -0.44 0.43 M10.17 -1.78 C6.59 -1.49, 2.82 -0.33, 0.02 0.16 M0 0 C0 0, 0 0, 0 0 M0 0 C0 0, 0 0, 0 0" stroke="#000000" stroke-width="1" fill="none"></path></g></g><mask></mask><g stroke-linecap="round"><g transform="translate(474.3427150713592 213.25763581861645) rotate(0 2.952919040825236 2.7086213209818197)" fill-rule="evenodd"><path d="M0.93 -0.34 L0.71 1.9 L-3.42 5.13 L2.22 4.45 L3.34 5.55 L3.87 3.15 L5.72 2.75 L2.99 2.69 L6.2 0.13 L2.41 2.81 L1.89 0.37" stroke="none" stroke-width="0" fill="#ffff" fill-rule="evenodd"></path><path d="M0.02 0.13 C0.17 0.5, 0.5 1.31, 0.89 1.96 M-0.01 -0.1 C0.43 0.76, 0.67 1.54, 0.86 2.01 M0.86 1.69 C0.04 2.74, -1.27 3.45, -1.54 3.52 M0.95 1.95 C0.07 2.39, -0.93 3.15, -1.62 3.49 M-1.57 3.39 C-0.73 3.38, 0.31 3.61, 1.6 3.94 M-1.6 3.57 C-0.72 3.48, 0.46 3.68, 1.51 3.66 M1.58 3.97 C2.35 4.5, 2.57 5.26, 3.07 5.64 M1.36 3.76 C1.79 4.32, 2.35 4.89, 3.14 5.9 M3.32 5.82 C3.36 5, 3.6 4.01, 3.63 3.52 M3.3 5.84 C3.48 5.02, 3.5 4.19, 3.8 3.49 M3.51 3.55 C4.62 3.2, 5.69 3.21, 7.96 2.96 M3.56 3.41 C4.82 3.25, 6.14 3.02, 7.47 2.79 M7.32 2.54 C6.29 2.79, 5.75 2.36, 4.5 1.53 M7.49 2.99 C6.88 2.72, 6.24 2.42, 4.28 1.92 M4.05 1.96 C4.76 1.08, 4.86 0.58, 5.3 -0.59 M4.31 1.82 C4.58 1.17, 4.87 0.63, 5.28 -0.51 M5.6 -0.29 C4.54 0, 3.25 0.81, 2.42 0.88 M5.18 -0.51 C4.63 -0.15, 4 0.02, 2.5 0.69 M2.71 0.65 C1.49 0.67, 1 0.47, 0.06 0.04 M2.37 0.88 C1.94 0.57, 1.32 0.36, 0 0.06 M0 0 C0 0, 0 0, 0 0 M0 0 C0 0, 0 0, 0 0" stroke="#000000" stroke-width="1" fill="none"></path></g></g><mask></mask><g stroke-linecap="round"><g transform="translate(489.03560825614386 217.89400150693587) rotate(0 0 2.4192589732061833)" fill-rule="evenodd"><path d="M1.97 1.67 L4.27 0.49 L-1.63 6.09 L-4.39 3.12 L1.25 -1.79 L-1.7 -1.73" stroke="none" stroke-width="0" fill="#912626" fill-rule="evenodd"></path><path d="M0.39 -0.33 C1.9 0.75, 4.79 1.76, 6.01 3.07 M-0.3 0.17 C2.06 0.72, 4.24 1.67, 6.17 2.74 M5.42 2.82 C4.43 2.99, 2.62 4.37, -0.2 5.16 M6.01 2.61 C3.83 3.18, 2.39 4.16, -0.27 5.05 M-0.48 4.51 C-3.02 3.35, -5.08 3.23, -5.8 2.58 M-0.12 4.76 C-2.46 4.25, -4.26 3.31, -6.34 2.69 M-5.66 2.9 C-4.53 1.06, -2.87 0.58, -0.59 -0.3 M-6.16 2.15 C-4.54 1.85, -2.9 0.99, 0.02 0.19 M0 0 C0 0, 0 0, 0 0 M0 0 C0 0, 0 0, 0 0 M0 0 C0 0, 0 0, 0 0 M0 0 C0 0, 0 0, 0 0" stroke="#000000" stroke-width="1" fill="none"></path></g></g><mask></mask><g stroke-linecap="round"><g transform="translate(488.4135889210311 217.74796531073412) rotate(0 0.062032281364281516 2.4192589732061833)"><path d="M-0.24 -0.21 C-0.06 1.43, 0.07 2.22, 0.61 5.14 M0.13 -0.08 C-0.09 1.03, -0.01 2.34, 0.36 4.89" stroke="#000000" stroke-width="1" fill="none"></path></g></g><mask></mask><g stroke-linecap="round"><g transform="translate(270.8515625 129.9015639459643) rotate(0 99.57421875 30.049218027017844)"><path d="M0 0 C29.86 0.02, 145.96 -9.92, 179.15 0.1 C212.34 10.11, 195.82 50.1, 199.15 60.1 M0 0 C29.86 0.02, 145.96 -9.92, 179.15 0.1 C212.34 10.11, 195.82 50.1, 199.15 60.1" stroke="#000000" stroke-width="1" fill="none"></path></g><g transform="translate(270.8515625 129.9015639459643) rotate(0 99.57421875 30.049218027017844)"><path d="M189.77 31.6 C192.21 39.01, 194.65 46.43, 199.15 60.1 M189.77 31.6 C191.82 37.83, 193.87 44.05, 199.15 60.1" stroke="#000000" stroke-width="1" fill="none"></path></g><g transform="translate(270.8515625 129.9015639459643) rotate(0 99.57421875 30.049218027017844)"><path d="M210.28 32.24 C207.39 39.49, 204.49 46.73, 199.15 60.1 M210.28 32.24 C207.85 38.33, 205.42 44.41, 199.15 60.1" stroke="#000000" stroke-width="1" fill="none"></path></g></g><mask></mask><g stroke-linecap="round"><g transform="translate(271 410) rotate(0 99.5 -30)"><path d="M0 0 C29.83 0, 145.83 10, 179 0 C212.17 -10, 195.67 -50, 199 -60 M0 0 C29.83 0, 145.83 10, 179 0 C212.17 -10, 195.67 -50, 199 -60" stroke="#000000" stroke-width="1" fill="none"></path></g><g transform="translate(271 410) rotate(0 99.5 -30)"><path d="M210.13 -32.14 C206.94 -40.11, 203.76 -48.09, 199 -60 M210.13 -32.14 C207.13 -39.63, 204.14 -47.13, 199 -60" stroke="#000000" stroke-width="1" fill="none"></path></g><g transform="translate(271 410) rotate(0 99.5 -30)"><path d="M189.62 -31.51 C192.3 -39.66, 194.99 -47.82, 199 -60 M189.62 -31.51 C192.14 -39.17, 194.66 -46.84, 199 -60" stroke="#000000" stroke-width="1" fill="none"></path></g></g><mask></mask><g stroke-linecap="round" transform="translate(30 30) rotate(0 50 20)"><path d="M0 0 C27.74 0, 55.47 0, 100 0 M100 0 C100 14.45, 100 28.9, 100 40 M100 40 C74.55 40, 49.11 40, 0 40 M0 40 C0 27.1, 0 14.2, 0 0" stroke="#000000" stroke-width="1.5" fill="none" stroke-dasharray="8 9"></path></g><g transform="translate(48.5 40) rotate(0 31.5 10)"><text x="31.5" y="0" font-family="Virgil, Segoe UI Emoji" font-size="16px" fill="#000000" text-anchor="middle" style="white-space: pre;" direction="ltr" dominant-baseline="text-before-edge">startup</text></g><g transform="translate(346.76513671875 91.45965576171875) rotate(0 56.5 11)"><text x="0" y="0" font-family="Cascadia, Segoe UI Emoji" font-size="9.46938775510204px" fill="#495057" text-anchor="start" style="white-space: pre;" direction="ltr" dominant-baseline="text-before-edge">hmset(identity)</text><text x="0" y="11.000000000000002" font-family="Cascadia, Segoe UI Emoji" font-size="9.46938775510204px" fill="#495057" text-anchor="start" style="white-space: pre;" direction="ltr" dominant-baseline="text-before-edge">expire(identity, 60)</text></g><g transform="translate(346.1597900390625 425.93658447265625) rotate(0 92.5 5.5)"><text x="0" y="0" font-family="Cascadia, Segoe UI Emoji" font-size="9.46938775510204px" fill="#495057" text-anchor="start" style="white-space: pre;" direction="ltr" dominant-baseline="text-before-edge">sadd("super_processes", identity)</text></g><g transform="translate(449.5 321) rotate(0 30.5 12)"><text x="30.5" y="0" font-family="Cascadia, Segoe UI Emoji" font-size="20px" fill="#c92a2a" text-anchor="middle" style="white-space: pre;" direction="ltr" dominant-baseline="text-before-edge">Redis</text></g><g transform="translate(221 35) rotate(0 42 12)"><text x="84" y="0" font-family="Cascadia, Segoe UI Emoji" font-size="20px" fill="#a61e4d" text-anchor="end" style="white-space: pre;" direction="ltr" dominant-baseline="text-before-edge">Sidekiq</text></g><g stroke-linecap="round"><g transform="translate(130.36543561374333 150.8515625) rotate(0 51.01348085240522 19.57421875)"><path d="M0 0 C3.27 6.52, 6.36 32.62, 19.63 39.15 C32.91 45.67, 65.9 45.67, 79.63 39.15 C93.37 32.62, 98.29 6.52, 102.03 0 M0 0 C3.27 6.52, 6.36 32.62, 19.63 39.15 C32.91 45.67, 65.9 45.67, 79.63 39.15 C93.37 32.62, 98.29 6.52, 102.03 0" stroke="#000000" stroke-width="1" fill="none"></path></g><g transform="translate(130.36543561374333 150.8515625) rotate(0 51.01348085240522 19.57421875)"><path d="M101.61 22.55 C101.76 14.58, 101.91 6.62, 102.03 0 M101.61 22.55 C101.74 15.79, 101.86 9.02, 102.03 0" stroke="#000000" stroke-width="1" fill="none"></path></g><g transform="translate(130.36543561374333 150.8515625) rotate(0 51.01348085240522 19.57421875)"><path d="M87.22 17.01 C92.45 11, 97.68 4.99, 102.03 0 M87.22 17.01 C91.66 11.91, 96.1 6.81, 102.03 0" stroke="#000000" stroke-width="1" fill="none"></path></g></g><mask></mask><g transform="translate(153.5823974609375 165.9547119140625) rotate(0 26 11)"><text x="26" y="0" font-family="Cascadia, Segoe UI Emoji" font-size="9.46938775510204px" fill="#343a40" text-anchor="middle" style="white-space: pre;" direction="ltr" dominant-baseline="text-before-edge">every</text><text x="26" y="11.000000000000002" font-family="Cascadia, Segoe UI Emoji" font-size="9.46938775510204px" fill="#343a40" text-anchor="middle" style="white-space: pre;" direction="ltr" dominant-baseline="text-before-edge">5 seconds</text></g></svg>