<svg version="1.1" xmlns="http://www.w3.org/2000/svg" viewBox="0 0 541.1597900390625 520" width="1082.319580078125" height="1040">
  <!-- svg-source:excalidraw -->
  
  <defs>
    <style class="style-fonts">
      @font-face {
        font-family: "Virgil";
        src: url('/fonts/Virgil.woff2') format('woff2');
      }
      @font-face {
        font-family: "Cascadia";
        src: url('/fonts/Cascadia.woff2') format('woff2');
      }
    </style>
    
  </defs>
  <g stroke-linecap="round" transform="translate(10 10) rotate(0 160 250)"><path d="M0 0 C0 0, 0 0, 0 0 M0 0 C0 0, 0 0, 0 0 M-0.26 6.4 C1.46 5.27, 1.88 4.18, 4.99 0.36 M-0.26 6.4 C1.88 3.83, 4.02 1.69, 4.99 0.36 M0.13 12.04 C1.18 7.78, 4.31 4.79, 10.63 -0.03 M0.13 12.04 C3.93 8.37, 7.96 3.41, 10.63 -0.03 M-0.13 18.44 C3.74 11.04, 13.32 4.33, 15.62 0.33 M-0.13 18.44 C5.9 13.35, 9.33 7.24, 15.62 0.33 M0.27 24.08 C4.9 17.81, 13.31 9.35, 21.26 -0.07 M0.27 24.08 C5.45 16.26, 11.7 10.71, 21.26 -0.07 M0 30.48 C7.76 21.7, 17.23 9.53, 26.25 0.29 M0 30.48 C9.61 19.98, 19.78 8.5, 26.25 0.29 M-0.26 36.88 C12.3 22.75, 21.99 13.59, 31.89 -0.1 M-0.26 36.88 C6.54 29.38, 13.28 22.42, 31.89 -0.1 M0.14 42.52 C11.65 27.67, 24.24 15.33, 36.88 0.26 M0.14 42.52 C14.61 26.5, 27.64 11.05, 36.88 0.26 M-0.12 48.92 C6.87 37.14, 15.04 26.77, 42.52 -0.14 M-0.12 48.92 C10.95 36.67, 21.32 24.48, 42.52 -0.14 M0.27 54.56 C16.46 37.42, 31.12 20.81, 47.51 0.22 M0.27 54.56 C14.81 38.33, 29.14 21.2, 47.51 0.22 M0.01 60.96 C9.65 45.91, 24.56 35.52, 53.15 -0.17 M0.01 60.96 C17.73 38.36, 38.4 16.31, 53.15 -0.17 M-0.25 67.36 C21.52 41.18, 46.62 16.56, 58.14 0.19 M-0.25 67.36 C12.51 51.3, 26.69 35.21, 58.14 0.19 M0.14 73 C15.33 58.32, 30.4 39.13, 63.78 -0.21 M0.14 73 C18 55, 33.24 35.72, 63.78 -0.21 M-0.12 79.4 C18.57 58.61, 35.27 38.63, 68.77 0.15 M-0.12 79.4 C21.32 54.62, 44.85 28.31, 68.77 0.15 M0.28 85.04 C18.13 63.36, 34.52 45.34, 74.41 -0.24 M0.28 85.04 C24.1 55.3, 49.37 27.95, 74.41 -0.24 M0.01 91.44 C21.9 64.53, 45.3 39.23, 79.4 0.12 M0.01 91.44 C22.91 66.74, 44.33 41.6, 79.4 0.12 M-0.25 97.84 C32 59.2, 64.85 19, 85.04 -0.28 M-0.25 97.84 C27.45 66.54, 55.59 33.83, 85.04 -0.28 M0.15 103.48 C18.6 80.66, 39.84 56.72, 90.03 0.08 M0.15 103.48 C23.71 75.54, 48 47.3, 90.03 0.08 M-0.11 109.88 C32.59 70.02, 70.51 29.24, 95.67 -0.31 M-0.11 109.88 C20.96 84.19, 42.6 60.56, 95.67 -0.31 M0.28 115.52 C35.16 75.46, 66.71 37.61, 100.66 0.05 M0.28 115.52 C23.44 89.55, 44.09 63.39, 100.66 0.05 M0.02 121.92 C41.99 74.88, 85.68 26.75, 106.3 -0.34 M0.02 121.92 C41.08 74.49, 84.79 25.47, 106.3 -0.34 M-0.24 128.32 C30.9 96.94, 56.32 62.09, 111.29 0.02 M-0.24 128.32 C36.87 85.13, 75.39 39.52, 111.29 0.02 M0.15 133.96 C27.1 99.48, 54.79 70.15, 116.27 0.38 M0.15 133.96 C28.71 98.99, 60.13 65.11, 116.27 0.38 M-0.11 140.36 C38.9 92.3, 78.24 46.57, 121.92 -0.02 M-0.11 140.36 C43.1 90.44, 88.87 37.09, 121.92 -0.02 M0.29 146 C27.54 118.27, 52.41 88.43, 126.91 0.34 M0.29 146 C27.5 114.75, 53.88 85.38, 126.91 0.34 M0.02 152.4 C36.8 109.32, 75.86 67.55, 132.55 -0.05 M0.02 152.4 C41.85 104.62, 82.91 57.11, 132.55 -0.05 M-0.24 158.8 C45.48 105.08, 90.29 54.68, 137.54 0.31 M-0.24 158.8 C34.29 120.41, 70.07 79.8, 137.54 0.31 M0.16 164.44 C44.12 112.42, 86.18 63.88, 143.18 -0.09 M0.16 164.44 C47.85 111.83, 94.72 57.32, 143.18 -0.09 M-0.1 170.84 C32.16 136.53, 61.04 103.54, 148.17 0.27 M-0.1 170.84 C30.8 134.1, 64.89 96.27, 148.17 0.27 M0.29 176.48 C38.69 133.22, 76.56 90.57, 153.81 -0.12 M0.29 176.48 C43.03 129.03, 83.34 81.42, 153.81 -0.12 M0.03 182.88 C56.42 118.7, 112.61 53.01, 158.8 0.24 M0.03 182.88 C54.03 121.88, 107.24 60.9, 158.8 0.24 M-0.23 189.27 C57.82 121.87, 116.48 54.5, 164.44 -0.16 M-0.23 189.27 C45.45 134.47, 93.12 80.01, 164.44 -0.16 M0.16 194.92 C42.15 147, 85.44 99.49, 169.43 0.2 M0.16 194.92 C41.99 147.56, 82.54 100.82, 169.43 0.2 M-0.1 201.32 C63.75 125, 132.03 50.44, 175.07 -0.19 M-0.1 201.32 C46.36 147.78, 92.85 93.87, 175.07 -0.19 M0.3 206.96 C52.2 142.66, 107.39 81.52, 180.06 0.17 M0.3 206.96 C73.5 124.99, 144.75 42.55, 180.06 0.17 M0.03 213.36 C45.28 163.44, 87.96 114.39, 185.7 -0.23 M0.03 213.36 C70.79 131.1, 140.17 51.53, 185.7 -0.23 M-0.23 219.75 C48.14 163.97, 95.51 110.56, 190.69 0.13 M-0.23 219.75 C50.88 163.15, 99.58 106.53, 190.69 0.13 M0.17 225.4 C65 150.08, 130.81 75.73, 196.33 -0.26 M0.17 225.4 C60.76 155.8, 123.06 84.38, 196.33 -0.26 M-0.09 231.8 C80.45 139.16, 157.89 50.92, 201.32 0.1 M-0.09 231.8 C55.81 163.71, 113.94 96.97, 201.32 0.1 M0.3 237.44 C66.02 163.52, 127.26 92.49, 206.96 -0.3 M0.3 237.44 C55.63 171.85, 112.29 107.69, 206.96 -0.3 M0.04 243.84 C74.96 157.8, 149.19 73.03, 211.95 0.06 M0.04 243.84 C79.14 154.01, 157.21 63.39, 211.95 0.06 M-0.22 250.23 C50.2 192.24, 99.47 135.68, 217.59 -0.33 M-0.22 250.23 C78.98 159.41, 158.49 68.51, 217.59 -0.33 M0.17 255.88 C67.95 175.28, 134.91 97.27, 222.58 0.03 M0.17 255.88 C86.55 155.46, 173.84 55.23, 222.58 0.03 M-0.09 262.27 C51.64 204.11, 103.46 143.75, 228.22 -0.36 M-0.09 262.27 C48.82 206.54, 95.15 152.65, 228.22 -0.36 M0.3 267.92 C84.06 170.83, 169.07 73.94, 233.21 0 M0.3 267.92 C58.22 200.95, 115.48 134.23, 233.21 0 M0.04 274.32 C57.32 208.43, 114.48 140.74, 238.19 0.36 M0.04 274.32 C78.09 184.46, 155.37 96.45, 238.19 0.36 M-0.22 280.71 C89.77 175.17, 182.55 70.48, 243.84 -0.04 M-0.22 280.71 C63.03 210.04, 123.97 139.67, 243.84 -0.04 M0.18 286.36 C68.79 205.93, 137.46 125.43, 248.82 0.32 M0.18 286.36 C89.19 184.78, 177.72 84.2, 248.82 0.32 M-0.08 292.75 C82.18 197.33, 167.28 100.9, 254.47 -0.07 M-0.08 292.75 C78.62 200.8, 158.47 108.54, 254.47 -0.07 M0.31 298.4 C96.3 189.16, 192.08 76.1, 259.45 0.29 M0.31 298.4 C65.57 225.19, 128.47 151.51, 259.45 0.29 M0.05 304.8 C97.33 191.42, 193.13 81.96, 265.1 -0.11 M0.05 304.8 C97.11 195.05, 192.82 85.27, 265.1 -0.11 M-0.21 311.19 C53.4 248.98, 107.52 186.69, 270.08 0.25 M-0.21 311.19 C68.29 233.41, 135.81 155.59, 270.08 0.25 M0.18 316.84 C99.25 205.52, 195.13 92.66, 275.73 -0.14 M0.18 316.84 C92.46 211.82, 183.65 107.08, 275.73 -0.14 M-0.08 323.23 C82.71 231.07, 162.53 138.53, 280.71 0.22 M-0.08 323.23 C93.85 215.57, 187.04 108.47, 280.71 0.22 M0.31 328.88 C88.98 227.86, 178.59 124.34, 286.36 -0.18 M0.31 328.88 C103.86 210.1, 207.3 90.54, 286.36 -0.18 M0.05 335.27 C111.87 204.88, 225.41 75.4, 291.34 0.18 M0.05 335.27 C106.08 211.14, 213.26 86.98, 291.34 0.18 M-0.21 341.67 C117.15 208.98, 231.95 75.72, 296.99 -0.21 M-0.21 341.67 C62.55 267.7, 126.15 194.32, 296.99 -0.21 M0.19 347.32 C93.11 241.14, 185.78 136.67, 301.97 0.15 M0.19 347.32 C103.74 227.25, 206.41 109.39, 301.97 0.15 M-0.08 353.71 C87.81 250.48, 175.02 149.49, 307.62 -0.25 M-0.08 353.71 C74.92 267.2, 150.56 179.6, 307.62 -0.25 M0.32 359.36 C86.7 260.13, 173.77 160.05, 312.6 0.11 M0.32 359.36 C105.95 237.73, 212.74 114.82, 312.6 0.11 M0.06 365.75 C75.1 279.4, 151.98 191.36, 318.25 -0.28 M0.06 365.75 C72.43 280.31, 146.42 195.74, 318.25 -0.28 M-0.2 372.15 C124.32 228.45, 250.03 85.46, 321.92 1.59 M-0.2 372.15 C119.93 233.99, 240.53 94.78, 321.92 1.59 M0.19 377.79 C71.44 294.32, 144.09 213.26, 321.66 7.99 M0.19 377.79 C113.59 245.26, 227.48 115.04, 321.66 7.99 M-0.07 384.19 C114.93 251.37, 228.99 118.97, 322.05 13.63 M-0.07 384.19 C112.99 254.63, 225.61 124.42, 322.05 13.63 M0.32 389.84 C114.59 258.42, 229.28 128.38, 321.79 20.03 M0.32 389.84 C65.7 315.41, 130.72 240.34, 321.79 20.03 M0.06 396.23 C112.48 269.1, 225.83 138.98, 322.19 25.67 M0.06 396.23 C93.81 289.2, 186.49 183.05, 322.19 25.67 M-0.2 402.63 C94.85 293.05, 187.1 186.23, 321.93 32.07 M-0.2 402.63 C122.36 263.28, 244.18 123.35, 321.93 32.07 M0.2 408.27 C116.85 274.05, 234.92 139.34, 321.66 38.47 M0.2 408.27 C103.28 290.28, 205.99 172.06, 321.66 38.47 M-0.07 414.67 C73.38 327.25, 149.49 241.58, 322.06 44.11 M-0.07 414.67 C93.63 306.86, 187.63 199.57, 322.06 44.11 M-0.33 421.07 C80.53 327.11, 161.94 232.87, 321.8 50.51 M-0.33 421.07 C90.24 315.77, 181.66 210.28, 321.8 50.51 M0.07 426.71 C105.53 306.43, 208.45 187.45, 322.19 56.15 M0.07 426.71 C117.21 293.24, 233.53 159.68, 322.19 56.15 M-0.19 433.11 C95.84 323.11, 192.13 213.86, 321.93 62.55 M-0.19 433.11 C105.5 310.29, 211.86 187.97, 321.93 62.55 M0.2 438.75 C73.43 354.54, 148.52 266.92, 321.67 68.95 M0.2 438.75 C68.36 359.8, 137.34 279.99, 321.67 68.95 M-0.06 445.15 C68.83 363.78, 139.39 283.84, 322.06 74.59 M-0.06 445.15 C100.96 327.58, 203.64 210.02, 322.06 74.59 M-0.32 451.55 C124.53 307.72, 249.64 162.62, 321.8 80.99 M-0.32 451.55 C95.53 341.85, 189.42 233.77, 321.8 80.99 M0.07 457.19 C123.44 314.09, 247.45 171.31, 322.2 86.63 M0.07 457.19 C68.29 377.36, 136.8 298.25, 322.2 86.63 M-0.19 463.59 C113.05 331.36, 226.54 201.75, 321.94 93.03 M-0.19 463.59 C76.21 375.47, 153.23 286.1, 321.94 93.03 M0.21 469.23 C66.24 393.15, 132.67 318.74, 321.67 99.43 M0.21 469.23 C95.84 359.78, 191.02 251.71, 321.67 99.43 M-0.06 475.63 C73.85 392.05, 145.25 309.2, 322.07 105.07 M-0.06 475.63 C102.35 357.94, 203.96 240.53, 322.07 105.07 M-0.32 482.03 C103.84 361.62, 207.46 242.28, 321.81 111.47 M-0.32 482.03 C112.01 354.95, 223.33 226.64, 321.81 111.47 M0.08 487.67 C79.62 395.61, 160.53 304.63, 322.2 117.11 M0.08 487.67 C125.43 346.16, 249.95 203.05, 322.2 117.11 M-0.18 494.07 C71.07 410.55, 145.66 324.89, 321.94 123.51 M-0.18 494.07 C87.1 394.2, 172.99 295, 321.94 123.51 M0.21 499.71 C64.45 424.89, 129.68 349.29, 321.68 129.91 M0.21 499.71 C102.5 379.81, 206.66 259.65, 321.68 129.91 M3.23 502.34 C83.38 409.76, 163.12 319.58, 322.07 135.55 M3.23 502.34 C85.27 406.31, 168.13 311.25, 322.07 135.55 M8.22 502.7 C75.19 425.64, 141.95 346.71, 321.81 141.95 M8.22 502.7 C76.68 426.07, 144.14 347.75, 321.81 141.95 M13.86 502.3 C123.53 376.94, 232.95 251.57, 322.21 147.59 M13.86 502.3 C88.33 417.03, 162.93 331.68, 322.21 147.59 M18.85 502.66 C123.3 380.27, 229.62 258.6, 321.95 153.99 M18.85 502.66 C127.31 379.03, 235.05 255.45, 321.95 153.99 M24.49 502.27 C128.86 383.13, 234.93 262.68, 321.68 160.38 M24.49 502.27 C95.33 424.79, 164.11 344.97, 321.68 160.38 M29.48 502.63 C91.33 432.39, 153.61 360.27, 322.08 166.03 M29.48 502.63 C103.88 419.29, 175.71 335.13, 322.08 166.03 M35.12 502.23 C118.42 404.07, 203.86 305.74, 321.82 172.43 M35.12 502.23 C140.61 379.18, 245.7 258.49, 321.82 172.43 M40.11 502.59 C136.99 392.52, 233.62 280.61, 321.56 178.82 M40.11 502.59 C99.08 435.73, 157.22 368.88, 321.56 178.82 M45.09 502.95 C118.93 416.24, 195.47 329.32, 321.95 184.47 M45.09 502.95 C127.25 410.9, 208.9 317.87, 321.95 184.47 M50.74 502.56 C113.49 430.08, 175.96 357.48, 321.69 190.86 M50.74 502.56 C146.53 392.73, 240.49 283.53, 321.69 190.86 M55.72 502.92 C112.91 435.52, 171.98 369.98, 322.08 196.51 M55.72 502.92 C148.98 393.92, 243.95 284.79, 322.08 196.51 M61.37 502.52 C141.21 411.54, 221.72 318, 321.82 202.91 M61.37 502.52 C117.54 439.8, 173.53 375.74, 321.82 202.91 M66.35 502.88 C143.85 415.26, 220 327.92, 321.56 209.3 M66.35 502.88 C121.77 439.97, 178.21 374.67, 321.56 209.3 M72 502.49 C154.83 406.27, 238.09 310.1, 321.96 214.95 M72 502.49 C157.68 404.47, 242.76 306.51, 321.96 214.95 M76.98 502.85 C158.28 406.54, 242.37 313.81, 321.69 221.34 M76.98 502.85 C138.16 429.62, 201.47 356.67, 321.69 221.34 M82.63 502.46 C137.64 440.79, 192.34 378.54, 322.09 226.99 M82.63 502.46 C147.05 428.78, 212.91 353.42, 322.09 226.99 M87.61 502.82 C174.55 402.11, 264.7 300.65, 321.83 233.38 M87.61 502.82 C169.87 410.9, 252.06 317.87, 321.83 233.38 M93.26 502.42 C146.01 442.74, 195.68 383.41, 321.57 239.78 M93.26 502.42 C179 402.44, 265.3 302.92, 321.57 239.78 M98.24 502.78 C167.84 420.28, 237.09 341.68, 321.96 245.43 M98.24 502.78 C158.89 430.56, 221.6 359.34, 321.96 245.43 M103.89 502.39 C172.14 422.09, 242.2 343.03, 321.7 251.82 M103.89 502.39 C154.32 446.21, 202.42 390.7, 321.7 251.82 M108.87 502.75 C169.39 433.35, 228.22 363.3, 322.09 257.47 M108.87 502.75 C184.21 417.17, 257.98 330.73, 322.09 257.47 M114.52 502.35 C164.96 444.17, 214.75 386.08, 321.83 263.86 M114.52 502.35 C195.85 409.84, 276.45 317.13, 321.83 263.86 M119.5 502.71 C172.4 439.39, 227.27 378.73, 321.57 270.26 M119.5 502.71 C192.89 416.28, 268.51 331.35, 321.57 270.26 M125.15 502.32 C177.85 442.83, 230.6 380.71, 321.97 275.9 M125.15 502.32 C175.4 444.64, 226.63 386.25, 321.97 275.9 M130.13 502.68 C180.61 443.83, 233.09 385.58, 321.7 282.3 M130.13 502.68 C180.01 446.56, 227.82 390.22, 321.7 282.3 M135.78 502.28 C170.75 459.04, 209.89 415.56, 322.1 287.95 M135.78 502.28 C178.47 453.01, 223.11 402.38, 322.1 287.95 M140.76 502.64 C203.51 429.32, 269.17 355.63, 321.84 294.34 M140.76 502.64 C184.24 452.75, 228.05 402.47, 321.84 294.34 M146.41 502.25 C215.46 420.08, 285.47 343.2, 321.58 300.74 M146.41 502.25 C201.37 438.63, 257.54 373.17, 321.58 300.74 M151.39 502.61 C188.14 459.18, 225.78 415.92, 321.97 306.38 M151.39 502.61 C193.4 453.68, 234.43 404.66, 321.97 306.38 M156.38 502.97 C215.55 437.87, 270.6 371.81, 321.71 312.78 M156.38 502.97 C211.5 439.95, 267.11 376.02, 321.71 312.78 M162.02 502.57 C227.24 427.96, 290.77 353.83, 322.1 318.43 M162.02 502.57 C216.15 439.78, 271.02 377.83, 322.1 318.43 M167.01 502.93 C212.62 453.43, 256.19 401.34, 321.84 324.82 M167.01 502.93 C215.4 448.69, 261.5 394.43, 321.84 324.82 M172.65 502.54 C212.53 457.92, 253.35 411.83, 321.58 331.22 M172.65 502.54 C209.93 458.93, 248.37 415.16, 321.58 331.22 M177.64 502.9 C234.23 440.53, 287.01 376.89, 321.97 336.86 M177.64 502.9 C215.09 459.87, 251.04 418.07, 321.97 336.86 M183.28 502.51 C219.22 464.05, 252.41 422.9, 321.71 343.26 M183.28 502.51 C220.18 459.3, 257.04 415.4, 321.71 343.26 M188.27 502.87 C236.9 445.3, 282.76 393.66, 322.11 348.9 M188.27 502.87 C220.87 466.62, 251.42 429.2, 322.11 348.9 M193.91 502.47 C218.82 468.88, 249.08 440, 321.85 355.3 M193.91 502.47 C237.53 448.39, 283.31 397.59, 321.85 355.3 M198.9 502.83 C230.46 463.95, 261.83 429.49, 321.58 361.7 M198.9 502.83 C236.25 459, 275.21 413.97, 321.58 361.7 M204.54 502.44 C235.36 469.28, 263.72 433.51, 321.98 367.34 M204.54 502.44 C251.99 450.31, 296.98 397.84, 321.98 367.34 M209.53 502.8 C243.63 467.03, 277.46 428.34, 321.72 373.74 M209.53 502.8 C248.15 460.82, 284.93 416.69, 321.72 373.74 M215.18 502.4 C246.44 466.76, 277.65 428.63, 322.11 379.38 M215.18 502.4 C254.45 456.25, 296 410.73, 322.11 379.38 M220.16 502.76 C258.23 456.78, 298.23 413.97, 321.85 385.78 M220.16 502.76 C257.6 458.74, 294.17 416.63, 321.85 385.78 M225.81 502.37 C258.31 463.94, 289.34 430.66, 321.59 392.18 M225.81 502.37 C247.12 479.56, 266.11 456.02, 321.59 392.18 M230.79 502.73 C251.75 480.68, 269.85 456.85, 321.98 397.82 M230.79 502.73 C258.71 468.45, 288.52 436.48, 321.98 397.82 M236.44 502.33 C268.64 462.95, 303.54 424.73, 321.72 404.22 M236.44 502.33 C261.81 472.83, 287.91 442.17, 321.72 404.22 M241.42 502.69 C256.51 483.94, 272.2 462.83, 322.12 409.86 M241.42 502.69 C260.74 479.19, 281.59 456.32, 322.12 409.86 M247.07 502.3 C270.9 472.86, 297.41 444.44, 321.86 416.26 M247.07 502.3 C276.35 471.04, 303.33 437.24, 321.86 416.26 M252.05 502.66 C274.75 479.24, 295.12 452.71, 321.59 422.66 M252.05 502.66 C273.14 480.84, 292.81 457.72, 321.59 422.66 M257.7 502.26 C274.73 485, 291.61 462.98, 321.99 428.3 M257.7 502.26 C274.37 483.49, 290.14 464.68, 321.99 428.3 M262.68 502.62 C276.51 489.67, 289.16 474.74, 321.73 434.7 M262.68 502.62 C280.15 480.8, 300.33 460.13, 321.73 434.7 M268.33 502.23 C283.58 482.64, 300.55 461.94, 322.12 440.34 M268.33 502.23 C283.28 485.53, 299.41 467.3, 322.12 440.34 M273.31 502.59 C291.93 479.44, 311.2 460.84, 321.86 446.74 M273.31 502.59 C286.77 485.85, 299.86 471.01, 321.86 446.74 M278.3 502.95 C288.52 489.86, 302.6 474.62, 321.6 453.14 M278.3 502.95 C292.6 486.49, 305.79 471.72, 321.6 453.14 M283.94 502.56 C299.29 484.76, 313.25 467.55, 321.99 458.78 M283.94 502.56 C294.33 490.36, 305.95 477.15, 321.99 458.78 M288.93 502.92 C299.99 487.95, 313 474.46, 321.73 465.18 M288.93 502.92 C300.28 490.47, 309.3 478.92, 321.73 465.18 M294.57 502.52 C302.44 490.3, 311.42 480.52, 322.13 470.82 M294.57 502.52 C301.92 494.35, 311.26 484.28, 322.13 470.82 M299.56 502.88 C306.5 494.1, 313.13 490.06, 321.87 477.22 M299.56 502.88 C306.25 494.52, 315.16 485.02, 321.87 477.22 M305.2 502.49 C308.24 494.8, 316.55 492.65, 321.6 483.62 M305.2 502.49 C309.72 498.53, 313.14 492.77, 321.6 483.62 M310.19 502.85 C312.67 500.12, 316.09 494.02, 322 489.26 M310.19 502.85 C314.67 497.5, 317.96 493.35, 322 489.26 M315.83 502.45 C317.86 500.45, 318.6 497.83, 321.74 495.66 M315.83 502.45 C317.65 500.83, 319.45 498.84, 321.74 495.66" stroke="#e64980" stroke-width="0.5" fill="none"></path><path d="M0 0 C116.35 -2.35, 230.61 -1.21, 320 0 M0 0 C119.9 0.01, 240.52 0.07, 320 0 M320 0 C321.84 171.29, 321.96 342.43, 320 500 M320 0 C318.25 164.41, 318.95 328.58, 320 500 M320 500 C193.67 499.34, 66.86 498.46, 0 500 M320 500 C236.84 499.35, 153.04 499.26, 0 500 M0 500 C-0.38 301.72, -0.24 104.6, 0 0 M0 500 C1.08 351.68, 1.18 203.98, 0 0" stroke="#000000" stroke-width="1" fill="none"></path></g><g stroke-linecap="round" transform="translate(30 30) rotate(0 140 230)"><path d="M0.03 -1.62 L280.39 1.65 L280.08 460.39 L-0.8 461.17" stroke="none" stroke-width="0" fill="#ffff"></path><path d="M0 0 C70.5 1.65, 142.4 -0.26, 280 0 M0 0 C63.05 2.41, 126.83 1.43, 280 0 M280 0 C279.65 164.61, 280.01 330.14, 280 460 M280 0 C279.74 113.72, 279.11 228.16, 280 460 M280 460 C190.11 462.83, 102.49 463.27, 0 460 M280 460 C194.29 459.13, 108.06 459.35, 0 460 M0 460 C0.75 282.62, 0.97 104.97, 0 0 M0 460 C0.58 354.88, 0.24 249.37, 0 0" stroke="#000000" stroke-width="1" fill="none"></path></g><g stroke-linecap="round" transform="translate(89.8515625 109.8515625) rotate(0 90 20)"><path d="M10 0 C61.27 0.92, 112.77 -2.02, 170 0 M10 0 C66.26 0.58, 121.22 -0.1, 170 0 M170 0 C175.24 1.23, 178.42 3.34, 180 10 M170 0 C178.44 1.01, 181.16 2.41, 180 10 M180 10 C178.12 17.04, 181.03 24.32, 180 30 M180 10 C180.67 16.36, 180.72 25.29, 180 30 M180 30 C180.96 35.24, 175.31 39.16, 170 40 M180 30 C181.96 37.03, 175.66 39.85, 170 40 M170 40 C120.99 41.4, 67.15 42.37, 10 40 M170 40 C137.84 39.03, 103.14 38.61, 10 40 M10 40 C4.08 39.13, -1.78 38.36, 0 30 M10 40 C2.51 39.94, 0.3 37.67, 0 30 M0 30 C-2 22.18, -1.53 18.45, 0 10 M0 30 C0.7 23.3, -0.13 15.65, 0 10 M0 10 C0.11 1.85, 1.84 -1.07, 10 0 M0 10 C0.03 3.01, 2.9 -0.46, 10 0" stroke="#000000" stroke-width="1" fill="none"></path></g><g stroke-linecap="round"><g transform="translate(50 70) rotate(0 19.42578125 30)"><path d="M0 0 C0 21.56, 0 43.12, 0 60 M0 0 C0 16.11, 0 32.22, 0 60 M0 60 C12.8 59.99, 25.6 59.97, 38.85 59.96 M0 60 C10.45 59.99, 20.9 59.98, 38.85 59.96" stroke="#000000" stroke-width="1" fill="none"></path></g><g transform="translate(50 70) rotate(0 19.42578125 30)"><path d="M20.6 66.62 C27.16 64.23, 33.72 61.83, 38.85 59.96 M20.6 66.62 C25.5 64.83, 30.4 63.04, 38.85 59.96" stroke="#000000" stroke-width="1" fill="none"></path></g><g transform="translate(50 70) rotate(0 19.42578125 30)"><path d="M20.59 53.33 C27.15 55.71, 33.71 58.09, 38.85 59.96 M20.59 53.33 C25.49 55.11, 30.4 56.89, 38.85 59.96" stroke="#000000" stroke-width="1" fill="none"></path></g></g><mask></mask><g transform="translate(136.8515625 119.8515625) rotate(0 43 10)"><text x="43" y="0" font-family="Cascadia, Segoe UI Emoji" font-size="16px" fill="#000000" text-anchor="middle" style="white-space: pre;" direction="ltr" dominant-baseline="text-before-edge">heartbeat</text></g><g stroke-linecap="round" transform="translate(90 250) rotate(0 90 20)"><path d="M10 0 C64.79 -1, 118.21 1.48, 170 0 M10 0 C74.17 -0.98, 138.78 0.1, 170 0 M170 0 C176.71 1.68, 178.22 4.81, 180 10 M170 0 C175.41 -0.39, 180.72 5.34, 180 10 M180 10 C179.61 18.88, 181.25 23.19, 180 30 M180 10 C180.36 15.9, 180.59 21.18, 180 30 M180 30 C181.06 35.53, 176.76 40.79, 170 40 M180 30 C181.9 34.38, 177.69 42.25, 170 40 M170 40 C118.59 39.45, 69.77 40.4, 10 40 M170 40 C118.11 41.21, 67.49 40.28, 10 40 M10 40 C2.39 41.3, 1.12 36.89, 0 30 M10 40 C5.37 41.73, -0.66 38.8, 0 30 M0 30 C0.03 23.47, -0.54 20.54, 0 10 M0 30 C0 25.36, -0.07 21.41, 0 10 M0 10 C1.48 2.79, 4.93 -0.51, 10 0 M0 10 C1.49 3.54, 4.3 -1.22, 10 0" stroke="#000000" stroke-width="1" fill="none"></path></g><g transform="translate(104 260) rotate(0 76 10)"><text x="76" y="0" font-family="Cascadia, Segoe UI Emoji" font-size="16px" fill="#000000" text-anchor="middle" style="white-space: pre;" direction="ltr" dominant-baseline="text-before-edge">cleanup_the_dead</text></g><g stroke-linecap="round" transform="translate(90 390) rotate(0 90 20)"><path d="M10 0 C45.65 -0.77, 78.92 -0.46, 170 0 M10 0 C73.2 1.45, 135.77 -0.17, 170 0 M170 0 C175.97 1.64, 179.36 4.81, 180 10 M170 0 C175.96 -1.71, 180.96 1.97, 180 10 M180 10 C179.65 16.31, 180.98 19.69, 180 30 M180 10 C180.93 15.28, 180.58 19.92, 180 30 M180 30 C178.69 36.11, 176.66 39.12, 170 40 M180 30 C182.09 34.79, 175.27 40.58, 170 40 M170 40 C108.37 39.74, 46.94 38.74, 10 40 M170 40 C116.74 41.91, 65.12 41.9, 10 40 M10 40 C1.88 39.7, -1.14 38.34, 0 30 M10 40 C1.19 40.58, -0.49 35.99, 0 30 M0 30 C-0.9 24.76, 1.73 17.66, 0 10 M0 30 C0.41 23.69, -0.48 19.71, 0 10 M0 10 C-0.66 2.44, 2.22 -1.68, 10 0 M0 10 C-1.3 2.72, 1.49 0.33, 10 0" stroke="#000000" stroke-width="1" fill="none"></path></g><g transform="translate(108.5 400) rotate(0 71.5 10)"><text x="71.5" y="0" font-family="Cascadia, Segoe UI Emoji" font-size="16px" fill="#000000" text-anchor="middle" style="white-space: pre;" direction="ltr" dominant-baseline="text-before-edge">register_myself</text></g><g stroke-linecap="round"><g transform="translate(50 70) rotate(0 19.5 170)"><path d="M0 0 C0 80.75, 0 161.51, 0 340 M0 0 C0 128.98, 0 257.96, 0 340 M0 340 C0 340, 0 340, 0 340 M0 340 C0 340, 0 340, 0 340 M0 340 C10.81 340, 21.61 340, 39 340 M0 340 C11.15 340, 22.29 340, 39 340" stroke="#000000" stroke-width="1" fill="none"></path></g><g transform="translate(50 70) rotate(0 19.5 170)"><path d="M20.68 346.67 C25.03 345.09, 29.38 343.5, 39 340 M20.68 346.67 C27.63 344.14, 34.58 341.61, 39 340" stroke="#000000" stroke-width="1" fill="none"></path></g><g transform="translate(50 70) rotate(0 19.5 170)"><path d="M20.68 333.33 C25.03 334.91, 29.38 336.5, 39 340 M20.68 333.33 C27.63 335.86, 34.58 338.39, 39 340" stroke="#000000" stroke-width="1" fill="none"></path></g></g><mask></mask><g stroke-linecap="round"><g transform="translate(50 70) rotate(0 19.5 100)"><path d="M0 0 C0 48.69, 0 97.38, 0 200 M0 0 C0 53.07, 0 106.15, 0 200 M0 200 C12.98 199.54, 25.97 199.07, 39 198.61 M0 200 C14.61 199.48, 29.21 198.96, 39 198.61" stroke="#000000" stroke-width="1" fill="none"></path></g><g transform="translate(50 70) rotate(0 19.5 100)"><path d="M20.91 205.93 C25.32 204.15, 29.72 202.36, 39 198.61 M20.91 205.93 C25.71 203.99, 30.51 202.04, 39 198.61" stroke="#000000" stroke-width="1" fill="none"></path></g><g transform="translate(50 70) rotate(0 19.5 100)"><path d="M20.44 192.59 C24.96 194.06, 29.48 195.52, 39 198.61 M20.44 192.59 C25.36 194.19, 30.29 195.78, 39 198.61" stroke="#000000" stroke-width="1" fill="none"></path></g></g><mask></mask><g stroke-linecap="round"><g transform="translate(271 269.89510113983556) rotate(0 79 -0.3040379049539297)"><path d="M0 0 C26.33 -0.1, 131.67 -0.51, 158 -0.61 M0 0 C26.33 -0.1, 131.67 -0.51, 158 -0.61" stroke="#000000" stroke-width="1" fill="none"></path></g><g transform="translate(271 269.89510113983556) rotate(0 79 -0.3040379049539297)"><path d="M129.85 9.76 C136.61 7.27, 143.37 4.78, 158 -0.61 M129.85 9.76 C137.32 7.01, 144.79 4.26, 158 -0.61" stroke="#000000" stroke-width="1" fill="none"></path></g><g transform="translate(271 269.89510113983556) rotate(0 79 -0.3040379049539297)"><path d="M129.77 -10.76 C136.55 -8.32, 143.33 -5.88, 158 -0.61 M129.77 -10.76 C137.26 -8.07, 144.75 -5.37, 158 -0.61" stroke="#000000" stroke-width="1" fill="none"></path></g></g><mask></mask><g transform="translate(95.89794921875 298.58380126953125) rotate(0 86.5 27.5)"><text x="0" y="0" font-family="Cascadia, Segoe UI Emoji" font-size="9.46938775510204px" fill="#495057" text-anchor="start" style="white-space: pre;" direction="ltr" dominant-baseline="text-before-edge">sscan("super_processes") do |p|</text><text x="0" y="11.000000000000002" font-family="Cascadia, Segoe UI Emoji" font-size="9.46938775510204px" fill="#495057" text-anchor="start" style="white-space: pre;" direction="ltr" dominant-baseline="text-before-edge">  next if exists(p) &gt; 0</text><text x="0" y="22.000000000000004" font-family="Cascadia, Segoe UI Emoji" font-size="9.46938775510204px" fill="#495057" text-anchor="start" style="white-space: pre;" direction="ltr" dominant-baseline="text-before-edge">  # recover from private queues</text><text x="0" y="33.00000000000001" font-family="Cascadia, Segoe UI Emoji" font-size="9.46938775510204px" fill="#495057" text-anchor="start" style="white-space: pre;" direction="ltr" dominant-baseline="text-before-edge">end</text><text x="0" y="44.00000000000001" font-family="Cascadia, Segoe UI Emoji" font-size="9.46938775510204px" fill="#495057" text-anchor="start" style="white-space: pre;" direction="ltr" dominant-baseline="text-before-edge"></text></g><g stroke-linecap="round" transform="translate(430 190) rotate(0 50 80)"><path d="M0 0 C36.08 -0.67, 69.78 1.53, 100 0 M0 0 C24.53 -0.46, 49.29 -0.3, 100 0 M100 0 C98.6 53.75, 99.79 105.42, 100 160 M100 0 C101.35 33, 100.52 65.08, 100 160 M100 160 C66.47 161.71, 31.34 161.83, 0 160 M100 160 C59.86 158.57, 20.12 159.81, 0 160 M0 160 C-1.95 120.67, -2.3 81.34, 0 0 M0 160 C-0.14 121.77, 0.8 85.47, 0 0" stroke="#c92a2a" stroke-width="2" fill="none"></path></g><g stroke-linecap="round" transform="translate(451.8157881191314 226.70464040001264) rotate(0 25.929493610261034 15)"><path d="M25.26 -1.04 L50.23 14.23 L25.11 30.87 L0.8 16.52" stroke="none" stroke-width="0" fill="#c6302b" fill-rule="evenodd"></path><path d="M26 0 C32.29 3.49, 38.37 8.77, 51.86 16 M26 0 C34.29 5.47, 44.54 10.44, 51.86 16 M51.86 16 C45.21 19.65, 40.52 24.61, 26 30 M51.86 16 C46.38 18.68, 39.36 21.87, 26 30 M26 30 C19.21 24.5, 11.42 20.7, 0 16 M26 30 C17.49 25.5, 7.26 20.33, 0 16 M0 16 C7.83 12.05, 14.57 5.88, 26 0 M0 16 C10.26 10.97, 18.48 4.51, 26 0" stroke="#000000" stroke-width="1" fill="none"></path></g><g stroke-linecap="round"><g transform="translate(451.49322025603715 237.2563314600734) rotate(0 25.827140346010083 7.146118813162843)" fill-rule="evenodd"><path d="M-0.7 2.27 C-0.7 2.35, 1 1.72, 1.49 1.97 C1.98 2.23, 0.6 2.65, 2.25 3.81 C3.9 4.97, 8.15 7.19, 11.38 8.93 C14.61 10.67, 19.49 13.38, 21.65 14.25 C23.81 15.13, 22.63 14.14, 24.35 14.19 C26.08 14.24, 29.22 15.26, 32.01 14.55 C34.8 13.84, 37.65 12.07, 41.12 9.93 C44.59 7.79, 50.87 3.18, 52.82 1.71 C54.76 0.23, 53.26 1.67, 52.79 1.07 C52.31 0.48, 51.3 -1.87, 49.98 -1.88 C48.66 -1.89, 48.22 -1.08, 44.85 1 C41.48 3.08, 33.19 9, 29.73 10.6 C26.28 12.19, 28.69 12.01, 24.13 10.55 C19.58 9.09, 6.29 3.69, 2.42 1.84" stroke="none" stroke-width="0" fill="#912626" fill-rule="evenodd"></path><path d="M-0.35 -0.55 C-0.63 -0.06, -1.1 1.26, -0.77 1.93 C-0.43 2.6, -0.45 2.61, 1.64 3.49 C3.73 4.37, 8.38 5.52, 11.78 7.21 C15.18 8.89, 19.72 12.51, 22.03 13.61 C24.35 14.7, 24.34 13.76, 25.67 13.78 C26.99 13.8, 27.36 14.66, 29.97 13.74 C32.58 12.83, 37.7 9.82, 41.32 8.3 C44.94 6.77, 50.12 5.65, 51.7 4.59 C53.29 3.53, 51.1 2.56, 50.84 1.92 C50.58 1.28, 50.86 0.82, 50.15 0.75 C49.45 0.68, 50.28 0.08, 46.62 1.51 C42.96 2.93, 31.98 7.8, 28.2 9.32 C24.42 10.84, 28.6 12.35, 23.94 10.61 C19.28 8.87, 4.26 0.81, 0.25 -1.14 M1.66 1.78 C1.7 2.57, 1.62 3.03, 1.54 3.53 C1.46 4.03, -0.64 4.06, 1.17 4.78 C2.99 5.51, 9.19 6.29, 12.43 7.89 C15.67 9.49, 18.23 13.61, 20.61 14.38 C23 15.14, 25.12 12.73, 26.76 12.47 C28.41 12.21, 28.23 13.55, 30.49 12.79 C32.75 12.04, 36.94 9.45, 40.3 7.92 C43.66 6.39, 48.84 4.68, 50.66 3.6 C52.47 2.52, 51.31 2.3, 51.18 1.44 C51.06 0.57, 50.32 -1.48, 49.89 -1.59 C49.47 -1.7, 52.27 -0.88, 48.65 0.78 C45.04 2.43, 32.38 6.63, 28.18 8.34 C23.98 10.05, 28.06 12.2, 23.48 11.04 C18.9 9.87, 4.48 3.28, 0.7 1.36" stroke="#000000" stroke-width="1" fill="none"></path></g></g><mask></mask><g stroke-linecap="round"><g transform="translate(451.41257829026335 229.27277684849298) rotate(0 25.827140346010083 7.146118813162843)" fill-rule="evenodd"><path d="M2.27 1.49 C2.05 2.11, 0.3 2.59, 0.15 2.99 C-0.01 3.4, -0.62 3.12, 1.34 3.91 C3.3 4.7, 8.27 6.56, 11.93 7.74 C15.59 8.92, 20.92 9.58, 23.29 10.98 C25.67 12.37, 24.75 15.8, 26.16 16.11 C27.57 16.41, 28.98 13.71, 31.77 12.8 C34.55 11.9, 40.09 11.98, 42.86 10.67 C45.63 9.37, 47.06 6.64, 48.37 4.98 C49.69 3.32, 50.59 1.88, 50.74 0.71 C50.89 -0.46, 50.07 -2.46, 49.26 -2.06 C48.46 -1.65, 49.2 1.09, 45.94 3.15 C42.67 5.2, 33.2 8.81, 29.65 10.26 C26.09 11.71, 29.24 13.41, 24.61 11.85 C19.97 10.3, 6.03 3.15, 1.84 0.94" stroke="none" stroke-width="0" fill="#912626" fill-rule="evenodd"></path><path d="M-0.55 -0.77 C-0.36 -0.31, -0.15 1.54, 0.11 2.39 C0.37 3.23, -0.66 3.35, 1.03 4.31 C2.71 5.26, 6.61 6.79, 10.21 8.12 C13.81 9.45, 20.06 11.3, 22.65 12.29 C25.24 13.28, 24.37 13.95, 25.75 14.06 C27.14 14.18, 28.37 13.75, 30.95 13 C33.53 12.25, 37.85 11.22, 41.23 9.56 C44.61 7.9, 49.53 4.48, 51.25 3.03 C52.98 1.59, 51.48 1.44, 51.59 0.88 C51.7 0.33, 52.76 -0.41, 51.9 -0.29 C51.04 -0.17, 50.36 -0.12, 46.44 1.61 C42.52 3.34, 32 8.73, 28.37 10.07 C24.74 11.42, 29.59 11.38, 24.67 9.68 C19.75 7.98, 3.16 1.36, -1.14 -0.14 M1.37 1.44 C1.49 1.58, -0.59 0.41, -0.78 0.56 C-0.97 0.71, -1.57 0.91, 0.23 2.37 C2.03 3.82, 6.48 7.61, 10.03 9.28 C13.59 10.95, 18.74 11.76, 21.55 12.37 C24.36 12.97, 25.15 13.02, 26.89 12.91 C28.63 12.79, 29.78 12.17, 31.99 11.66 C34.21 11.15, 37.17 10.98, 40.17 9.85 C43.16 8.72, 47.95 5.94, 49.97 4.88 C52 3.83, 51.9 4.24, 52.33 3.51 C52.76 2.78, 53.21 0.91, 52.56 0.48 C51.9 0.06, 52.4 -0.56, 48.39 0.94 C44.37 2.44, 32.41 8.04, 28.44 9.49 C24.47 10.93, 29.56 11.33, 24.58 9.62 C19.6 7.91, 2.8 1.05, -1.41 -0.77" stroke="#000000" stroke-width="1" fill="none"></path></g></g><mask></mask><g stroke-linecap="round" transform="translate(451.4932202560376 218.47915989111164) rotate(0 25.929493610261034 10.669552394652897)"><path d="M24.23 -0.89 L52.73 11.8 L26.52 22.25 L1.98 12.5" stroke="none" stroke-width="0" fill="#c6302b" fill-rule="evenodd"></path><path d="M26 0 C33.13 4.08, 39.85 7.39, 51.86 11 M26 0 C31.52 1.98, 37.85 5.59, 51.86 11 M51.86 11 C45.3 13.02, 36.16 15.65, 26 21.34 M51.86 11 C42.29 14.28, 33.92 19.16, 26 21.34 M26 21.34 C15.91 19.19, 10.68 14.11, 0 11 M26 21.34 C16.2 17.4, 5.65 13.6, 0 11 M0 11 C7.36 9.51, 16.23 4.71, 26 0 M0 11 C9.82 6.85, 18.29 2.41, 26 0" stroke="#000000" stroke-width="1" fill="none"></path></g><g stroke-linecap="round" transform="translate(451.16363295057863 210) rotate(0 25.929493610261034 10.669552394652897)"><path d="M25.11 0.87 L52.66 11.52 L26.91 23.32 L1.5 11.77" stroke="none" stroke-width="0" fill="#c6302b" fill-rule="evenodd"></path><path d="M26 0 C33.45 2.69, 40.36 4.23, 51.86 11 M26 0 C33.62 3.33, 42.66 6.93, 51.86 11 M51.86 11 C43 14.1, 34.91 18.31, 26 21.34 M51.86 11 C44.67 14.03, 39.01 16.61, 26 21.34 M26 21.34 C21.88 20.22, 14.79 18.72, 0 11 M26 21.34 C16.72 17.88, 7.6 13.89, 0 11 M0 11 C10.82 8.38, 18.44 4.46, 26 0 M0 11 C9.97 6.02, 19.78 1.32, 26 0" stroke="#000000" stroke-width="1" fill="none"></path></g><g stroke-linecap="round"><g transform="translate(451.08299098480484 220.79361695738135) rotate(0 25.827140346010083 7.146118813162843)" fill-rule="evenodd"><path d="M1.17 0.26 C0.98 0.69, 0.42 1.96, 0.36 2.73 C0.3 3.51, -0.66 4.05, 0.8 4.91 C2.26 5.78, 5.29 6.32, 9.11 7.92 C12.93 9.51, 20.91 13.14, 23.74 14.46 C26.57 15.78, 24.63 16.46, 26.08 15.85 C27.54 15.25, 29.78 12.24, 32.5 10.85 C35.23 9.45, 39.64 8.96, 42.43 7.46 C45.22 5.96, 48.06 2.95, 49.23 1.85 C50.41 0.76, 48.97 1.03, 49.48 0.9 C50 0.77, 52.62 0.7, 52.32 1.09 C52.02 1.47, 51.2 1.47, 47.66 3.2 C44.12 4.93, 34.96 10.52, 31.09 11.46 C27.22 12.4, 29.85 10.51, 24.43 8.86 C19.01 7.21, 2.62 2.89, -1.44 1.55" stroke="none" stroke-width="0" fill="#912626" fill-rule="evenodd"></path><path d="M0.56 -0.05 C0.82 0.1, 0.66 0.29, 0.76 1.01 C0.86 1.73, -0.43 3.18, 1.18 4.27 C2.79 5.35, 7 5.94, 10.42 7.5 C13.84 9.07, 19.06 12.53, 21.7 13.65 C24.34 14.77, 24.67 14.21, 26.28 14.22 C27.9 14.23, 29.02 14.71, 31.39 13.73 C33.75 12.74, 37.48 9.85, 40.49 8.31 C43.49 6.77, 47.61 5.64, 49.41 4.49 C51.2 3.34, 51.02 2.19, 51.25 1.41 C51.48 0.63, 51.41 -0.5, 50.78 -0.19 C50.16 0.12, 51.12 1.82, 47.47 3.26 C43.83 4.7, 32.94 7.64, 28.92 8.48 C24.9 9.32, 28.05 9.61, 23.35 8.32 C18.65 7.03, 4.67 1.95, 0.72 0.74 M-0.6 -1.13 C-0.37 -0.85, 0.03 1.56, 0.21 2.13 C0.39 2.7, -1.22 1.27, 0.47 2.3 C2.16 3.34, 7.08 6.32, 10.35 8.34 C13.63 10.36, 17.22 13.64, 20.11 14.44 C23 15.24, 26.22 13.42, 27.7 13.14 C29.18 12.87, 26.5 13.64, 29 12.77 C31.49 11.91, 39.06 9.49, 42.7 7.93 C46.33 6.38, 49.3 4.65, 50.81 3.44 C52.33 2.23, 51.8 1.12, 51.81 0.65 C51.82 0.18, 51.78 0.17, 50.86 0.64 C49.94 1.11, 49.89 1.77, 46.3 3.45 C42.7 5.13, 33.23 9.42, 29.27 10.72 C25.32 12.01, 27.22 12.89, 22.58 11.2 C17.94 9.51, 5.1 2.56, 1.42 0.58" stroke="#000000" stroke-width="1" fill="none"></path></g></g><mask></mask><g stroke-linecap="round" transform="translate(460.4438350880373 218.09615376502893) rotate(0 5.597501153692747 2.4666954236611787)"><path d="M6.35 0.36 C7.45 0.47, 9.22 0.64, 9.96 1.07 C10.69 1.5, 10.76 2.39, 10.73 2.92 C10.7 3.46, 10.46 3.9, 9.79 4.28 C9.12 4.66, 7.83 5.18, 6.71 5.2 C5.6 5.22, 4.25 4.77, 3.11 4.4 C1.96 4.04, 0.34 3.57, -0.17 3.02 C-0.68 2.48, -0.42 1.63, 0.05 1.14 C0.52 0.65, 1.4 0.33, 2.63 0.09 C3.86 -0.15, 6.66 -0.24, 7.42 -0.29 C8.19 -0.34, 7.32 -0.33, 7.22 -0.22 M6.42 -0.53 C7.78 -0.5, 9.44 0.5, 10.2 0.92 C10.95 1.34, 10.96 1.5, 10.96 1.99 C10.96 2.48, 10.9 3.43, 10.21 3.87 C9.51 4.3, 7.89 4.37, 6.78 4.59 C5.67 4.81, 4.66 5.32, 3.55 5.2 C2.45 5.07, 0.66 4.44, 0.15 3.83 C-0.36 3.23, 0.08 2.13, 0.49 1.59 C0.9 1.04, 1.79 0.77, 2.61 0.58 C3.43 0.39, 4.75 0.49, 5.41 0.45 C6.06 0.41, 6.45 0.44, 6.54 0.31" stroke="none" stroke-width="0" fill="#ffff"></path><path d="M4.41 -0.18 C5.5 -0.29, 7.25 0.36, 8.33 0.65 C9.41 0.95, 10.37 1.11, 10.88 1.61 C11.38 2.1, 11.82 3.14, 11.34 3.63 C10.87 4.13, 9.23 4.33, 8.03 4.58 C6.83 4.84, 5.28 5.29, 4.13 5.16 C2.98 5.03, 1.84 4.27, 1.12 3.8 C0.4 3.33, -0.26 2.73, -0.2 2.33 C-0.13 1.92, 0.64 1.82, 1.52 1.36 C2.39 0.9, 4.44 -0.16, 5.05 -0.46 C5.66 -0.75, 5.14 -0.58, 5.19 -0.41 M5.24 0.36 C6.27 0.24, 7.95 0.34, 8.96 0.58 C9.97 0.81, 10.96 1.38, 11.3 1.78 C11.65 2.18, 11.63 2.38, 11.05 2.96 C10.48 3.54, 8.94 4.97, 7.85 5.27 C6.77 5.58, 5.61 4.9, 4.54 4.78 C3.48 4.66, 2.3 4.93, 1.44 4.56 C0.58 4.19, -0.62 3.27, -0.63 2.56 C-0.63 1.85, 0.55 0.84, 1.42 0.3 C2.29 -0.23, 4.01 -0.67, 4.59 -0.66 C5.16 -0.65, 4.72 0.2, 4.87 0.38" stroke="#000000" stroke-width="1" fill="none"></path></g><g stroke-linecap="round"><g transform="translate(470.79446857732364 225.5760350121668) rotate(0 4.839419555297582 0.12419645082638908)" fill-rule="evenodd"><path d="M0.17 0.3 L7.85 2.9 L9.93 -2.31 L-0.39 0.42" stroke="none" stroke-width="0" fill="#ffff" fill-rule="evenodd"></path><path d="M0 0 C2.32 0.84, 5.14 1.53, 7.19 2.4 M0 0 C1.85 0.59, 3.82 1.3, 7.19 2.4 M7.19 2.4 C7.86 1.29, 8.26 0.23, 9.68 -2.15 M7.19 2.4 C7.88 1.06, 8.54 -0.19, 9.68 -2.15 M9.68 -2.15 C6.51 -1.19, 2.74 -0.45, 0 0 M9.68 -2.15 C6.65 -1.38, 3.54 -0.81, 0 0 M0 0 C0 0, 0 0, 0 0 M0 0 C0 0, 0 0, 0 0" stroke="#000000" stroke-width="1" fill="none"></path></g></g><mask></mask><g stroke-linecap="round"><g transform="translate(474.3427150713592 213.25763581861645) rotate(0 2.952919040825236 2.7086213209818197)" fill-rule="evenodd"><path d="M-0.05 -0.27 L0.3 1.36 L-1.43 3.94 L1.2 3.72 L3.46 5.85 L3.39 3.11 L7.98 3.19 L4.46 1.7 L5.59 -0.92 L2.92 0.56 L-0.17 -0.18" stroke="none" stroke-width="0" fill="#ffff" fill-rule="evenodd"></path><path d="M0 0 C0.27 0.63, 0.5 1.13, 0.89 1.97 M0 0 C0.25 0.59, 0.53 1.08, 0.89 1.97 M0.89 1.97 C0.08 2.38, -0.69 2.85, -1.72 3.51 M0.89 1.97 C-0.03 2.48, -0.92 3.04, -1.72 3.51 M-1.72 3.51 C-0.5 3.61, 0.63 3.73, 1.46 3.81 M-1.72 3.51 C-0.69 3.56, 0.28 3.74, 1.46 3.81 M1.46 3.81 C2.2 4.48, 2.8 5.29, 3.24 5.89 M1.46 3.81 C1.88 4.35, 2.36 4.86, 3.24 5.89 M3.24 5.89 C3.43 5.03, 3.51 4.25, 3.71 3.44 M3.24 5.89 C3.42 5.14, 3.54 4.42, 3.71 3.44 M3.71 3.44 C4.99 3.18, 6.44 2.92, 7.63 2.88 M3.71 3.44 C4.65 3.27, 5.64 3.14, 7.63 2.88 M7.63 2.88 C6.63 2.63, 5.54 2.36, 4.28 1.85 M7.63 2.88 C6.52 2.54, 5.38 2.17, 4.28 1.85 M4.28 1.85 C4.65 1.12, 4.92 0.35, 5.31 -0.47 M4.28 1.85 C4.64 1.13, 4.93 0.36, 5.31 -0.47 M5.31 -0.47 C4.35 -0.08, 3.43 0.38, 2.49 0.82 M5.31 -0.47 C4.25 0, 3.11 0.51, 2.49 0.82 M2.49 0.82 C1.79 0.53, 1.14 0.41, 0 0 M2.49 0.82 C1.45 0.45, 0.53 0.19, 0 0 M0 0 C0 0, 0 0, 0 0 M0 0 C0 0, 0 0, 0 0" stroke="#000000" stroke-width="1" fill="none"></path></g></g><mask></mask><g stroke-linecap="round"><g transform="translate(489.03560825614386 217.89400150693587) rotate(0 0 2.4192589732061833)" fill-rule="evenodd"><path d="M0.27 -0.76 L6.1 3.01 L-0.96 5.79 L-5.74 2.15 L-0.29 -0.04 L0.03 -0.49" stroke="none" stroke-width="0" fill="#912626" fill-rule="evenodd"></path><path d="M0 0 C2.38 0.71, 4.25 1.69, 6.05 2.42 M0 0 C2.36 0.98, 4.28 1.75, 6.05 2.42 M6.05 2.42 C4.58 2.78, 3.35 3.54, -0.24 4.84 M6.05 2.42 C3.53 3.2, 1.14 4.42, -0.24 4.84 M-0.24 4.84 C-1.81 4.35, -3.37 3.59, -6.05 2.42 M-0.24 4.84 C-2.32 4.03, -4.04 3.32, -6.05 2.42 M-6.05 2.42 C-4.57 1.83, -2.64 0.8, 0 0 M-6.05 2.42 C-4.64 1.97, -3.35 1.45, 0 0 M0 0 C0 0, 0 0, 0 0 M0 0 C0 0, 0 0, 0 0 M0 0 C0 0, 0 0, 0 0 M0 0 C0 0, 0 0, 0 0" stroke="#000000" stroke-width="1" fill="none"></path></g></g><mask></mask><g stroke-linecap="round"><g transform="translate(488.4135889210311 217.74796531073412) rotate(0 0.062032281364281516 2.4192589732061833)"><path d="M0 0 C-0.05 1.06, 0.03 2.35, 0.12 4.84 M0 0 C0.09 1.4, 0.07 2.84, 0.12 4.84" stroke="#000000" stroke-width="1" fill="none"></path></g></g><mask></mask><g stroke-linecap="round"><g transform="translate(270.8515625 129.9015639459643) rotate(0 99.57421875 30.049218027017844)"><path d="M0 0 C29.86 0.02, 145.96 -9.92, 179.15 0.1 C212.34 10.11, 195.82 50.1, 199.15 60.1 M0 0 C29.86 0.02, 145.96 -9.92, 179.15 0.1 C212.34 10.11, 195.82 50.1, 199.15 60.1" stroke="#000000" stroke-width="1" fill="none"></path></g><g transform="translate(270.8515625 129.9015639459643) rotate(0 99.57421875 30.049218027017844)"><path d="M189.77 31.6 C192.21 39.01, 194.65 46.43, 199.15 60.1 M189.77 31.6 C192.48 39.84, 195.2 48.09, 199.15 60.1" stroke="#000000" stroke-width="1" fill="none"></path></g><g transform="translate(270.8515625 129.9015639459643) rotate(0 99.57421875 30.049218027017844)"><path d="M210.28 32.24 C207.39 39.49, 204.49 46.73, 199.15 60.1 M210.28 32.24 C207.06 40.3, 203.84 48.36, 199.15 60.1" stroke="#000000" stroke-width="1" fill="none"></path></g></g><mask></mask><g stroke-linecap="round"><g transform="translate(271 410) rotate(0 99.5 -30)"><path d="M0 0 C29.83 0, 145.83 10, 179 0 C212.17 -10, 195.67 -50, 199 -60 M0 0 C29.83 0, 145.83 10, 179 0 C212.17 -10, 195.67 -50, 199 -60" stroke="#000000" stroke-width="1" fill="none"></path></g><g transform="translate(271 410) rotate(0 99.5 -30)"><path d="M210.13 -32.14 C206.94 -40.11, 203.76 -48.09, 199 -60 M210.13 -32.14 C206.37 -41.54, 202.62 -50.94, 199 -60" stroke="#000000" stroke-width="1" fill="none"></path></g><g transform="translate(271 410) rotate(0 99.5 -30)"><path d="M189.62 -31.51 C192.3 -39.66, 194.99 -47.82, 199 -60 M189.62 -31.51 C192.78 -41.12, 195.95 -50.73, 199 -60" stroke="#000000" stroke-width="1" fill="none"></path></g></g><mask></mask><g stroke-linecap="round" transform="translate(30 30) rotate(0 50 20)"><path d="M0 0 C27.74 0, 55.47 0, 100 0 M100 0 C100 9.61, 100 19.22, 100 40 M100 40 C79.66 40, 59.31 40, 0 40 M0 40 C0 27.16, 0 14.32, 0 0" stroke="#000000" stroke-width="1.5" fill="none" stroke-dasharray="8 9"></path></g><g transform="translate(48.5 40) rotate(0 31.5 10)"><text x="31.5" y="0" font-family="Virgil, Segoe UI Emoji" font-size="16px" fill="#000000" text-anchor="middle" style="white-space: pre;" direction="ltr" dominant-baseline="text-before-edge">startup</text></g><g transform="translate(346.76513671875 91.45965576171875) rotate(0 56.5 11)"><text x="0" y="0" font-family="Cascadia, Segoe UI Emoji" font-size="9.46938775510204px" fill="#495057" text-anchor="start" style="white-space: pre;" direction="ltr" dominant-baseline="text-before-edge">hmset(identity)</text><text x="0" y="11.000000000000002" font-family="Cascadia, Segoe UI Emoji" font-size="9.46938775510204px" fill="#495057" text-anchor="start" style="white-space: pre;" direction="ltr" dominant-baseline="text-before-edge">expire(identity, 60)</text></g><g transform="translate(346.1597900390625 425.93658447265625) rotate(0 92.5 5.5)"><text x="0" y="0" font-family="Cascadia, Segoe UI Emoji" font-size="9.46938775510204px" fill="#495057" text-anchor="start" style="white-space: pre;" direction="ltr" dominant-baseline="text-before-edge">sadd("super_processes", identity)</text></g><g transform="translate(449.5 321) rotate(0 30.5 12)"><text x="30.5" y="0" font-family="Cascadia, Segoe UI Emoji" font-size="20px" fill="#c92a2a" text-anchor="middle" style="white-space: pre;" direction="ltr" dominant-baseline="text-before-edge">Redis</text></g><g transform="translate(221 35) rotate(0 42 12)"><text x="84" y="0" font-family="Cascadia, Segoe UI Emoji" font-size="20px" fill="#a61e4d" text-anchor="end" style="white-space: pre;" direction="ltr" dominant-baseline="text-before-edge">Sidekiq</text></g><g stroke-linecap="round"><g transform="translate(130.36543561374333 150.8515625) rotate(0 51.01348085240522 19.57421875)"><path d="M0 0 C3.27 6.52, 6.36 32.62, 19.63 39.15 C32.91 45.67, 65.9 45.67, 79.63 39.15 C93.37 32.62, 98.29 6.52, 102.03 0 M0 0 C3.27 6.52, 6.36 32.62, 19.63 39.15 C32.91 45.67, 65.9 45.67, 79.63 39.15 C93.37 32.62, 98.29 6.52, 102.03 0" stroke="#000000" stroke-width="1" fill="none"></path></g><g transform="translate(130.36543561374333 150.8515625) rotate(0 51.01348085240522 19.57421875)"><path d="M101.61 22.55 C101.76 14.58, 101.91 6.62, 102.03 0 M101.61 22.55 C101.78 13.54, 101.94 4.54, 102.03 0" stroke="#000000" stroke-width="1" fill="none"></path></g><g transform="translate(130.36543561374333 150.8515625) rotate(0 51.01348085240522 19.57421875)"><path d="M87.22 17.01 C92.45 11, 97.68 4.99, 102.03 0 M87.22 17.01 C93.13 10.21, 99.05 3.42, 102.03 0" stroke="#000000" stroke-width="1" fill="none"></path></g></g><mask></mask><g transform="translate(153.5823974609375 165.9547119140625) rotate(0 26 11)"><text x="26" y="0" font-family="Cascadia, Segoe UI Emoji" font-size="9.46938775510204px" fill="#343a40" text-anchor="middle" style="white-space: pre;" direction="ltr" dominant-baseline="text-before-edge">every</text><text x="26" y="11.000000000000002" font-family="Cascadia, Segoe UI Emoji" font-size="9.46938775510204px" fill="#343a40" text-anchor="middle" style="white-space: pre;" direction="ltr" dominant-baseline="text-before-edge">5 seconds</text></g></svg>